<?xml version="1.0" encoding="utf-8"?>
<!-- Generator: Adobe Illustrator 27.0.0, SVG Export Plug-In . SVG Version: 6.00 Build 0)  -->
<svg version="1.1" id="Слой_1" xmlns="http://www.w3.org/2000/svg" xmlns:xlink="http://www.w3.org/1999/xlink" x="0px" y="0px"
	 viewBox="0 0 398 96" style="enable-background:new 0 0 398 96;" xml:space="preserve">
<style type="text/css">
	.st0{fill:#000000;}
</style>
<path class="st0" d="M78.3,62.4h19.7L62,0H49.6l-9.2,15.8l21.5,37.1c1.7,2.9,4.1,5.3,7,6.9C71.7,61.5,75,62.4,78.3,62.4z"/>
<path class="st0" d="M36.1,22.9L0,85.3L6.2,96h18.3L46,58.9c1.7-2.9,2.5-6.1,2.5-9.5c0-3.3-0.9-6.6-2.5-9.5L36.1,22.9z"/>
<path class="st0" d="M102.1,69.4H59.2c-3.3,0-6.6,0.9-9.5,2.5c-2.9,1.7-5.3,4.1-6.9,6.9L32.9,96h72.2l6.2-10.7L102.1,69.4z"/>
<path class="st0" d="M160.5,58c-0.9-1.3-2.2-2.4-3.6-3c-1.8-0.7-3.7-1.1-5.6-1.1h-10.5v24.3h5.6v-6.7h4.9c1.9,0,3.8-0.3,5.6-1.1
	c1.5-0.6,2.8-1.7,3.6-3c0.8-1.4,1.3-3,1.3-4.7S161.3,59.4,160.5,58z M155.8,64.5c-0.2,0.5-0.6,1-1,1.4c-0.9,0.7-2.2,1.1-3.9,1.1
	h-4.6l0-8.4h4.6c1.7,0,3,0.4,3.9,1.1c0.4,0.4,0.8,0.9,1,1.4c0.2,0.5,0.3,1.1,0.3,1.7C156.1,63.4,156,63.9,155.8,64.5z"/>
<polygon class="st0" points="243.1,59.6 236.6,70.2 235.6,70.2 235.6,59.6 230.2,59.6 230.2,78.2 236.8,78.2 243.4,67.6 244.3,67.6 
	244.3,78.2 249.7,78.2 249.7,59.6 "/>
<polygon class="st0" points="267.6,59.6 261,70.2 260.1,70.2 260.1,59.6 254.7,59.6 254.7,78.2 261.3,78.2 267.8,67.6 268.7,67.6 
	268.7,78.2 274.1,78.2 274.1,59.6 "/>
<path class="st0" d="M199.1,71.7c-0.5,1.5-1.6,2.2-3.2,2.2c-0.5,0-1.1-0.1-1.5-0.3c-0.5-0.2-0.9-0.6-1.2-1c-0.7-0.9-1.1-2.1-1.1-3.7
	s0.4-2.9,1.1-3.8c0.3-0.4,0.8-0.7,1.2-1c0.5-0.2,1-0.3,1.5-0.3c0.7,0,1.5,0.2,2.1,0.6c0.6,0.4,1,1,1.2,1.6l0.1,0.3h5.8l-0.1-0.5
	c-0.4-2-1.5-3.7-3.1-5c-1.7-1.2-3.8-1.8-5.9-1.8c-1.7,0-3.4,0.4-4.9,1.2c-1.4,0.8-2.6,2-3.3,3.4c-0.8,1.6-1.2,3.3-1.2,5.1
	s0.4,3.5,1.2,5.1c0.8,1.4,1.9,2.6,3.3,3.4c1.5,0.8,3.2,1.2,4.9,1.2c2.1,0.1,4.1-0.6,5.8-1.8c1.6-1.2,2.7-3,3.1-4.9l0.1-0.5h-5.8
	L199.1,71.7z"/>
<path class="st0" d="M220.4,71.7c-0.5,1.5-1.6,2.2-3.2,2.2c-0.5,0-1.1-0.1-1.5-0.3c-0.5-0.2-0.9-0.6-1.2-1c-0.7-0.9-1.1-2.1-1.1-3.7
	c0-1.6,0.4-2.9,1.1-3.8c0.3-0.4,0.8-0.7,1.2-1c0.5-0.2,1-0.3,1.5-0.3c0.7,0,1.5,0.2,2.1,0.6c0.6,0.4,1,1,1.2,1.6l0.1,0.3h5.8
	l-0.1-0.5c-0.4-2-1.5-3.7-3.1-5c-1.7-1.2-3.7-1.8-5.8-1.8c-1.7,0-3.4,0.4-4.9,1.2c-1.4,0.8-2.6,2-3.3,3.4c-0.8,1.6-1.2,3.3-1.2,5.1
	c0,1.8,0.4,3.5,1.2,5.1c0.8,1.4,1.9,2.6,3.3,3.4c1.5,0.8,3.2,1.2,4.9,1.2c2.1,0.1,4.1-0.6,5.8-1.8c1.6-1.2,2.7-3,3.1-4.9l0.1-0.5
	h-5.8L220.4,71.7z"/>
<path class="st0" d="M178.8,60.3c-1.5-0.8-3.2-1.2-5-1.2c-1.7,0-3.4,0.4-5,1.2c-1.5,0.8-2.7,2-3.5,3.4c-0.9,1.6-1.3,3.3-1.3,5.1
	c0,1.8,0.4,3.5,1.3,5.1c0.8,1.5,2,2.6,3.5,3.4c1.5,0.8,3.2,1.2,4.9,1.2c1.7,0,3.5-0.4,5-1.2c1.5-0.8,2.7-2,3.6-3.4
	c0.9-1.6,1.4-3.3,1.3-5.1c0-1.8-0.4-3.6-1.3-5.1C181.5,62.3,180.3,61.1,178.8,60.3z M175.8,73.3c-0.6,0.4-1.4,0.6-2.1,0.6
	c-0.6,0-1.1-0.1-1.6-0.3c-0.5-0.2-1-0.5-1.3-1c-0.8-0.8-1.2-2.1-1.2-3.7c0-1.6,0.4-2.8,1.2-3.7c0.4-0.4,0.8-0.7,1.4-0.9
	s1.1-0.3,1.6-0.3c0.6,0,1.1,0.1,1.6,0.3c0.5,0.2,1,0.5,1.4,1c0.8,0.8,1.2,2.1,1.2,3.7c0,1-0.2,1.9-0.6,2.7
	C177.1,72.3,176.5,72.9,175.8,73.3"/>
<path class="st0" d="M140.7,44.7V20.5h8.9l4.4,9.2h0.9l4.2-9.2h8.9l0,24.3h-5.3l0-17.8h-1.1l-5,9.9H152l-5.2-9.9h-0.9v17.8H140.7z"
	/>
<path class="st0" d="M197.5,44.7V26.1h5.4v7.3h8.1v-7.3h5.4v18.6H211v-7h-8.1v7H197.5z"/>
<polygon class="st0" points="221.4,26.1 221.4,44.7 226.7,44.7 226.7,30.5 234.5,30.5 234.5,44.7 239.9,44.7 239.9,26.1 "/>
<polygon class="st0" points="334.4,26.1 316.4,26.1 316.4,30.5 322.7,30.5 322.7,44.7 328.1,44.7 328.1,30.5 334.4,30.5 "/>
<polygon class="st0" points="397.2,26.1 382.3,26.1 382.3,44.7 387.7,44.7 387.7,30.5 397.2,30.5 "/>
<polygon class="st0" points="185.9,26.1 179.3,36.7 178.4,36.7 178.4,26.1 173,26.1 173,44.7 179.6,44.7 186.2,34.1 187.1,34.1 
	187.1,44.7 192.5,44.7 192.5,26.1 "/>
<path class="st0" d="M312.5,44.7l-0.1-18.6h-6.1l-4.3,8.5H301v0l-3.9-8.5h-6.7v18.6h4.9V33.2h0.9l2.9,6.1h4.4l3-6.1v0h1v11.6H312.5z
	 M307.6,31.2L307.6,31.2L307.6,31.2L307.6,31.2z"/>
<path class="st0" d="M282.2,26.8c-1.5-0.8-3.2-1.2-5-1.2c-1.7,0-3.4,0.4-5,1.2c-1.5,0.8-2.7,2-3.5,3.5c-0.9,1.6-1.3,3.3-1.3,5.1
	c0,1.8,0.4,3.5,1.2,5.1c0.8,1.5,2,2.6,3.5,3.5c1.5,0.8,3.2,1.2,4.9,1.2c1.7,0,3.5-0.4,5-1.2c1.5-0.8,2.7-2,3.6-3.4
	c0.9-1.6,1.4-3.3,1.3-5.1c0-1.8-0.4-3.6-1.3-5.1C284.9,28.8,283.7,27.6,282.2,26.8z M279.3,39.8c-0.6,0.4-1.4,0.5-2.1,0.5
	c-0.6,0-1.1-0.1-1.6-0.3c-0.5-0.2-1-0.5-1.3-1c-0.8-0.8-1.2-2.1-1.2-3.7s0.4-2.8,1.2-3.7c0.4-0.4,0.8-0.7,1.4-1
	c0.5-0.2,1.1-0.3,1.6-0.3c0.6,0,1.1,0.1,1.6,0.3c0.5,0.2,1,0.5,1.4,1c0.8,0.8,1.2,2.1,1.2,3.7c0,1-0.2,1.9-0.6,2.7
	C280.5,38.8,280,39.4,279.3,39.8"/>
<path class="st0" d="M351,26.8c-1.5-0.8-3.2-1.2-5-1.2c-1.7,0-3.4,0.4-5,1.2c-1.5,0.8-2.7,2-3.5,3.5c-0.9,1.6-1.3,3.3-1.3,5.1
	c0,1.8,0.4,3.5,1.3,5.1c0.8,1.5,2,2.7,3.5,3.5c1.5,0.8,3.2,1.2,4.9,1.2c1.7,0,3.5-0.4,5-1.2c1.5-0.8,2.7-2,3.6-3.4
	c0.9-1.6,1.4-3.3,1.3-5.1c0-1.8-0.4-3.6-1.3-5.1C353.6,28.8,352.4,27.7,351,26.8z M348,39.8c-0.7,0.4-1.4,0.5-2.1,0.5
	c-0.6,0-1.1-0.1-1.6-0.3c-0.5-0.2-1-0.5-1.3-1c-0.8-0.8-1.2-2.1-1.2-3.7s0.4-2.8,1.2-3.7c0.4-0.4,0.8-0.7,1.4-1
	c0.5-0.2,1.1-0.3,1.6-0.3c0.6,0,1.1,0.1,1.6,0.3c0.5,0.2,1,0.5,1.4,1c0.8,0.8,1.2,2.1,1.2,3.7c0,1-0.2,1.9-0.6,2.7
	C349.2,38.8,348.7,39.4,348,39.8"/>
<path class="st0" d="M263.5,30.3c-0.7-1.4-1.8-2.6-3.1-3.4v0c-1.3-0.8-2.9-1.2-4.4-1.2c-2.3,0-3.8,1.2-4.7,2.3v0h-0.9v-1.8h-5.5
	v24.8h5.4v-8.1h0.9v0c0.9,1.1,2.5,2.4,4.6,2.4c1.6,0,3.1-0.4,4.4-1.2c1.3-0.9,2.4-2.1,3.1-3.5c0.8-1.6,1.2-3.3,1.1-5.1
	C264.7,33.6,264.3,31.8,263.5,30.3z M250.3,41.4L250.3,41.4C250.3,41.4,250.3,41.4,250.3,41.4L250.3,41.4z M258.5,38
	c-0.4,0.7-0.9,1.3-1.6,1.7c-0.6,0.4-1.4,0.6-2.1,0.6s-1.5-0.2-2.1-0.6c-0.7-0.4-1.2-1-1.6-1.7c-0.4-0.8-0.6-1.7-0.6-2.6
	c0-0.9,0.2-1.8,0.6-2.6c0.4-0.7,0.9-1.3,1.6-1.7c0.6-0.4,1.4-0.6,2.1-0.6c0.8,0,1.5,0.2,2.2,0.6c0.7,0.4,1.2,1,1.6,1.6
	c0.4,0.8,0.7,1.7,0.6,2.6C259.1,36.3,258.9,37.2,258.5,38z"/>
<path class="st0" d="M377.7,30.3c-0.7-1.4-1.8-2.6-3.1-3.4v0c-1.3-0.8-2.9-1.2-4.4-1.2c-2.3,0-3.8,1.2-4.6,2.3v0h-0.9v-1.8h-5.4
	v24.8h5.4v-8.1h0.9v0c0.9,1.1,2.5,2.4,4.6,2.4c1.6,0,3.1-0.4,4.4-1.2c1.3-0.9,2.4-2.1,3.1-3.5c0.8-1.6,1.2-3.3,1.1-5.1
	C378.9,33.6,378.5,31.8,377.7,30.3z M364.6,41.4L364.6,41.4C364.6,41.4,364.6,41.4,364.6,41.4L364.6,41.4z M372.7,38
	c-0.4,0.7-0.9,1.3-1.6,1.7c-0.6,0.4-1.4,0.6-2.1,0.6c-0.8,0-1.5-0.2-2.1-0.6c-0.7-0.4-1.2-1-1.6-1.7c-0.4-0.8-0.6-1.7-0.6-2.6
	c0-0.9,0.2-1.8,0.6-2.6c0.4-0.7,0.9-1.3,1.6-1.7c0.6-0.4,1.4-0.6,2.1-0.6c0.8,0,1.5,0.2,2.2,0.6c0.7,0.4,1.2,1,1.6,1.7
	c0.4,0.8,0.7,1.7,0.7,2.6C373.4,36.3,373.2,37.2,372.7,38z"/>
</svg>
