<?xml version="1.0" encoding="UTF-8" standalone="no" ?>
<!DOCTYPE svg PUBLIC "-//W3C//DTD SVG 1.1//EN" "http://www.w3.org/Graphics/SVG/1.1/DTD/svg11.dtd">
<svg xmlns="http://www.w3.org/2000/svg" xmlns:xlink="http://www.w3.org/1999/xlink" version="1.1" width="300" height="111" viewBox="0 0 300 111" xml:space="preserve">
<desc>Created with Fabric.js 3.6.6</desc>
<defs>
</defs>
<g transform="matrix(0.82 0 0 0.82 149.67 55.95)"  >
<g style=""   >
		<g transform="matrix(0.89 0 0 0.89 65.71 17.92)"  >
<path style="stroke: none; stroke-width: 1; stroke-dasharray: none; stroke-linecap: butt; stroke-dashoffset: 0; stroke-linejoin: miter; stroke-miterlimit: 4; fill: rgb(0,0,0); fill-rule: nonzero; opacity: 1;"  transform=" translate(-282.69, -441.24)" d="M 282.69 441.24 C 282.69 441.24 282.69 441.24 282.69 441.24 L 282.69 441.24 z" stroke-linecap="round" />
</g>
		<g transform="matrix(0.89 0 0 0.89 -38.66 10.34)"  >
<path style="stroke: none; stroke-width: 1; stroke-dasharray: none; stroke-linecap: butt; stroke-dashoffset: 0; stroke-linejoin: miter; stroke-miterlimit: 4; fill: rgb(76,77,75); fill-rule: nonzero; opacity: 1;"  transform=" translate(-165.42, -432.72)" d="M 151.29 450.07 v -34.7 h 14.13 c 2.41 0 4.5 0.27 6.27 0.82 c 1.76 0.54 3.24 1.32 4.41 2.33 c 1.17 1.01 2.04 2.25 2.61 3.72 c 0.56 1.47 0.84 3.13 0.84 4.98 c 0 1.85 -0.28 3.51 -0.84 4.98 c -0.56 1.47 -1.43 2.71 -2.61 3.72 s -2.64 1.78 -4.41 2.33 c -1.77 0.54 -3.86 0.82 -6.27 0.82 h -5.21 v 11 H 151.29 z M 160.21 431.73 h 4.21 c 2.28 0 3.88 -0.38 4.81 -1.14 c 0.92 -0.76 1.39 -1.88 1.39 -3.37 c 0 -1.49 -0.46 -2.61 -1.39 -3.37 c -0.93 -0.76 -2.53 -1.14 -4.81 -1.14 h -4.21 V 431.73 z" stroke-linecap="round" />
</g>
		<g transform="matrix(0.89 0 0 0.89 -11.97 14.09)"  >
<path style="stroke: none; stroke-width: 1; stroke-dasharray: none; stroke-linecap: butt; stroke-dashoffset: 0; stroke-linejoin: miter; stroke-miterlimit: 4; fill: rgb(76,77,75); fill-rule: nonzero; opacity: 1;"  transform=" translate(-195.41, -436.93)" d="M 195.4 450.71 c -1.85 0 -3.58 -0.27 -5.21 -0.82 c -1.62 -0.54 -3.04 -1.38 -4.26 -2.5 c -1.22 -1.12 -2.18 -2.54 -2.87 -4.24 s -1.04 -3.69 -1.04 -5.97 v -0.99 c 0 -2.15 0.35 -4.03 1.04 -5.65 c 0.69 -1.62 1.65 -2.97 2.87 -4.06 c 1.22 -1.09 2.64 -1.92 4.26 -2.48 c 1.62 -0.56 3.36 -0.84 5.21 -0.84 c 1.85 0 3.59 0.28 5.21 0.84 c 1.62 0.56 3.04 1.39 4.26 2.48 c 1.23 1.09 2.18 2.44 2.88 4.06 c 0.69 1.62 1.04 3.5 1.04 5.65 v 0.99 c 0 2.25 -0.35 4.22 -1.04 5.92 c -0.69 1.7 -1.65 3.12 -2.88 4.24 c -1.22 1.12 -2.64 1.97 -4.26 2.53 C 198.99 450.43 197.26 450.71 195.4 450.71 z M 195.4 444.37 c 0.89 0 1.69 -0.16 2.38 -0.5 c 0.69 -0.33 1.27 -0.81 1.74 -1.44 c 0.46 -0.63 0.82 -1.39 1.07 -2.28 c 0.25 -0.89 0.37 -1.88 0.37 -2.97 v -0.99 c 0 -0.99 -0.12 -1.9 -0.37 -2.73 c -0.25 -0.83 -0.6 -1.53 -1.07 -2.11 s -1.04 -1.03 -1.74 -1.36 c -0.69 -0.33 -1.49 -0.5 -2.38 -0.5 c -0.89 0 -1.68 0.17 -2.38 0.5 c -0.69 0.33 -1.28 0.79 -1.74 1.36 c -0.46 0.58 -0.82 1.28 -1.07 2.11 c -0.25 0.83 -0.38 1.74 -0.38 2.73 v 0.99 c 0 1.12 0.13 2.13 0.38 3.02 c 0.24 0.89 0.6 1.65 1.07 2.28 c 0.46 0.63 1.04 1.1 1.74 1.41 C 193.72 444.21 194.51 444.37 195.4 444.37 z" stroke-linecap="round" />
</g>
		<g transform="matrix(0.89 0 0 0.89 14.04 14.08)"  >
<path style="stroke: none; stroke-width: 1; stroke-dasharray: none; stroke-linecap: butt; stroke-dashoffset: 0; stroke-linejoin: miter; stroke-miterlimit: 4; fill: rgb(76,77,75); fill-rule: nonzero; opacity: 1;"  transform=" translate(-224.64, -436.93)" d="M 225.14 450.71 c -1.95 0 -3.74 -0.28 -5.38 -0.84 c -1.64 -0.56 -3.05 -1.4 -4.24 -2.53 c -1.19 -1.12 -2.12 -2.53 -2.78 -4.21 c -0.66 -1.68 -0.99 -3.67 -0.99 -5.95 v -0.99 c 0 -2.08 0.36 -3.93 1.07 -5.55 c 0.71 -1.62 1.67 -2.98 2.87 -4.09 c 1.21 -1.11 2.63 -1.95 4.27 -2.53 c 1.63 -0.58 3.36 -0.87 5.18 -0.87 c 1.98 0 3.73 0.26 5.23 0.79 c 1.51 0.53 2.77 1.25 3.79 2.16 c 1.03 0.91 1.82 1.98 2.38 3.2 c 0.56 1.22 0.89 2.53 0.99 3.92 h -7.83 c -0.26 -1.19 -0.75 -2.11 -1.46 -2.75 c -0.71 -0.64 -1.74 -0.97 -3.1 -0.97 c -0.79 0 -1.52 0.14 -2.2 0.42 c -0.68 0.28 -1.27 0.69 -1.76 1.24 c -0.49 0.55 -0.88 1.24 -1.16 2.08 c -0.28 0.84 -0.43 1.83 -0.43 2.95 v 0.99 c 0 1.22 0.13 2.28 0.4 3.17 c 0.26 0.89 0.64 1.63 1.11 2.23 c 0.48 0.6 1.07 1.03 1.76 1.31 c 0.69 0.28 1.45 0.42 2.28 0.42 c 1.16 0 2.14 -0.31 2.95 -0.92 c 0.81 -0.61 1.34 -1.53 1.61 -2.75 h 7.83 c -0.1 1.55 -0.46 2.95 -1.09 4.19 c -0.63 1.24 -1.48 2.3 -2.56 3.17 c -1.07 0.88 -2.35 1.55 -3.82 2.01 C 228.61 450.48 226.96 450.71 225.14 450.71 z" stroke-linecap="round" />
</g>
		<g transform="matrix(0.89 0 0 0.89 40.63 18.21)"  >
<path style="stroke: none; stroke-width: 1; stroke-dasharray: none; stroke-linecap: butt; stroke-dashoffset: 0; stroke-linejoin: miter; stroke-miterlimit: 4; fill: rgb(76,77,75); fill-rule: nonzero; opacity: 1;"  transform=" translate(-254.51, -441.57)" d="M 241.25 459.98 v -36.19 h 7.04 v 3.57 c 0.66 -1.06 1.68 -2.02 3.07 -2.9 c 1.39 -0.88 3.09 -1.31 5.11 -1.31 c 3.7 0 6.51 1.09 8.43 3.27 c 1.92 2.18 2.87 5.44 2.87 9.77 v 0.99 c 0 2.22 -0.26 4.17 -0.79 5.87 c -0.53 1.7 -1.29 3.11 -2.28 4.24 c -0.99 1.12 -2.18 1.98 -3.57 2.55 c -1.39 0.58 -2.94 0.87 -4.66 0.87 c -1.49 0 -2.9 -0.34 -4.24 -1.02 c -1.34 -0.68 -2.45 -1.66 -3.35 -2.95 v 13.24 H 241.25 z M 254.64 444.41 c 0.76 0 1.46 -0.16 2.11 -0.47 c 0.65 -0.31 1.2 -0.77 1.69 -1.36 c 0.47 -0.6 0.85 -1.35 1.11 -2.26 c 0.26 -0.91 0.4 -1.96 0.4 -3.15 v -0.99 c 0 -1.16 -0.12 -2.16 -0.37 -3 c -0.25 -0.84 -0.61 -1.54 -1.09 -2.08 c -0.48 -0.55 -1.04 -0.96 -1.69 -1.24 s -1.36 -0.42 -2.16 -0.42 c -0.8 0 -1.54 0.12 -2.26 0.37 c -0.71 0.25 -1.32 0.63 -1.83 1.14 c -0.51 0.51 -0.92 1.14 -1.22 1.88 c -0.29 0.74 -0.44 1.61 -0.44 2.6 v 2.48 c 0 1.02 0.15 1.94 0.44 2.75 c 0.3 0.81 0.7 1.5 1.22 2.06 c 0.51 0.56 1.12 0.98 1.83 1.26 C 253.1 444.28 253.84 444.41 254.64 444.41 z" stroke-linecap="round" />
</g>
		<g transform="matrix(0.89 0 0 0.89 66.77 14.08)"  >
<path style="stroke: none; stroke-width: 1; stroke-dasharray: none; stroke-linecap: butt; stroke-dashoffset: 0; stroke-linejoin: miter; stroke-miterlimit: 4; fill: rgb(76,77,75); fill-rule: nonzero; opacity: 1;"  transform=" translate(-283.88, -436.93)" d="M 284.38 450.71 c -1.92 0 -3.71 -0.27 -5.38 -0.82 c -1.67 -0.54 -3.11 -1.38 -4.34 -2.5 c -1.22 -1.12 -2.18 -2.54 -2.88 -4.24 c -0.69 -1.7 -1.04 -3.69 -1.04 -5.97 v -0.99 c 0 -2.18 0.34 -4.08 1.01 -5.7 c 0.68 -1.62 1.6 -2.97 2.78 -4.07 c 1.17 -1.09 2.56 -1.91 4.16 -2.45 s 3.33 -0.82 5.18 -0.82 c 4.36 0 7.64 1.11 9.84 3.32 c 2.2 2.21 3.3 5.45 3.3 9.72 v 2.73 h -18.44 c 0.03 1.03 0.22 1.89 0.55 2.6 c 0.33 0.71 0.76 1.3 1.29 1.76 c 0.53 0.46 1.14 0.8 1.83 1.02 c 0.69 0.22 1.41 0.32 2.14 0.32 c 1.49 0 2.64 -0.22 3.47 -0.67 c 0.82 -0.45 1.37 -1.05 1.63 -1.81 h 7.04 c -0.26 1.42 -0.72 2.67 -1.39 3.74 c -0.66 1.07 -1.5 1.97 -2.53 2.7 c -1.03 0.73 -2.23 1.26 -3.62 1.61 S 286.06 450.71 284.38 450.71 z M 278.63 433.91 h 10.9 c 0 -0.92 -0.14 -1.68 -0.42 -2.28 c -0.28 -0.6 -0.67 -1.07 -1.16 -1.44 c -0.5 -0.36 -1.08 -0.62 -1.74 -0.77 c -0.66 -0.15 -1.36 -0.22 -2.08 -0.22 c -0.69 0 -1.36 0.08 -2.01 0.25 s -1.22 0.44 -1.74 0.82 c -0.51 0.38 -0.92 0.87 -1.24 1.46 C 278.83 432.32 278.66 433.05 278.63 433.91 z" stroke-linecap="round" />
</g>
		<g transform="matrix(0.89 0 0 0.89 92.8 14.08)"  >
<path style="stroke: none; stroke-width: 1; stroke-dasharray: none; stroke-linecap: butt; stroke-dashoffset: 0; stroke-linejoin: miter; stroke-miterlimit: 4; fill: rgb(76,77,75); fill-rule: nonzero; opacity: 1;"  transform=" translate(-313.13, -436.93)" d="M 313.62 450.71 c -1.92 0 -3.71 -0.27 -5.38 -0.82 c -1.67 -0.54 -3.12 -1.38 -4.34 -2.5 c -1.22 -1.12 -2.18 -2.54 -2.87 -4.24 c -0.69 -1.7 -1.04 -3.69 -1.04 -5.97 v -0.99 c 0 -2.18 0.34 -4.08 1.02 -5.7 c 0.67 -1.62 1.6 -2.97 2.78 -4.07 c 1.17 -1.09 2.56 -1.91 4.16 -2.45 s 3.33 -0.82 5.18 -0.82 c 4.36 0 7.64 1.11 9.84 3.32 c 2.19 2.21 3.29 5.45 3.29 9.72 v 2.73 h -18.44 c 0.03 1.03 0.22 1.89 0.55 2.6 c 0.33 0.71 0.76 1.3 1.29 1.76 c 0.53 0.46 1.14 0.8 1.83 1.02 c 0.69 0.22 1.4 0.32 2.13 0.32 c 1.49 0 2.64 -0.22 3.47 -0.67 s 1.37 -1.05 1.64 -1.81 h 7.04 c -0.26 1.42 -0.73 2.67 -1.39 3.74 c -0.66 1.07 -1.51 1.97 -2.53 2.7 c -1.03 0.73 -2.23 1.26 -3.62 1.61 C 316.84 450.54 315.31 450.71 313.62 450.71 z M 307.87 433.91 h 10.9 c 0 -0.92 -0.14 -1.68 -0.42 -2.28 c -0.28 -0.6 -0.67 -1.07 -1.17 -1.44 c -0.49 -0.36 -1.08 -0.62 -1.74 -0.77 c -0.66 -0.15 -1.35 -0.22 -2.08 -0.22 c -0.69 0 -1.36 0.08 -2 0.25 c -0.65 0.16 -1.23 0.44 -1.74 0.82 c -0.51 0.38 -0.93 0.87 -1.24 1.46 C 308.08 432.32 307.9 433.05 307.87 433.91 z" stroke-linecap="round" />
</g>
		<g transform="matrix(0.89 0 0 0.89 118.61 14.08)"  >
<path style="stroke: none; stroke-width: 1; stroke-dasharray: none; stroke-linecap: butt; stroke-dashoffset: 0; stroke-linejoin: miter; stroke-miterlimit: 4; fill: rgb(76,77,75); fill-rule: nonzero; opacity: 1;"  transform=" translate(-342.12, -436.93)" d="M 342.62 450.71 c -1.95 0 -3.74 -0.28 -5.38 -0.84 c -1.63 -0.56 -3.04 -1.4 -4.24 -2.53 c -1.19 -1.12 -2.11 -2.53 -2.78 -4.21 c -0.66 -1.68 -0.99 -3.67 -0.99 -5.95 v -0.99 c 0 -2.08 0.35 -3.93 1.07 -5.55 c 0.71 -1.62 1.67 -2.98 2.87 -4.09 c 1.21 -1.11 2.62 -1.95 4.26 -2.53 c 1.64 -0.58 3.36 -0.87 5.18 -0.87 c 1.98 0 3.72 0.26 5.23 0.79 c 1.5 0.53 2.77 1.25 3.79 2.16 c 1.02 0.91 1.81 1.98 2.38 3.2 c 0.56 1.22 0.89 2.53 0.99 3.92 h -7.83 c -0.26 -1.19 -0.75 -2.11 -1.46 -2.75 c -0.71 -0.64 -1.74 -0.97 -3.1 -0.97 c -0.79 0 -1.53 0.14 -2.2 0.42 c -0.68 0.28 -1.27 0.69 -1.76 1.24 c -0.49 0.55 -0.88 1.24 -1.16 2.08 c -0.28 0.84 -0.42 1.83 -0.42 2.95 v 0.99 c 0 1.22 0.13 2.28 0.4 3.17 c 0.26 0.89 0.64 1.63 1.11 2.23 c 0.48 0.6 1.07 1.03 1.76 1.31 c 0.69 0.28 1.46 0.42 2.28 0.42 c 1.15 0 2.14 -0.31 2.95 -0.92 c 0.81 -0.61 1.35 -1.53 1.61 -2.75 h 7.83 c -0.1 1.55 -0.46 2.95 -1.09 4.19 c -0.63 1.24 -1.48 2.3 -2.55 3.17 c -1.08 0.88 -2.35 1.55 -3.82 2.01 C 346.08 450.48 344.44 450.71 342.62 450.71 z" stroke-linecap="round" />
</g>
		<g transform="matrix(0.89 0 0 0.89 142.65 14.08)"  >
<path style="stroke: none; stroke-width: 1; stroke-dasharray: none; stroke-linecap: butt; stroke-dashoffset: 0; stroke-linejoin: miter; stroke-miterlimit: 4; fill: rgb(76,77,75); fill-rule: nonzero; opacity: 1;"  transform=" translate(-369.13, -436.93)" d="M 365.32 450.07 v -20.03 h -8.08 v -6.25 h 23.79 v 6.25 h -8.08 v 20.03 H 365.32 z" stroke-linecap="round" />
</g>
		<g transform="matrix(0.89 0 0 0.89 168.13 18.21)"  >
<path style="stroke: none; stroke-width: 1; stroke-dasharray: none; stroke-linecap: butt; stroke-dashoffset: 0; stroke-linejoin: miter; stroke-miterlimit: 4; fill: rgb(76,77,75); fill-rule: nonzero; opacity: 1;"  transform=" translate(-397.76, -441.57)" d="M 384.5 459.98 v -36.19 h 7.04 v 3.57 c 0.66 -1.06 1.68 -2.02 3.07 -2.9 c 1.39 -0.88 3.09 -1.31 5.11 -1.31 c 3.7 0 6.51 1.09 8.43 3.27 c 1.92 2.18 2.87 5.44 2.87 9.77 v 0.99 c 0 2.22 -0.26 4.17 -0.79 5.87 c -0.53 1.7 -1.29 3.11 -2.28 4.24 c -0.99 1.12 -2.18 1.98 -3.57 2.55 c -1.39 0.58 -2.94 0.87 -4.66 0.87 c -1.49 0 -2.9 -0.34 -4.24 -1.02 c -1.34 -0.68 -2.45 -1.66 -3.35 -2.95 v 13.24 H 384.5 z M 397.89 444.41 c 0.76 0 1.46 -0.16 2.11 -0.47 c 0.65 -0.31 1.2 -0.77 1.69 -1.36 c 0.47 -0.6 0.85 -1.35 1.11 -2.26 c 0.26 -0.91 0.4 -1.96 0.4 -3.15 v -0.99 c 0 -1.16 -0.12 -2.16 -0.37 -3 c -0.25 -0.84 -0.61 -1.54 -1.09 -2.08 c -0.48 -0.55 -1.04 -0.96 -1.69 -1.24 s -1.36 -0.42 -2.16 -0.42 c -0.8 0 -1.54 0.12 -2.26 0.37 c -0.71 0.25 -1.32 0.63 -1.83 1.14 c -0.51 0.51 -0.92 1.14 -1.22 1.88 c -0.29 0.74 -0.44 1.61 -0.44 2.6 v 2.48 c 0 1.02 0.15 1.94 0.44 2.75 c 0.3 0.81 0.7 1.5 1.22 2.06 c 0.51 0.56 1.12 0.98 1.83 1.26 C 396.34 444.28 397.09 444.41 397.89 444.41 z" stroke-linecap="round" />
</g>
		<g transform="matrix(0.89 0 0 0.89 -102.06 -21.34)"  >
<path style="stroke: none; stroke-width: 1; stroke-dasharray: none; stroke-linecap: butt; stroke-dashoffset: 0; stroke-linejoin: miter; stroke-miterlimit: 4; fill: rgb(76,77,75); fill-rule: nonzero; opacity: 1;"  transform=" translate(-94.19, -397.13)" d="M 90.8 397.82 c 1.71 -0.53 4.7 -0.57 6.77 1.25 c 0 -1.95 -1.68 -3.67 -2.27 -3.89 C 94.53 395.31 91.92 396.44 90.8 397.82" stroke-linecap="round" />
</g>
		<g transform="matrix(0.89 0 0 0.89 -88.81 -37.48)"  >
<path style="stroke: none; stroke-width: 1; stroke-dasharray: none; stroke-linecap: butt; stroke-dashoffset: 0; stroke-linejoin: miter; stroke-miterlimit: 4; fill: rgb(76,77,75); fill-rule: nonzero; opacity: 1;"  transform=" translate(-109.07, -378.98)" d="M 107.1 374.78 c -0.22 -0.69 6.79 -0.71 6.79 3.68 c 0 2.94 -4.19 4.33 -4.19 7.38 c 0 1.42 1.53 2.46 2 2.46 c -1.08 -4.9 3.38 -2.34 4.59 -1.42 c -2.4 -6.59 3 -6.54 2.47 -9.57 c -0.37 -2.11 -5.06 -1.47 -6.75 -2.54 c -3.01 -1.89 -6.57 -9.27 -8.92 -1.89 c 4.38 4.06 1.83 10.04 -3.73 10.04 c 0 0 -0.03 0.88 0.02 0.95 C 106.01 383.55 108.31 378.68 107.1 374.78" stroke-linecap="round" />
</g>
		<g transform="matrix(0.89 0 0 0.89 -152.93 -37.48)"  >
<path style="stroke: none; stroke-width: 1; stroke-dasharray: none; stroke-linecap: butt; stroke-dashoffset: 0; stroke-linejoin: miter; stroke-miterlimit: 4; fill: rgb(76,77,75); fill-rule: nonzero; opacity: 1;"  transform=" translate(-37.03, -378.99)" d="M 29.81 386.89 c 1.21 -0.91 5.67 -3.48 4.59 1.42 c 0.47 0 1.99 -1.04 1.99 -2.46 c 0 -3.05 -4.19 -4.45 -4.19 -7.38 c 0 -4.39 7.01 -4.37 6.79 -3.68 c -1.21 3.9 1.1 8.77 7.73 9.09 c 0.05 -0.07 0.02 -0.95 0.02 -0.95 c -5.55 0 -8.1 -5.98 -3.73 -10.04 c -2.35 -7.38 -5.91 0 -8.92 1.89 c -1.7 1.07 -6.39 0.43 -6.75 2.54 C 26.81 380.34 32.2 380.3 29.81 386.89" stroke-linecap="round" />
</g>
		<g transform="matrix(0.89 0 0 0.89 -159.35 -30.45)"  >
<path style="stroke: none; stroke-width: 1; stroke-dasharray: none; stroke-linecap: butt; stroke-dashoffset: 0; stroke-linejoin: miter; stroke-miterlimit: 4; fill: rgb(76,77,75); fill-rule: nonzero; opacity: 1;"  transform=" translate(-29.81, -386.89)" d="M 29.81 386.89 C 29.81 386.89 29.81 386.89 29.81 386.89 L 29.81 386.89 z" stroke-linecap="round" />
</g>
		<g transform="matrix(0.89 0 0 0.89 -139.6 -21.34)"  >
<path style="stroke: none; stroke-width: 1; stroke-dasharray: none; stroke-linecap: butt; stroke-dashoffset: 0; stroke-linejoin: miter; stroke-miterlimit: 4; fill: rgb(76,77,75); fill-rule: nonzero; opacity: 1;"  transform=" translate(-52, -397.13)" d="M 48.62 399.07 L 48.62 399.07 c 2.08 -1.82 5.06 -1.78 6.77 -1.25 c -1.12 -1.38 -3.74 -2.51 -4.5 -2.64 C 50.3 395.39 48.62 397.12 48.62 399.07" stroke-linecap="round" />
</g>
		<g transform="matrix(0.89 0 0 0.89 -120.87 -55.87)"  >
<polygon style="stroke: none; stroke-width: 1; stroke-dasharray: none; stroke-linecap: butt; stroke-dashoffset: 0; stroke-linejoin: miter; stroke-miterlimit: 4; fill: rgb(76,77,75); fill-rule: nonzero; opacity: 1;"  points="3.23,-0.11 3.23,-0.11 0,-4.05 -3.23,-0.11 0,4.04 " />
</g>
		<g transform="matrix(0.89 0 0 0.89 -103.61 -45.38)"  >
<polygon style="stroke: none; stroke-width: 1; stroke-dasharray: none; stroke-linecap: butt; stroke-dashoffset: 0; stroke-linejoin: miter; stroke-miterlimit: 4; fill: rgb(76,77,75); fill-rule: nonzero; opacity: 1;"  points="2.3,0.03 2.3,0.03 0,-2.77 -2.3,0.03 0,2.77 " />
</g>
		<g transform="matrix(0.89 0 0 0.89 -138.12 -45.38)"  >
<polygon style="stroke: none; stroke-width: 1; stroke-dasharray: none; stroke-linecap: butt; stroke-dashoffset: 0; stroke-linejoin: miter; stroke-miterlimit: 4; fill: rgb(76,77,75); fill-rule: nonzero; opacity: 1;"  points="2.3,0.03 2.3,0.03 0.01,-2.77 -2.3,0.03 0.01,2.77 " />
</g>
		<g transform="matrix(0.89 0 0 0.89 -141.93 -33.14)"  >
<path style="stroke: none; stroke-width: 1; stroke-dasharray: none; stroke-linecap: butt; stroke-dashoffset: 0; stroke-linejoin: miter; stroke-miterlimit: 4; fill: rgb(76,77,75); fill-rule: nonzero; opacity: 1;"  transform=" translate(-49.38, -383.87)" d="M 49.38 383.87" stroke-linecap="round" />
</g>
		<g transform="matrix(0.89 0 0 0.89 -141.34 25.18)"  >
<path style="stroke: none; stroke-width: 1; stroke-dasharray: none; stroke-linecap: butt; stroke-dashoffset: 0; stroke-linejoin: miter; stroke-miterlimit: 4; fill: rgb(76,77,75); fill-rule: nonzero; opacity: 1;"  transform=" translate(-50.05, -449.4)" d="M 54.05 459 c 1.31 -0.49 2.43 -1.36 3.22 -2.51 h 0.01 c -0.53 -0.23 -1.19 -1.52 -1.1 -3.29 c -1.09 0.5 -2.49 0.33 -3.2 -0.21 c -1.34 -1.33 0.26 -2.98 0.61 -4.11 c -2.77 -1.82 -2.07 -3.13 -1.11 -4.1 c 0.73 -0.6 1.56 -1.05 2.46 -1.32 c 0.9 -0.28 1.84 -0.37 2.78 -0.28 l 0.27 0.02 c -0.12 -0.76 -0.19 -1.52 -0.19 -2.31 v -0.97 l -0.08 -0.02 c -3.17 -0.98 -6.3 -0.71 -8.74 1.76 c -2.74 2.77 -3.4 5.01 -6.87 6.36 c 1.34 2.27 6.88 0.13 8.88 0.07 c -0.17 3.46 -4.6 5.22 -5.98 6.1 c 1.34 1.33 5.06 0.41 7.19 -0.14 c -0.06 1.3 0.17 1.96 -2.23 5.15 C 51.32 459.55 52.75 459.48 54.05 459" stroke-linecap="round" />
</g>
		<g transform="matrix(0.89 0 0 0.89 -100.4 25.18)"  >
<path style="stroke: none; stroke-width: 1; stroke-dasharray: none; stroke-linecap: butt; stroke-dashoffset: 0; stroke-linejoin: miter; stroke-miterlimit: 4; fill: rgb(76,77,75); fill-rule: nonzero; opacity: 1;"  transform=" translate(-96.05, -449.4)" d="M 97.09 441.66 c -2.44 -2.47 -5.57 -2.74 -8.74 -1.76 l -0.04 0.01 v 0.98 c 0 0.78 -0.08 1.55 -0.19 2.3 l 0.23 0 c 0.94 -0.09 1.88 0.01 2.78 0.28 c 0.9 0.28 1.73 0.72 2.46 1.32 c 0.96 0.96 1.66 2.28 -1.11 4.1 c 0.35 1.13 1.94 2.78 0.61 4.11 c -0.71 0.54 -2.11 0.71 -3.2 0.21 c 0.09 1.77 -0.57 3.06 -1.1 3.29 h 0.01 c 0.79 1.15 1.92 2.02 3.23 2.51 c 1.31 0.48 2.73 0.56 4.08 0.2 c -2.4 -3.19 -2.17 -3.85 -2.23 -5.14 c 2.14 0.55 5.85 1.47 7.19 0.14 c -1.38 -0.88 -5.82 -2.64 -5.98 -6.11 c 2 0.06 7.55 2.2 8.88 -0.07 C 100.49 446.67 99.83 444.42 97.09 441.66" stroke-linecap="round" />
</g>
		<g transform="matrix(0.89 0 0 0.89 -120.8 -17)"  >
<path style="stroke: none; stroke-width: 1; stroke-dasharray: none; stroke-linecap: butt; stroke-dashoffset: 0; stroke-linejoin: miter; stroke-miterlimit: 4; fill: rgb(76,77,75); fill-rule: nonzero; opacity: 1;"  transform=" translate(-73.13, -402)" d="M 99.68 393.66 c 2.37 0.36 3.12 1.96 3.26 2.45 c 0.8 -0.68 1.55 -3.03 1.26 -4.58 v 0 c -1.37 -7.3 -18.33 -2.46 -26.87 -5.56 c -0.16 2.13 2.63 5.54 5.3 6.8 c -4.57 3.97 -8.67 11.95 -9.5 21.71 c -0.82 -9.76 -4.93 -17.75 -9.49 -21.71 c 2.67 -1.26 5.47 -4.67 5.3 -6.8 c -8.54 3.1 -25.51 -1.74 -26.88 5.56 c -0.29 1.55 0.46 3.9 1.26 4.58 c 0.15 -0.49 0.9 -2.09 3.26 -2.45 c 11.95 -1.81 21.93 16.62 12.92 24.06 c -0.14 0.12 -0.06 0.32 0.13 0.32 h 27.01 c 0.18 0 0.26 -0.21 0.12 -0.32 C 77.75 410.28 87.73 391.86 99.68 393.66" stroke-linecap="round" />
</g>
		<g transform="matrix(0.89 0 0 0.89 -120.89 -42.3)"  >
<path style="stroke: none; stroke-width: 1; stroke-dasharray: none; stroke-linecap: butt; stroke-dashoffset: 0; stroke-linejoin: miter; stroke-miterlimit: 4; fill: rgb(76,77,75); fill-rule: nonzero; opacity: 1;"  transform=" translate(-73.03, -373.58)" d="M 49.38 383.87 h 8.57 c 7.21 0 10.45 -4.42 11.43 -8.26 h 7.33 c 0.98 3.84 4.22 8.26 11.43 8.26 h 8.57 c 0 0 1.5 -2.03 1.87 -3.04 c 1.35 -3.63 -0.37 -5.32 -2.9 -5.32 l -3.26 2.96 l -3.26 -2.96 c -2.53 0 -4.25 1.69 -2.9 5.32 c 0.17 0.46 0.59 1.14 0.98 1.74 c -3.04 -0.42 -6.92 -2.5 -7.78 -6.96 c 0 0 2.25 -3.57 2.81 -5.01 c 2.03 -5.2 -0.56 -7.32 -4.35 -7.32 l -4.89 5.75 l -4.89 -5.75 c -3.78 0 -6.37 2.13 -4.34 7.32 c 0.56 1.45 2.81 5.01 2.81 5.01 c -0.85 4.46 -4.74 6.54 -7.78 6.96 c 0.39 -0.6 0.81 -1.28 0.98 -1.75 c 1.35 -3.63 -0.37 -5.31 -2.9 -5.31 l -3.26 2.96 l -3.26 -2.96 c -2.53 0 -4.25 1.69 -2.9 5.32 C 47.88 381.84 49.38 383.87 49.38 383.87" stroke-linecap="round" />
</g>
		<g transform="matrix(0.89 0 0 0.89 -84.51 -9.91)"  >
<path style="stroke: none; stroke-width: 1; stroke-dasharray: none; stroke-linecap: butt; stroke-dashoffset: 0; stroke-linejoin: miter; stroke-miterlimit: 4; fill: rgb(76,77,75); fill-rule: nonzero; opacity: 1;"  transform=" translate(-113.9, -409.98)" d="M 138.01 410.45 L 138.01 410.45 c -1.66 0.84 -11.36 5.38 -23.8 3.7 c 0.13 -0.59 0.24 -1.19 0.33 -1.79 c 8.28 -0.99 15 -2.39 19.29 -4.78 c 4.89 -2.72 7.02 -9.22 4.56 -14.04 c -0.06 -0.12 -0.24 -0.14 -0.33 -0.04 c -1.35 1.55 -9.85 10.8 -23.24 13.67 c -0.03 -0.69 -0.1 -1.39 -0.19 -2.07 c 6.5 -3.69 12.85 -7.94 15.88 -11.83 c 4.57 -5.87 4.15 -13.37 -0.2 -17.19 c -0.09 -0.07 -0.22 -0.06 -0.29 0.02 c -0.01 0.01 -0.01 0.01 -0.02 0.02 c -1.38 2.27 -14.26 23.09 -28.4 32.08 c -0.17 0.11 -0.35 0.22 -0.52 0.32 c -0.4 0.25 -0.45 0.77 -0.11 1.08 c 1.63 1.48 2.64 3.53 2.64 5.82 c 0 3.97 -3.06 7.27 -7.1 7.99 c -2.06 0.4 -5.02 0.28 -7.87 -0.66 c -0.13 -0.04 -0.26 0.04 -0.26 0.17 v 12.57 c 0 0.2 0.31 0.25 0.38 0.06 c 1.73 -4.59 6.92 -5.57 9.19 -5.57 c 0.81 4.91 2.27 8.97 4.17 11.15 c 3.09 3.55 8.12 3.5 10.31 1.05 c 0.06 -0.08 0.06 -0.19 -0.02 -0.25 c -0.01 -0.01 -0.02 -0.02 -0.03 -0.02 c -1.28 -0.74 -8.62 -5.24 -10.09 -12.63 c 0.58 -0.2 1.14 -0.43 1.69 -0.69 c 2.37 3.92 5.82 7.41 8.59 8.75 c 4.66 2.24 8.93 1.15 10.83 -2.13 c 0.07 -0.12 -0.02 -0.26 -0.16 -0.27 c -2.88 -0.23 -11.74 -2.77 -15.51 -8.95 c 0.44 -0.4 0.85 -0.81 1.25 -1.25 c 3.95 3.01 9.52 5.66 13.52 6.2 c 4.67 0.63 9.97 -0.86 10.09 -6.29 c 0 -0.11 -0.1 -0.2 -0.21 -0.19 c -1.66 0.1 -12.66 0.58 -20.49 -3.92 c 0.27 -0.52 0.53 -1.04 0.76 -1.58 c 0 0 11.84 2.8 17.45 1.87 c 5.58 -0.92 8.84 -5.07 8.21 -10.25 C 138.28 410.46 138.13 410.39 138.01 410.45" stroke-linecap="round" />
</g>
		<g transform="matrix(0.89 0 0 0.89 -157.22 -9.88)"  >
<path style="stroke: none; stroke-width: 1; stroke-dasharray: none; stroke-linecap: butt; stroke-dashoffset: 0; stroke-linejoin: miter; stroke-miterlimit: 4; fill: rgb(76,77,75); fill-rule: nonzero; opacity: 1;"  transform=" translate(-32.21, -410)" d="M 48.15 429.99 c 2.27 0 7.45 0.97 9.19 5.57 c 0.08 0.19 0.38 0.14 0.38 -0.06 v -12.57 c 0 -0.13 -0.13 -0.21 -0.26 -0.17 c -2.85 0.94 -5.82 1.06 -7.87 0.66 c -4.04 -0.72 -7.11 -4.02 -7.11 -7.98 c 0 -2.29 1.02 -4.34 2.64 -5.82 c 0.35 -0.31 0.3 -0.84 -0.1 -1.08 c -0.18 -0.11 -0.35 -0.21 -0.53 -0.32 c -14.13 -8.98 -27 -29.78 -28.39 -32.07 c -0.06 -0.1 -0.19 -0.12 -0.29 -0.06 c -0.01 0.01 -0.02 0.01 -0.02 0.02 c -4.34 3.82 -4.76 11.31 -0.19 17.19 c 3.02 3.88 9.37 8.13 15.87 11.82 c -0.09 0.69 -0.15 1.38 -0.19 2.07 C 17.9 404.3 9.41 395.07 8.05 393.5 c -0.09 -0.11 -0.27 -0.09 -0.33 0.04 c -2.46 4.83 -0.32 11.32 4.56 14.04 c 4.29 2.38 11.02 3.79 19.29 4.78 c 0.09 0.6 0.2 1.2 0.33 1.79 c -12.42 1.68 -22.12 -2.86 -23.79 -3.7 c -0.12 -0.06 -0.27 0.02 -0.29 0.15 c -0.63 5.17 2.63 9.32 8.21 10.24 c 5.61 0.93 17.44 -1.87 17.45 -1.87 h 0 h 0 c 0.24 0.53 0.49 1.06 0.76 1.58 c -7.83 4.49 -18.82 4.02 -20.49 3.92 c -0.12 -0.01 -0.21 0.09 -0.21 0.19 c 0.13 5.43 5.42 6.92 10.09 6.29 c 3.99 -0.54 9.57 -3.2 13.52 -6.2 c 0.4 0.44 0.81 0.85 1.25 1.25 c -3.77 6.18 -12.62 8.72 -15.51 8.95 c -0.14 0.02 -0.22 0.16 -0.15 0.28 c 1.89 3.27 6.16 4.36 10.83 2.13 c 2.77 -1.34 6.22 -4.83 8.59 -8.75 c 0.55 0.27 1.11 0.5 1.69 0.69 c -1.47 7.39 -8.81 11.89 -10.09 12.63 c -0.08 0.05 -0.12 0.16 -0.07 0.24 c 0.01 0.01 0.01 0.02 0.02 0.03 c 2.19 2.45 7.22 2.51 10.31 -1.05 C 45.88 438.96 47.34 434.9 48.15 429.99" stroke-linecap="round" />
</g>
		<g transform="matrix(0.89 0 0 0.89 -120.88 40.32)"  >
<path style="stroke: none; stroke-width: 1; stroke-dasharray: none; stroke-linecap: butt; stroke-dashoffset: 0; stroke-linejoin: miter; stroke-miterlimit: 4; fill: rgb(76,77,75); fill-rule: nonzero; opacity: 1;"  transform=" translate(-73.04, -466.41)" d="M 76.8 461.64 c 1.49 -4.11 3.37 -8.36 6.59 -8.36 c 1.59 0 2.99 1.51 4.01 1.67 c 0.22 0.05 0.44 0.03 0.64 -0.06 c 0.21 -0.08 0.38 -0.23 0.49 -0.42 c 0.36 -0.61 0.2 -1.73 0.2 -2.51 c 1.15 0.06 2.04 0.28 2.79 0 c 0.2 -0.07 0.37 -0.22 0.49 -0.4 c 0.11 -0.19 0.15 -0.41 0.11 -0.62 c -0.12 -0.8 -1.35 -1.86 -1.74 -2.57 c 0.5 -0.42 1.88 -0.67 2.17 -1.26 c 0.09 -0.2 0.12 -0.42 0.08 -0.63 c -0.05 -0.21 -0.16 -0.4 -0.33 -0.54 c -1.13 -0.79 -2.51 -1.14 -3.88 -1.01 h -0.05 l -0.62 -0.01 c -1.78 6.44 -7.69 11.19 -14.69 11.19 c -7 0 -12.9 -4.75 -14.69 -11.19 l -0.66 0 h -0.05 c -1.37 -0.14 -2.75 0.22 -3.88 1.01 c -0.17 0.14 -0.29 0.33 -0.33 0.54 c -0.05 0.21 -0.02 0.43 0.07 0.63 c 0.29 0.59 1.67 0.83 2.17 1.26 c -0.39 0.71 -1.62 1.77 -1.74 2.57 c -0.04 0.21 0.01 0.43 0.11 0.62 c 0.11 0.18 0.28 0.33 0.49 0.4 c 0.75 0.28 1.63 0.06 2.79 0 c 0 0.77 -0.16 1.9 0.2 2.51 c 0.12 0.19 0.29 0.33 0.49 0.42 c 0.2 0.09 0.43 0.11 0.64 0.06 c 1.02 -0.16 2.42 -1.67 4.01 -1.67 c 3.22 0 5.1 4.24 6.59 8.36 c -7.35 1.71 -16.5 6.63 -18.33 11.99 c -0.67 2.06 1.6 4.79 4.47 5.37 c 0.02 0 0.03 -0.01 0.05 -0.01 c 0.01 0 0.01 0 0.01 0.01 c 0.11 0 0.23 0 0.23 -0.11 c 1.48 -7.86 10.02 -13.78 14.5 -14.83 c 0.22 0.55 0.11 0.45 0.33 1.01 c -4.81 2.29 -9.51 7.09 -10.89 12.8 c -0.57 2.62 2.3 5.02 4.68 5.6 c 0.02 0 0.03 0 0.05 -0.01 c 0.01 0 0.01 0 0.01 0.01 c 0.11 0 0.23 0 0.23 -0.11 c 0.46 -7.15 3.63 -13.28 6.48 -16.16 c 0.1 0.55 0.11 1.1 0.22 1.53 c 0 0 -2.98 8.23 -2.98 14.17 c 0 2.74 4.13 4.66 4.68 5.03 c 0.01 -0.01 0.02 -0.01 0.04 -0.02 c 0.01 0 0.02 0.01 0.03 0.02 c 0.55 -0.36 4.68 -2.28 4.68 -5.03 c 0 -5.94 -2.98 -14.17 -2.98 -14.17 c 0.11 -0.43 0.12 -0.98 0.22 -1.53 c 2.85 2.88 6.02 9.01 6.47 16.16 c 0 0.11 0.11 0.11 0.23 0.11 c 0.01 0 0.01 0 0.01 -0.01 c 0.02 0 0.04 0.01 0.05 0.01 c 2.38 -0.57 5.24 -2.97 4.68 -5.6 c -1.37 -5.71 -6.08 -10.51 -10.89 -12.8 c 0.22 -0.56 0.12 -0.46 0.33 -1.01 c 4.48 1.06 13.02 6.98 14.5 14.83 c 0 0.11 0.11 0.11 0.23 0.11 c 0.01 0 0.01 0 0.01 -0.01 c 0.02 0 0.03 0.01 0.05 0.01 c 2.86 -0.57 5.14 -3.31 4.47 -5.37 C 93.3 468.27 84.15 463.36 76.8 461.64" stroke-linecap="round" />
</g>
		<g transform="matrix(0.89 0 0 0.89 -125.61 20.31)"  >
<polygon style="stroke: none; stroke-width: 1; stroke-dasharray: none; stroke-linecap: butt; stroke-dashoffset: 0; stroke-linejoin: miter; stroke-miterlimit: 4; fill: rgb(76,77,75); fill-rule: nonzero; opacity: 1;"  points="-0.01,0.01 -0.01,0.01 0,-0.01 " />
</g>
		<g transform="matrix(0.89 0 0 0.89 -127.61 8.26)"  >
<path style="stroke: none; stroke-width: 1; stroke-dasharray: none; stroke-linecap: butt; stroke-dashoffset: 0; stroke-linejoin: miter; stroke-miterlimit: 4; fill: rgb(76,77,75); fill-rule: nonzero; opacity: 1;"  transform=" translate(-65.47, -430.39)" d="M 65.47 430.39" stroke-linecap="round" />
</g>
		<g transform="matrix(0.89 0 0 0.89 -123.11 21.92)"  >
<path style="stroke: none; stroke-width: 1; stroke-dasharray: none; stroke-linecap: butt; stroke-dashoffset: 0; stroke-linejoin: miter; stroke-miterlimit: 4; fill: rgb(76,77,75); fill-rule: nonzero; opacity: 1;"  transform=" translate(-70.53, -445.73)" d="M 70.53 445.73" stroke-linecap="round" />
</g>
		<g transform="matrix(0.89 0 0 0.89 -120.89 14.33)"  >
<path style="stroke: none; stroke-width: 1; stroke-dasharray: none; stroke-linecap: butt; stroke-dashoffset: 0; stroke-linejoin: miter; stroke-miterlimit: 4; fill: rgb(0,139,255); fill-rule: evenodd; opacity: 1;"  transform=" translate(-73.02, -437.21)" d="M 86.48 419.61 H 59.56 c -0.3 0 -0.55 0.25 -0.55 0.55 v 20.63 c 0 7.74 6.27 14.01 14.01 14.01 c 7.74 0 14.01 -6.27 14.01 -14.01 v -20.63 C 87.03 419.86 86.78 419.61 86.48 419.61 z" stroke-linecap="round" />
</g>
		<g transform="matrix(0.89 0 0 0.89 -112.93 5.33)"  >
<circle style="stroke: none; stroke-width: 1; stroke-dasharray: none; stroke-linecap: butt; stroke-dashoffset: 0; stroke-linejoin: miter; stroke-miterlimit: 4; fill: rgb(255,255,255); fill-rule: nonzero; opacity: 1;"  cx="0" cy="0" r="2.44" />
</g>
		<g transform="matrix(0.89 0 0 0.89 -123.33 20.7)"  >
<path style="stroke: none; stroke-width: 1; stroke-dasharray: none; stroke-linecap: butt; stroke-dashoffset: 0; stroke-linejoin: miter; stroke-miterlimit: 4; fill: rgb(255,255,255); fill-rule: nonzero; opacity: 1;"  transform=" translate(-70.29, -444.36)" d="M 73.62 440.76 c -0.19 -0.41 -0.75 -0.48 -1.04 -0.13 l -5.53 6.66 c -0.22 0.26 -0.18 0.65 0.07 0.87 c 0 0 0.01 0.01 0.01 0.01 c 0.26 0.22 0.66 0.18 0.88 -0.08 l 5.52 -6.66 c 0.15 -0.18 0.19 -0.44 0.09 -0.66 C 73.63 440.77 73.63 440.77 73.62 440.76 z" stroke-linecap="round" />
</g>
		<g transform="matrix(0.89 0 0 0.89 -124.61 19.18)"  >
<path style="stroke: none; stroke-width: 1; stroke-dasharray: none; stroke-linecap: butt; stroke-dashoffset: 0; stroke-linejoin: miter; stroke-miterlimit: 4; fill: rgb(255,255,255); fill-rule: nonzero; opacity: 1;"  transform=" translate(-68.85, -442.65)" d="M 72.15 439.08 c -0.19 -0.41 -0.75 -0.48 -1.04 -0.13 l -5.48 6.61 c -0.22 0.26 -0.18 0.65 0.07 0.87 c 0 0 0.01 0.01 0.01 0.01 c 0.26 0.22 0.66 0.18 0.88 -0.08 l 5.48 -6.61 c 0.15 -0.18 0.19 -0.44 0.09 -0.66 C 72.16 439.09 72.16 439.08 72.15 439.08 z" stroke-linecap="round" />
</g>
		<g transform="matrix(0.89 0 0 0.89 -125.92 17.7)"  >
<path style="stroke: none; stroke-width: 1; stroke-dasharray: none; stroke-linecap: butt; stroke-dashoffset: 0; stroke-linejoin: miter; stroke-miterlimit: 4; fill: rgb(255,255,255); fill-rule: nonzero; opacity: 1;"  transform=" translate(-67.38, -440.99)" d="M 70.66 437.44 c -0.19 -0.41 -0.75 -0.48 -1.04 -0.13 l -5.44 6.56 c -0.22 0.26 -0.18 0.65 0.07 0.87 c 0 0 0.01 0.01 0.01 0.01 c 0.26 0.22 0.66 0.18 0.88 -0.08 l 5.44 -6.55 c 0.15 -0.18 0.19 -0.44 0.09 -0.66 C 70.67 437.45 70.66 437.44 70.66 437.44 z" stroke-linecap="round" />
</g>
		<g transform="matrix(0.89 0 0 0.89 -116.97 9.95)"  >
<path style="stroke: none; stroke-width: 1; stroke-dasharray: none; stroke-linecap: butt; stroke-dashoffset: 0; stroke-linejoin: miter; stroke-miterlimit: 4; fill: rgb(255,255,255); fill-rule: nonzero; opacity: 1;"  transform=" translate(-77.44, -432.28)" d="M 74.31 432.7 c 0.18 0.39 0.69 0.47 0.98 0.15 l 1.44 -1.61 l 0.48 0.41 l -1.54 1.86 c -0.17 0.2 -0.2 0.5 -0.06 0.72 c 0 0 0 0.01 0.01 0.01 c 0.21 0.36 0.71 0.4 0.98 0.08 l 1.54 -1.87 l 0.47 0.4 l -1.55 1.94 c -0.18 0.22 -0.18 0.54 -0.01 0.76 c 0 0 0 0 0 0 c 0.24 0.32 0.71 0.33 0.96 0.02 l 1.53 -1.91 l 0 0 l 0.02 -0.02 l 0.08 -0.1 c 0.02 -0.02 0.03 -0.05 0.04 -0.07 l 0.01 -0.01 l 0.9 -2.75 c 0.08 -0.24 0.01 -0.5 -0.18 -0.67 l -1.32 -1.14 c -0.19 -0.17 -0.47 -0.19 -0.69 -0.06 l -2.33 1.34 l 0 0 c -0.06 0.03 -0.11 0.07 -0.15 0.12 l -0.11 0.12 l 0 0 l 0 0 l -1.39 1.56 c -0.17 0.19 -0.21 0.46 -0.11 0.7 C 74.3 432.69 74.3 432.7 74.31 432.7 z" stroke-linecap="round" />
</g>
		<g transform="matrix(0.89 0 0 0.89 -120.86 12.99)"  >
<path style="stroke: none; stroke-width: 1; stroke-dasharray: none; stroke-linecap: butt; stroke-dashoffset: 0; stroke-linejoin: miter; stroke-miterlimit: 4; fill: rgb(255,255,255); fill-rule: nonzero; opacity: 1;"  transform=" translate(-73.06, -435.7)" d="M 83.02 442.52 c -0.02 -0.05 -0.06 -0.1 -0.11 -0.13 c -1.73 -1.34 -3.28 -2.82 -4.44 -3.95 c -1.45 -1.43 -2.82 -2.88 -4.09 -4.31 c -1.54 -1.73 -2.77 -3.17 -3.86 -4.53 c -1.03 -1.28 -2.37 -2.98 -3.57 -4.79 c -0.11 -0.17 -0.33 -0.21 -0.5 -0.1 c -0.16 0.11 -0.21 0.34 -0.1 0.5 c 1.22 1.83 2.57 3.55 3.61 4.84 c 1.1 1.38 2.34 2.82 3.89 4.56 c 1.28 1.44 2.67 2.9 4.13 4.34 c 1.16 1.14 2.72 2.61 4.45 3.96 c 0.05 0.15 -0.17 0.9 -1.04 1.88 c -0.87 0.98 -1.55 1.37 -1.68 1.3 c -0.13 -0.2 0.17 -0.9 1.04 -1.88 c 0.27 -0.3 1 -0.85 0.62 -1.18 l -0.22 -0.19 c -0.03 -0.03 -0.06 -0.06 -0.1 -0.09 c -1.32 -1.08 -2.53 -2.27 -3.74 -3.46 c -1.41 -1.4 -2.79 -2.84 -4.11 -4.33 c -1.33 -1.48 -2.63 -2.99 -3.88 -4.54 c -1.06 -1.32 -2.11 -2.67 -3.08 -4.07 c -0.27 -0.39 -0.81 -0.45 -1.16 -0.13 l -1.85 1.73 c -0.34 0.32 -0.32 0.87 0.04 1.18 c 1.31 1.09 2.56 2.24 3.78 3.42 c 1.44 1.37 2.83 2.8 4.19 4.25 c 1.37 1.44 2.68 2.94 3.96 4.47 c 1.06 1.29 2.92 3.78 3.89 5.2 c 0 0.01 0.01 0.01 0.01 0.02 c 0.01 0.01 0.02 0.02 0.02 0.03 c 0.04 0.05 0.06 0.08 0.08 0.08 c 0.03 0.03 0.07 0.05 0.1 0.07 c 0.62 0.36 1.74 -0.42 2.61 -1.41 C 82.77 444.3 83.41 443.11 83.02 442.52 z" stroke-linecap="round" />
</g>
</g>
</g>
</svg>