<svg xmlns="http://www.w3.org/2000/svg" width="48" height="48" viewBox="0 0 48 48" fill="none"><path d="M18 4H30C40 4 44 8 44 18V30C44 40 40 44 30 44H18C8 44 4 40 4 30V18C4 8 8 4 18 4Z" stroke="#fff" stroke-width="1.5" stroke-linecap="round" stroke-linejoin="round"/><path d="M17.1406 30.5399L30.2206 17.46" stroke="#fff" stroke-width="1.5" stroke-linecap="round" stroke-linejoin="round"/><path d="M17.96 20.7403C19.3186 20.7403 20.42 19.639 20.42 18.2803C20.42 16.9217 19.3186 15.8203 17.96 15.8203C16.6014 15.8203 15.5 16.9217 15.5 18.2803C15.5 19.639 16.6014 20.7403 17.96 20.7403Z" stroke="#fff" stroke-width="1.5" stroke-linecap="round" stroke-linejoin="round"/><path d="M31.0381 32.1797C32.3967 32.1797 33.4981 31.0783 33.4981 29.7197C33.4981 28.3611 32.3967 27.2598 31.0381 27.2598C29.6795 27.2598 28.5781 28.3611 28.5781 29.7197C28.5781 31.0783 29.6795 32.1797 31.0381 32.1797Z" stroke="#fff" stroke-width="1.5" stroke-linecap="round" stroke-linejoin="round"/></svg>