<svg width="48" height="48" viewBox="0 0 48 48" fill="none" xmlns="http://www.w3.org/2000/svg"><path d="M37 25.2998V32.6998C37 38.9398 31.18 43.9998 24 43.9998C16.82 43.9998 11 38.9398 11 32.6998V25.2998C11 31.5398 16.82 35.9998 24 35.9998C31.18 35.9998 37 31.5398 37 25.2998Z" stroke="#003170" stroke-width="1.5" stroke-linecap="round" stroke-linejoin="round"/><path d="M37 15.3C37 17.12 36.5 18.8 35.62 20.24C33.48 23.76 29.08 26 24 26C18.92 26 14.52 23.76 12.38 20.24C11.5 18.8 11 17.12 11 15.3C11 12.18 12.46 9.36 14.8 7.32C17.16 5.26 20.4 4 24 4C27.6 4 30.84 5.26 33.2 7.3C35.54 9.36 37 12.18 37 15.3Z" stroke="#003170" stroke-width="1.5" stroke-linecap="round" stroke-linejoin="round"/><path d="M37 15.3V25.3C37 31.54 31.18 36 24 36C16.82 36 11 31.54 11 25.3V15.3C11 9.06 16.82 4 24 4C27.6 4 30.84 5.26 33.2 7.3C35.54 9.36 37 12.18 37 15.3Z" stroke="#003170" stroke-width="1.5" stroke-linecap="round" stroke-linejoin="round"/></svg>