<svg xmlns="http://www.w3.org/2000/svg" width="48" height="49" viewBox="0 0 48 49" fill="none"><path d="M25.3209 5.60268L25.2609 5.74268L19.4609 19.2027H13.7609C12.4009 19.2027 11.1009 19.4827 9.9209 19.9827L13.4209 11.6227L13.5009 11.4227L13.6409 11.1027C13.6809 10.9827 13.7209 10.8627 13.7809 10.7627C16.4009 4.70268 19.3609 3.32268 25.3209 5.60268Z" stroke="#fff" stroke-width="1.5" stroke-linecap="round" stroke-linejoin="round"/><path d="M36.1 19.6035C35.2 19.3235 34.24 19.2035 33.28 19.2035H19.46L25.26 5.74352L25.32 5.60352C25.62 5.70352 25.9 5.84352 26.2 5.96352L30.62 7.82352C33.08 8.84352 34.8 9.90352 35.84 11.1835C36.04 11.4235 36.2 11.6435 36.34 11.9035C36.52 12.1835 36.66 12.4635 36.74 12.7635C36.82 12.9435 36.88 13.1235 36.92 13.2835C37.46 14.9635 37.14 17.0235 36.1 19.6035Z" stroke="#fff" stroke-width="1.5" stroke-linecap="round" stroke-linejoin="round"/><path d="M43.0444 28.9631V32.8631C43.0444 33.2631 43.0244 33.6631 43.0044 34.0631C42.6244 41.0431 38.7244 44.5631 31.3244 44.5631H15.7244C15.2444 44.5631 14.7644 44.5231 14.3044 44.4631C7.94441 44.0431 4.54441 40.6431 4.12441 34.2831C4.06441 33.8231 4.02441 33.3431 4.02441 32.8631V28.9631C4.02441 24.9431 6.46441 21.4831 9.94441 19.9831C11.1444 19.4831 12.4244 19.2031 13.7844 19.2031H33.3044C34.2844 19.2031 35.2444 19.3431 36.1244 19.6031C40.1044 20.8231 43.0444 24.5431 43.0444 28.9631Z" stroke="#fff" stroke-width="1.5" stroke-linecap="round" stroke-linejoin="round"/><path d="M13.42 11.623L9.92 19.983C6.44 21.483 4 24.943 4 28.963V23.103C4 17.423 8.04 12.683 13.42 11.623Z" stroke="#fff" stroke-width="1.5" stroke-linecap="round" stroke-linejoin="round"/><path d="M43.0382 23.1017V28.9617C43.0382 24.5617 40.1182 20.8217 36.1182 19.6217C37.1582 17.0217 37.4582 14.9817 36.9582 13.2817C36.9182 13.1017 36.8582 12.9217 36.7782 12.7617C40.4982 14.6817 43.0382 18.6217 43.0382 23.1017Z" stroke="#fff" stroke-width="1.5" stroke-linecap="round" stroke-linejoin="round"/></svg>