<svg width="48" height="48" viewBox="0 0 48 48" fill="none" xmlns="http://www.w3.org/2000/svg"><path d="M25.3219 5.03627L25.2619 5.17627L19.4619 18.6363H13.7619C12.4019 18.6363 11.1019 18.9163 9.92188 19.4163L13.4219 11.0563L13.5019 10.8563L13.6419 10.5363C13.6819 10.4163 13.7219 10.2963 13.7819 10.1963C16.4019 4.13627 19.3619 2.75627 25.3219 5.03627Z" stroke="#003170" stroke-width="1.5" stroke-linecap="round" stroke-linejoin="round"/><path d="M36.099 19.0361C35.199 18.7561 34.239 18.6361 33.279 18.6361H19.459L25.259 5.17613L25.319 5.03613C25.619 5.13613 25.899 5.27613 26.199 5.39613L30.619 7.25613C33.079 8.27613 34.799 9.33613 35.839 10.6161C36.039 10.8561 36.199 11.0761 36.339 11.3361C36.519 11.6161 36.659 11.8961 36.739 12.1961C36.819 12.3761 36.879 12.5561 36.919 12.7161C37.459 14.3961 37.139 16.4561 36.099 19.0361Z" stroke="#003170" stroke-width="1.5" stroke-linecap="round" stroke-linejoin="round"/><path d="M43.0434 28.3967V32.2967C43.0434 32.6967 43.0234 33.0967 43.0034 33.4967C42.6234 40.4767 38.7234 43.9967 31.3234 43.9967H15.7234C15.2434 43.9967 14.7634 43.9567 14.3034 43.8967C7.94344 43.4767 4.54344 40.0767 4.12344 33.7167C4.06344 33.2567 4.02344 32.7767 4.02344 32.2967V28.3967C4.02344 24.3767 6.46344 20.9167 9.94344 19.4167C11.1434 18.9167 12.4234 18.6367 13.7834 18.6367H33.3034C34.2834 18.6367 35.2434 18.7767 36.1234 19.0367C40.1034 20.2567 43.0434 23.9767 43.0434 28.3967Z" stroke="#003170" stroke-width="1.5" stroke-linecap="round" stroke-linejoin="round"/><path d="M13.42 11.0566L9.92 19.4166C6.44 20.9166 4 24.3766 4 28.3966V22.5366C4 16.8566 8.04 12.1166 13.42 11.0566Z" stroke="#003170" stroke-width="1.5" stroke-linecap="round" stroke-linejoin="round"/><path d="M43.0372 22.5353V28.3953C43.0372 23.9953 40.1172 20.2553 36.1172 19.0553C37.1572 16.4553 37.4572 14.4153 36.9572 12.7153C36.9172 12.5353 36.8572 12.3553 36.7772 12.1953C40.4972 14.1153 43.0372 18.0553 43.0372 22.5353Z" stroke="#003170" stroke-width="1.5" stroke-linecap="round" stroke-linejoin="round"/></svg>