<?xml version="1.0" encoding="utf-8"?>
<!-- Generator: Adobe Illustrator 17.1.0, SVG Export Plug-In . SVG Version: 6.00 Build 0)  -->
<!DOCTYPE svg PUBLIC "-//W3C//DTD SVG 1.1//EN" "http://www.w3.org/Graphics/SVG/1.1/DTD/svg11.dtd">
<svg version="1.1" id="Layer_1" xmlns="http://www.w3.org/2000/svg" xmlns:xlink="http://www.w3.org/1999/xlink" x="0px" y="0px"
	 viewBox="0 0 531.1 484.3" enable-background="new 0 0 531.1 484.3" xml:space="preserve">
<g>
	<path fill="#FFFFFF" d="M330.5,19c-18.4-5.7-37.9-9.9-57.2-10.5c-0.8,0-0.8-1,0-1c19.4,0.6,39.2,3.6,57.7,9.3
		c0.8,0.2,0.4,1.4-0.3,1.2L330.5,19z"/>
</g>
<g>
	<path fill="#FFFFFF" d="M332,26.8c-10.9-3.5-22.3-7.6-33.8-8.2c-0.8,0-0.8-0.9,0-0.8c11.6,0.7,23.3,3.8,34.3,7.3
		c0.8,0.2,0.4,1.5-0.3,1.2L332,26.8z"/>
</g>
<g>
	<path fill="#FFFFFF" d="M333.3,49.7c-7.2-2.4-14.5-4.9-22-6.1c-0.8-0.1-0.6-1.1,0.1-1c7.5,1.2,15,3.2,22.2,5.6
		C334.4,48.4,334.1,49.9,333.3,49.7L333.3,49.7z"/>
</g>
<g>
	<path fill="#FFFFFF" d="M326.7,68.6c-10.4-4.2-21.6-7-32.7-8.7c-0.8-0.1-0.5-0.9,0.3-0.8c11.1,1.7,22.6,3.9,33.1,8.2
		C328,67.6,327.4,68.9,326.7,68.6L326.7,68.6z"/>
</g>
<g>
	<path fill="#FFFFFF" d="M304,51.4c-3.5-0.9-7-1.8-10.6-2.2c-0.8-0.1-0.8-1,0-0.9c3.7,0.4,7.3,0.9,10.9,1.8
		C305.2,50.3,304.8,51.6,304,51.4L304,51.4z"/>
</g>
<g>
	<path fill="#FFFFFF" d="M298.4,29.2c-2.1-0.4-4.2-0.9-6.4-0.9c-0.8,0-0.8-1,0-0.9c2.3,0.1,4.7,0.2,6.7,0.5
		C299.4,27.9,299.2,29.3,298.4,29.2L298.4,29.2z"/>
</g>
<g>
	<path fill="#FFFFFF" d="M199,27.3c10.9-3.5,22.3-7.6,33.8-8.2c0.8,0,0.8-0.9,0-0.8c-11.6,0.7-23.3,3.8-34.3,7.3
		c-0.8,0.2-0.4,1.5,0.3,1.2L199,27.3z"/>
</g>
<g>
	<path fill="#FFFFFF" d="M197.6,50.2c7.2-2.4,14.5-4.9,22-6.1c0.8-0.1,0.6-1.1-0.1-1c-7.5,1.2-15,3.2-22.2,5.6
		C196.6,48.9,196.9,50.4,197.6,50.2L197.6,50.2z"/>
</g>
<g>
	<path fill="#FFFFFF" d="M204.3,69.1c10.4-4.2,21.6-7,32.7-8.7c0.8-0.1,0.5-0.9-0.3-0.8c-11.1,1.7-22.6,3.9-33.1,8.2
		C202.9,68,203.5,69.4,204.3,69.1L204.3,69.1z"/>
</g>
<g>
	<path fill="#FFFFFF" d="M226.9,51.9c3.5-0.9,7-1.8,10.6-2.2c0.8-0.1,0.8-1,0-0.9c-3.7,0.4-7.3,0.9-10.9,1.8
		C225.7,50.8,226.1,52.1,226.9,51.9L226.9,51.9z"/>
</g>
<g>
	<path fill="#FFFFFF" d="M232.6,29.7c2.1-0.4,4.2-0.9,6.4-0.9c0.8,0,0.8-1,0-0.9c-2.3,0.1-4.7,0.2-6.7,0.5
		C231.5,28.4,231.8,29.8,232.6,29.7L232.6,29.7z"/>
</g>
<g>
	<path fill="#FFFFFF" d="M70,114.6c-7.6,14.7-13.8,30.5-17.9,46.6c0.7-0.4,1.5-0.7,2.5-0.8c3.8-15.6,9-31.1,16.3-45.3
		C71.3,114.3,70.4,113.9,70,114.6z"/>
</g>
<g>
	<path fill="#FFFFFF" d="M59.2,127.9c-4.9,11.8-8.8,24.2-11.6,36.7c0.6-0.4,1.3-0.7,2.1-0.8c2.4-12.2,5.8-24.2,10.4-35.5
		C60.4,127.5,59.5,127.2,59.2,127.9z"/>
</g>
<g>
	<path fill="#FFFFFF" d="M460.9,114.1c7.6,14.7,13.8,30.5,17.9,46.6c-0.7-0.4-1.5-0.7-2.5-0.8c-3.8-15.6-9-31.1-16.3-45.3
		C459.7,113.8,460.6,113.4,460.9,114.1z"/>
</g>
<g>
	<path fill="#FFFFFF" d="M471.7,127.4c4.9,11.8,8.8,24.2,11.6,36.7c-0.6-0.4-1.3-0.7-2.1-0.8c-2.4-12.2-5.8-24.2-10.4-35.5
		C470.5,127.1,471.4,126.7,471.7,127.4z"/>
</g>
<g>
	<path fill="#FFFFFF" d="M200.7,19c18.4-5.7,37.9-9.9,57.2-10.5c0.8,0,0.8-1,0-1c-19.4,0.6-39.2,3.6-57.7,9.3
		c-0.8,0.2-0.4,1.4,0.3,1.2L200.7,19z"/>
</g>
<path fill="#FFFFFF" stroke="#3B4167" stroke-width="2" stroke-miterlimit="10" d="M215.7,455.4c0,0-7.6,4.9-13.3,11
	s-9,10.3-14.5,13.9c-5.5,3.7-7.5,2.3-7.5,2.3S188.9,468.1,215.7,455.4z"/>
<polygon fill="#FFFFFF" stroke="#3B4167" stroke-width="1.5" stroke-miterlimit="10" points="386.7,360.9 394.7,351.5 328.9,289.1 
	330.9,300.5 "/>
<path fill="#FFFFFF" stroke="#3B4167" stroke-width="1.5" stroke-miterlimit="10" d="M334.1,319.3l30.4,41c5,2.4,9.8,5,14.4,7.8
	l4.1-3.9l-51.4-59.9l2.7,15.1L334.1,319.3z"/>
<path fill="#FFFFFF" stroke="#3B4167" stroke-width="1.5" stroke-miterlimit="10" d="M394.1,288.3c0.9-2.3,1.6-4.1,1.6-4.8
	c0,0,1.2,1.9,3.7,4.3c2.2,2.2,5.5,4.9,9.8,7c0.4,0.2,0.9,0.4,1.3,0.6c0.1,0,0.1,0.1,0.2,0.1l2-2.5c-0.1,0-0.2-0.1-0.2-0.1
	c-1.2-1.3-4.3-5-6.7-10.2l-83.5-30.4l0.8,4.7L394.1,288.3z"/>
<path fill="#FFFFFF" stroke="#3B4167" stroke-width="1.5" stroke-miterlimit="10" d="M388.2,301.1c1.2-2.5,2.7-5.6,4-8.5l-68.7-33.3
	l1,5.7L388.2,301.1z"/>
<path fill="#FFFFFF" stroke="#3B4167" stroke-width="1.5" stroke-miterlimit="10" d="M382,313.9c1.7-3.5,3.4-6.8,4.4-9c0,0,0,0,0,0
	L325,267.4l1.3,7.1L382,313.9z"/>
<path fill="#FFFFFF" stroke="#3B4167" stroke-width="1.5" stroke-miterlimit="10" d="M376.5,327.7c0.2-0.7,0.4-1.4,0.6-2.2
	c0.6-2,1.7-4.7,3-7.6l-53.3-40l1.5,8.4L376.5,327.7z"/>
<path fill="#FFFFFF" stroke="#3B4167" stroke-width="1.5" stroke-miterlimit="10" d="M403,235.3c0.4-4,0.7-7.4,0.9-9.6l-67.6,3
	l-4.6,4.4L403,235.3z"/>
<path fill="#FFFFFF" stroke="#3B4167" stroke-width="1.5" stroke-miterlimit="10" d="M401.8,248.4c0.3-3.2,0.6-6.5,0.8-9.5
	l-73.1-3.7l-3.9,3.8L401.8,248.4z"/>
<path fill="#FFFFFF" stroke="#3B4167" stroke-width="1.5" stroke-miterlimit="10" d="M320.8,244l80,18c0.2-3,0.5-6.3,0.7-9.8
	L324,240.6l-3.2,3.1L320.8,244z"/>
<path fill="#FFFFFF" stroke="#3B4167" stroke-width="1.5" stroke-miterlimit="10" d="M401.1,276c-0.4-1-0.6-2.2-0.8-3.5
	c-0.1-1.1,0-3.3,0.1-6.3l-79.4-20.3l0.7,4.1L401.1,276z"/>
<polygon fill="#FFFFFF" stroke="#3B4167" stroke-width="1.5" stroke-miterlimit="10" points="390.7,169.3 388.8,165.1 387,160.4 
	345.4,184.7 356.7,186.2 "/>
<polygon fill="#FFFFFF" stroke="#3B4167" stroke-width="1.5" stroke-miterlimit="10" points="395.7,181.1 392.1,172.6 362.4,187 
	376.4,189 "/>
<polygon fill="#FFFFFF" stroke="#3B4167" stroke-width="1.5" stroke-miterlimit="10" points="401.3,194.1 397.6,185.4 371,195.4 
	359.4,206.5 "/>
<path fill="#FFFFFF" stroke="#3B4167" stroke-width="1.5" stroke-miterlimit="10" d="M406.9,207.5c-0.5-1.1-0.9-2.2-1.2-3.2
	l-2.5-5.7l-47.8,11.9l-7.6,7.3L406.9,207.5z"/>
<path fill="#FFFFFF" stroke="#3B4167" stroke-width="1.5" stroke-miterlimit="10" d="M410.2,217c1.2,0.6,4.1,2.3,7.1,4.9l2.1-0.1
	c-2.2-1.7-4.5-3.8-6.5-6.5c-1.4-0.9-2.5-2.1-3.4-3.2l-64.3,8.1l-6.1,5.8l70.1-3.7c0-2.3,0.1-4.1,0.2-5
	C409.5,217,409.9,216.9,410.2,217z"/>
<path fill="#FFFFFF" stroke="#3B4167" stroke-width="1.5" stroke-miterlimit="10" d="M317.6,81.4c-4.3-1.6-7.8-4.3-10.3-6.7
	L287,151.1l3.6,7.4L317.6,81.4z"/>
<path fill="#FFFFFF" stroke="#3B4167" stroke-width="1.5" stroke-miterlimit="10" d="M363.5,121.8c-1.3-1-2.2-2-2.7-2.4
	c-0.2-0.2-0.1-0.5,0.1-0.6c1-0.4,3.7-1.5,7.2-2l2.4-2.6c-2.5,0.9-5.6,1.5-8.9,1.4c-2.2-0.1-4.3-0.6-6.2-1.3L304.7,179l5.7,0.8
	L363.5,121.8z"/>
<path fill="#FFFFFF" stroke="#3B4167" stroke-width="1.5" stroke-miterlimit="10" d="M302.9,178.8l49-66c-2.1-1.1-3.7-2.2-4.4-2.7
	c-0.2-0.2-0.2-0.5,0-0.6c1.2-0.8,4.9-2.9,9.6-3.7l2.7-3.6c-2.6,1.5-6.5,3-10.8,3.2c-1.8,0.1-3.5-0.1-5.1-0.4L299.2,176l1.2,2.5
	L302.9,178.8z"/>
<path fill="#FFFFFF" stroke="#3B4167" stroke-width="1.5" stroke-miterlimit="10" d="M340.3,103.9c-2.9-1-5-2.3-5.9-2.8
	c-0.2-0.1-0.2-0.5,0-0.6c1.3-1,5.5-3.9,10.9-4.9l3.4-5.6c0,0,0,0.1-0.1,0.1c-1.6,1.1-7.4,4.7-14.3,4.7c-0.6,0-1.2,0-1.7-0.1
	L295.8,169l2.6,5.4L340.3,103.9z"/>
<path fill="#FFFFFF" stroke="#3B4167" stroke-width="1.5" stroke-miterlimit="10" d="M328.5,93.8c-4.2-1.2-7.5-3.2-8.6-4
	c-0.2-0.2-0.2-0.5,0-0.6c1.5-1,6.6-4.2,12.8-4.6l0.9-2.1c-3.1,0.6-8,1-13.1-0.2l-28.7,78.6l3.2,6.5L328.5,93.8z"/>
<path fill="#FFFFFF" stroke="#3B4167" stroke-width="1.5" stroke-miterlimit="10" d="M383.9,139.7c-0.1,0-0.3-0.1-0.4-0.1
	c-3.4-1-6.3-3-8.4-4.8l-52.8,46.6l7,1L383.9,139.7z"/>
<path fill="#FFFFFF" stroke="#3B4167" stroke-width="1.5" stroke-miterlimit="10" d="M372.1,132c-0.4-0.5-0.7-0.8-0.9-1.1
	c-0.2-0.2-0.1-0.5,0.2-0.6c0.7-0.2,1.9-0.6,3.6-0.9l2.3-2.1c-1.1,0-2.2-0.2-3.3-0.4c-2.9-0.6-5.4-1.8-7.5-3.1l-54,56.3l6.3,0.9
	L372.1,132z"/>
<path fill="#FFFFFF" stroke="#3B4167" stroke-width="1.5" stroke-miterlimit="10" d="M385.3,156.2l-1.5-3.7c0,0,1.5,0.8,4.5,1.8
	l2.7-1.7c-3.3-1.9-5.9-4.5-7.5-6.6l-51.1,36.8l8.6,1.2L385.3,156.2z"/>
<path fill="#FFFFFF" stroke="#3B4167" stroke-width="1.5" stroke-miterlimit="10" d="M292.9,68.3l-0.8-0.4l-11.2,70.7l4.6,9.4
	l18.4-77.2c-0.3-0.3-0.5-0.6-0.6-0.8c-0.2-0.3-0.1-0.6,0.2-0.7c-3.7-1.1-7.4-2-11.2-2.7l-0.1,0.3L292.9,68.3z"/>
<path fill="#FFFFFF" stroke="#3B4167" stroke-width="2" stroke-miterlimit="10" d="M365.9,436.7c6.1-3.8,11.8-7.9,17.2-12.2
	c14,11.7,23.8,24,26.9,35.9c-7.4,4.9-17,8.8-29.3,13.1c-4.1-10.6-12.3-21.6-23.3-31.9C360.4,440,363.2,438.4,365.9,436.7z"/>
<path fill="#FFFFFF" stroke="#3B4167" stroke-width="2" stroke-miterlimit="10" d="M390.4,418c-3.3-5.4-7.6-10.6-12.9-15.3v0
	C382.8,407.4,387.2,412.6,390.4,418c6-5.6,11.3-11.7,16-18.1c12.7,13.1,22.9,27.4,30.7,42c-8.6,7.3-16.4,13.4-27.1,18.5
	c-3-11.8-13-24-27.1-35.8C385.5,422.5,388,420.3,390.4,418z"/>
<path fill="#FFFFFF" stroke="#3B4167" stroke-width="2" stroke-miterlimit="10" d="M339.2,450.1c6.3-2.5,12.4-5.4,18.2-8.5
	c11.1,10.3,19.2,21.3,23.3,31.9c-6.7,4.8-18.7,6.3-30.3,8.6c-11.6-16.6-33-27.6-56-35.7v-13.6C310.7,436.1,325.8,442,339.2,450.1z"
	/>
<path fill="#FFFFFF" stroke="#3B4167" stroke-width="2" stroke-miterlimit="10" d="M481.9,167.3c0,0,0.8-5.5,2.2-9.1
	s6.8-3.4,8.1-3.5s0.1-2.1,3.1-6.3s9.8-5.4,14-1.9c4.2,3.5,3.8,5.6,3.8,5.6s0.2,2.7-0.8,3.8c-0.9,1.2,2.8-0.8,5.7,3.1
	c2.8,3.8,2,8.8,0.4,10.8c-1.6,2-4.3,3.8-4.3,3.8s3.4,1.6,4.2,4.7c0.8,3.1-0.6,6.2-2.3,8.4s-9,6.8-9,6.8l-12.9,2.8l-10.6-9.9
	L481.9,167.3z"/>
<path fill="#FFFFFF" stroke="#3B4167" stroke-width="2" stroke-miterlimit="10" d="M491.2,194.5c0,0,5.1-3.3,7.1-3.6s3.5,0,3.5,0
	s5.8-4,9-3.3c3.2,0.7,8.8,2.9,10.5,8.5c1.8,5.5-0.2,9.4-1.4,11.4c-1.2,2-1.2,2-1.2,2s4.1,2.7,3.3,9.1c-0.8,6.4-24.3,13.7-24.3,13.7
	l-10.8-17L491.2,194.5z"/>
<path fill="#FFFFFF" stroke="#3B4167" stroke-width="2" stroke-miterlimit="10" d="M493.3,230c0,0,6.5-5.3,10.7-5.7s4.2,0.7,4.2,0.7
	s3.3-4.9,6-6.6s7.1-3.2,12,1.2s2.5,8,1.3,9.6s-2.1,2-2.1,2s1.9,1.3,2.8,2.7c1,1.4,0.5,3.5,0,4.6c-0.5,1.2-3.3,4.8-4.3,5.6
	c-1,0.8-1.7,1.2-1.7,1.2s3.4,1.3,4,3.4c0.7,2.5,1.3,5.5-4.9,9.2c-1.7,1-7,3.3-7,3.3s1.4,0.4,1.3,2.3c-0.1,1.8-8.3,10.9-8.3,10.9
	l-16.8,5.4l-9-6.1l0.7-17.8l9.6-22.5L493.3,230z"/>
<path fill="#FFFFFF" stroke="#3B4167" stroke-width="2" stroke-miterlimit="10" d="M484.1,280.3c0,0,3.2-3.1,5.8-2.7
	s3.1,1.4,3.1,1.4s-0.4-2.8,0-5.5s4.3-6.3,6.7-6.6s5.4-0.3,6.9,1.4s1.6,1.3,1.6,1.3s4.7-6.8,10.3-6.8s7.6,3.9,8.4,6s-0.8,7.2-3.5,9.6
	s-5.4,5.4-5.4,5.4s2.1,0.6,2.9,3.5s0,5.4-2.5,7.6s-4.6,4.4-8.2,5.8s-5.1,1-5.1,1s1.1,2.2,0.8,4.4s-0.6,3.8-2.6,5.4S496,316,496,316
	l-31.6,5.7L484.1,280.3z"/>
<path fill="#FFFFFF" stroke="#3B4167" stroke-width="2" stroke-miterlimit="10" d="M479.6,353.7c0,0,5,2.3,7.3,5.1s1,6.1,0,7.6
	s-5.1,3.4-5.1,3.4s0.4,4.8-0.4,7.2s-4.1,5.4-6.4,6.4s-10.9,0.4-10.9,0.4s-13,1-13.3,0.9s-11.9,1.9-11.9,1.9l-8.1-1.2l-6.9-9.3
	l8.4-14.4c0,0,13.3-8.1,13.8-8.1s21.9-4.1,21.9-4.1L479.6,353.7z"/>
<path fill="#FFFFFF" stroke="#3B4167" stroke-width="2" stroke-miterlimit="10" d="M411.2,379c0,0,3,0.7,4.2,2.8
	c1.2,2.2,1.2,2.2,1.2,2.2s2.8-5,6.6-5.2c3.8-0.3,6-0.7,7.8,0c1.8,0.7,3.8,3.3,3.8,3.3s3-4.6,8.9-6.3c5.9-1.7,10.7,1.3,12.3,2.4
	c1.6,1.2,1.8,4.4,1.8,4.4s7.1-1.8,11,2.5c0,0,2,3,1.3,6.2c-0.7,3.2-1.9,4.7-4.5,5.4s-3.8,0-3.8,0s1.5,6.4-2.4,8.6s-6.4,2.1-9.5,1.6
	c-3.1-0.5-5.6-1.6-5.6-1.6s-0.3,2.7-2.8,4.6s-7.6,3.6-7.6,3.6l-20.8,2.6c0,0-16.8-16-16.5-16.4c0.3-0.4,5.9-11.1,6.2-11.3
	S411.2,379,411.2,379z"/>
<path fill="#FFFFFF" stroke="#3B4167" stroke-width="2" stroke-miterlimit="10" d="M475.9,318.5c0,0,2.1-2.9,5.8-4.3
	c3.7-1.3,4.6-0.7,5.4-0.4c1,0.3,2.4,1.3,2.4,1.3s3.6-3,6.3-3.1c2.8-0.1,6.2,0.2,8.9,2.9s3.6,5.7,2.7,9.5s-2.9,6.1-5.7,7.4
	c-2.8,1.3-6,2.2-6,2.2s1.3,5.3-0.8,7.9s-2.7,4.2-6.3,4.6c-3.7,0.4-4.4,0-4.4,0s0.5,3.6-1.2,6.3c-1.7,2.7-5,5.6-10.3,5.2
	S464,355,464,355s1.1,3.8-2.4,6.8s-7.1,2.7-11.6,2.2c-0.9-0.1,1.8,3.5-2.9,6c-2.6,1.4-9.5,1.8-12.4-0.4c-2.9-2.2,5.2-14.8,5.2-14.8
	l13.4-21.6l17.3-14.3L475.9,318.5z"/>
<path fill="#65DD17" d="M337.6,65.3c-1.2,0.2-2.5,0.3-3.9,0.4c0.7-0.1,1.5-0.2,2.3-0.3C336.5,65.3,337,65.3,337.6,65.3z"/>
<path fill="#65DD17" d="M431.4,155.9c-0.2-0.3-0.4-0.7-0.5-1.1c0.3,0.4,0.5,0.7,0.7,1C431.6,155.9,431.5,155.9,431.4,155.9z"/>
<path fill="#65DD17" d="M398.9,287.8c0.9-2.9,2-5,2.5-6c0.2-0.3,0.6-0.4,0.9-0.1c1.5,1.6,5.8,6.7,8,13.7c-0.6-0.3-1.3-0.6-1.9-0.9
	C404.2,292.4,401.1,289.9,398.9,287.8z"/>
<path fill="#D7569C" d="M470.3,238c-0.2,0.2-0.3,0.3-0.5,0.5c0.1-0.2,0.2-0.4,0.3-0.5C470.2,238,470.2,238,470.3,238z"/>
<path fill="#384465" d="M486.4,218.8c-0.8-4.4-2.5-8.7-4.3-12.8c-3.6-8.3-8.2-16.5-9-25.7c-0.3-2.8-0.2-5.7-0.5-8.6
	c-1.1-10.4-8.1-19.9-17.6-24.4c-1.4-4.1-3.1-8-6-11.5c-0.1-0.1-0.1-0.1-0.2-0.2c0-0.2,0-0.3,0-0.5c0.6-0.8,0.9-1.7,0.8-2.7
	c-0.2-3.7-1.2-8.4-4.1-10.9c-2.1-1.8-5-2-7.1,0c-0.1,0.1-0.2,0.3-0.3,0.4c-0.1-0.1-0.1-0.2-0.2-0.4c-1.8-3.2-3.7-6.1-5.9-8.8
	c0.8-4.4,1.4-8.4-2.3-11.9c-2.7-2.4-5.8-2.6-8.7-1.4c-1.6-2.6-3.1-5.3-4.6-8c-3.5-6.4-9.2-15.2-15.6-19.3c-2-1.3,0.5-5-1.5-4.2
	c0.1-0.2-1.8-4.4-5.1-0.9c-3.5,3.8-2-5.1-5.8-3.7c-1.2-1.2-2.5-2.2-3.9-3.3c-4.7-3.6-9.1-7.4-13.8-10.9
	c-8.7-6.3-18.2-11.5-29.2-11.8c-5.5-0.2-7,8.9-1.3,9.8c1.3,0.2,1.8,1.8,2.5,2.9c1.1,1.7,2.6,3,3.9,4.6c0.1,0.1,0.1,0.2,0.2,0.3
	c-3.2,1-4.7,5.6-2,8.4c0.1,0.1,0.2,0.2,0.3,0.3c-0.2,0.5-0.4,0.9-0.5,1.3c-1,3.5,0.2,7.5,2.4,10.2c-0.5-0.1-0.9-0.1-1.3-0.1
	c-3.9-0.2-7.4-1.1-11,0.9c-2.4,1.4-3.1,4.5-1.8,6.8c1.7,3.1,3.6,5.5,6.8,7.3c3.7,2,6.5,5,9.6,7.8c-0.5,2.1,0.5,4.7,2.4,5.7
	c1.4,0.8,2.7,1.3,4.1,1.7c0.9,1.4,1.9,2.7,3.2,3.8c2.3,1.9,5.1,2.6,7.9,2.8c0.2,1.2,1,2.3,2.4,3c3,1.4,4,4.7,6.7,6.4
	c1.2,0.8,2.5,1.3,3.8,1.6c-1.3,2.2-1.1,5.3,1.7,6.7c3.4,1.7,5.5,4.9,2.2,8.3c-1.1,1.1,4.8,9.5,3.3,9.3c-12.8-2.5-4.1,5.7-0.7,8.5
	c3.5,2.7,6.5,2.2,10.6,3.8c6.4,2.5,12.6,6.8,16.8,12.3c4,5.3-0.8,13.5,2.2,19.8c0.6,1.3,1.4,2.4,1.9,3.8c0.6,1.9,0.4,3.9,0.1,5.8
	c-0.4,3.9-0.6,7.8-0.7,11.7c0,1.4,0.3,2.9-0.3,4.1c-0.7,1.2-2.6,2.3-4,2.1c-0.9-0.1,1.7,2,0.9,1.6c-1.8-0.9-1.1,0.5-2.7-0.7
	c-1.1-0.8-3.5-1.7-6.9-1.4c-1,0.1-2.2,0.2-1.9,1.2c0.5,1.8,1.9,3.5,3.4,4.6c1.5,1.1,3.2,1.9,4.7,3c1.9,1.3,3.5,2.9,5,4.5
	c3.7,3.8,6.5,8.3,5.9,13.9c-0.3,3-2.9,5.3-4.6,7.8c-3,4.6-3,10.4-3,15.7c0.1,3.5,1.9,13.4-3.8,12.7c-1.2-0.1-2.2-0.9-3.3-1.1
	c-1.4-0.3-2.8-0.1-4.3-0.5c-1.8-0.5,0.5,0.4-1.4,0.3c-0.9,0,0.8,1.9,0,1.5c-6.7-2.9-7.6,1.2-7.6,1.2s1.6,2.2,2.6,3
	c7.6,7.1,18.5,12.6,18.1,24.7c-0.1,4.4-2.2,8.4-3.3,12.7c-2.6,10.2,0.6,21-0.5,31.5c-0.6,5.5-2.4,11.1-0.8,16.4
	c1.1,3.9,4.1,7.1,7.8,8.7c1.1,0.5,4.5,0.7,5.5,0.1c0.8-0.4,3.1-1.4,3.6-2.2c6.4-10.6,10.2-20.2,17.9-29.9c1.4-1.8,2.8-3.6,4.2-5.3
	c2.4-2.9,5.1-5.8,8.4-7.7c1.5-0.9,3.6-1.9,5.4-1.9c1.9,0,2.9-6.2,4.6-5.5c7.2,2.6,8.3-2.9,7.1-8.2c-1.1-4.6-4.6-12-3.6-16.9
	c1.1-5.5,1.4-11.5,3.1-16.8c0.8-2.6,2.1-5,2.6-7.7c1-5.1-1.1-10.3-3.3-15c-0.6-1.3-1.2-2.6-1.2-4.1c0-1.7,1-3.3,1.9-4.7
	c1.1-1.8,2.6-5.5,4.4-6.6c3.3-2,4.4-2.3,6.7-0.6c9.2,7,12.8-1.4,12.6-2.5c-0.6-5.1-5.3-9.5-8.4-13.5c-0.9-1.2-1.4-2.5-1.6-3.8
	C486.4,225,486.9,221.8,486.4,218.8z M350.2,85.5c0.4,0,0.8,0.1,1.3,0.1c0.2,0.5,0.4,1,0.6,1.5C351.4,86.5,350.8,86,350.2,85.5z
	 M356.4,51.9c2.7,1.5,5.4,3.2,8,5c1.5,1,2.9,2.1,4.3,3.2c-3.7-1.2-7.5-2-11.3-3c0-0.3,0-0.6,0-0.9C357.4,54.7,357,53.3,356.4,51.9z
	 M362.4,72.7c-0.9-0.8-1.9-1.4-2.9-2c-0.2-1.3-0.5-2.5-0.8-3.7c3.7,0.9,7.3,1.9,11,3c0.9,0.3,1.9,0.7,2.8,1
	C369,71.1,365.6,71.5,362.4,72.7z M422,116.6c0.4,1.8,1.1,3.6,1.8,5.5c1.7,4.4,3,8.8,5.6,12.9c1.6,2.5,4,4.5,5.3,7.1l-2.6,1.8
	c-0.6-1.4-1.5-2.7-2.4-3.9c-2.4-3-5.2-5.5-7.6-8.4c0.1-2.4,0.1-4.9-0.2-7.6c0-0.3-0.1-0.6-0.1-0.9c0.4-0.8,0.7-1.7,0.6-2.7
	c0-1.7-0.6-3.1-1.3-4.3c0-0.1,0-0.2,0-0.4C421.3,115.9,421.7,116.3,422,116.6z M396.4,90.8c0.6,0.4,1.2,0.8,1.8,1.3
	c3.2,2.6,6.4,4.6,9.9,6.8c2.4,1.5,2.4,5.5,2.5,8.8c-1-0.6-2-1.1-3-1.6c0-0.8-0.2-1.7-0.6-2.5C404.3,99,400.7,94.4,396.4,90.8
	C396.3,90.8,396.3,90.8,396.4,90.8z M408.4,118.2c0,0.2-0.1,0.4-0.1,0.5c-2.7,0.6-5.4,1.2-8.1,1.8c-0.3,0.1-0.7,0.1-1,0.2
	c1-1,2-2.2,2.9-3.9c0.2-0.5,0.5-1,0.8-1.5c0.1,0,0.2,0.1,0.4,0.1c1.6,0.9,3.3,1.7,4.9,2.6C408.2,118.1,408.3,118.1,408.4,118.2z
	 M402.1,137.5c-0.6-0.4-1.2-0.7-1.8-1.1c-0.1-2.2-1.2-4.2-3.1-5.9c1.9,0,3.7-0.1,5.6-0.4c2-0.3,4-0.7,6.1-1.2c0.7,2.1,1.8,4,3,5.8
	c-0.1,0.6-0.3,1.3-0.4,1.9c-1.3-0.4-2.6-0.7-3.9-1.2C405.8,134.8,403.1,135.8,402.1,137.5z M418.4,153.3c0.4-1.8,0.7-3.6,1-5.4
	c1.6,0.5,3,1,4.1,1.8L418.4,153.3z"/>
<path fill="#FFFFFF" stroke="#3B4167" stroke-width="2" stroke-miterlimit="10" d="M447.9,232c3.3,0.6,6.5,1.2,9.5,1.8
	c2.1-2.6,4.2-5.8,5.6-9.6c0.3-0.8,0.5-1.5,0.7-2.3c-5-1.2-9.7-1.9-14.2-2.3C448,224,447.7,228.4,447.9,232z"/>
<path fill="#FFFFFF" stroke="#3B4167" stroke-width="2" stroke-miterlimit="10" d="M443.2,224.5c-1.1-2.1-2.4-3.9-3.7-5.6
	c-3.6-0.2-7.2-0.3-10.9-0.6c0.2,3.3,0.9,7.3,2.6,11.2c4.7,0.6,9.6,1.3,14.4,2C445.1,229.3,444.4,226.9,443.2,224.5z"/>
<path fill="#FFFFFF" stroke="#3B4167" stroke-width="2" stroke-miterlimit="10" d="M413,214.8c4.5,6.1,10.9,9.5,12.8,10.4
	c0.3,0.1,0.7-0.1,0.7-0.4c0.1-1.1,0.2-3.5-0.1-6.6c-1.3-0.1-2.6-0.2-4-0.4C418.3,217.5,415.3,216.3,413,214.8z"/>
<path fill="#FFFFFF" stroke="#3B4167" stroke-width="2" stroke-miterlimit="10" d="M464.1,235.5c1.9,0.5,3.6,1.1,5.1,1.7
	c0.5,0.2,1.1,0.4,1.6,0.7c1.7-2.8,3.8-5.2,5.8-7.1c0.7-1.2,1.4-2.5,1.9-3.9c-1.7-0.8-3.6-1.5-5.7-2.2c-2.7-0.9-5.3-1.7-7.7-2.3
	C463.7,227.1,463.7,231.8,464.1,235.5z"/>
<path fill="#FFFFFF" stroke="#3B4167" stroke-width="2" stroke-miterlimit="10" d="M476.6,230.7c-2,1.9-4.1,4.3-5.8,7.1
	c4.4,1.9,8.6,4.5,12,7.5c2.3-5.3,2.7-10.7,2.6-14.7c-1.5-1-3.2-2-5.2-3C479.1,228.4,477.9,229.5,476.6,230.7z"/>
<path fill="#FFFFFF" stroke="#3B4167" stroke-width="2" stroke-miterlimit="10" d="M463.9,304.6c-3.4,1.2-7.3,3-10.7,5.9
	c-0.4,0.3-0.7,0.6-1.1,1c3.4,2,6.4,4.1,8.1,5.9c1,1.1,2,2.3,2.8,3.5c3-2.7,5.3-5.9,6.9-8.9C468.5,309.6,466.5,307.1,463.9,304.6z"/>
<path fill="#FFFFFF" stroke="#3B4167" stroke-width="2" stroke-miterlimit="10" d="M454.9,298.3c-1.9,3.6-2.8,6.8-3.2,8.2
	c-0.1,0.4,0.2,0.7,0.6,0.7c1.7-0.2,6.2-0.8,11.2-2.8c-0.2-0.2-0.3-0.3-0.5-0.5C460.6,301.8,457.8,299.9,454.9,298.3z"/>
<path fill="#FFFFFF" stroke="#3B4167" stroke-width="2" stroke-miterlimit="10" d="M447.9,309.2c2.8-4.6,4.1-8.9,4.6-10.6
	c0.1-0.4-0.2-0.7-0.6-0.7c-2.4,0.2-10.1,1.3-17,5.9c0.2,0,0.3,0.1,0.5,0.1C438.4,304.7,443.2,306.7,447.9,309.2z"/>
<path fill="#FFFFFF" stroke="#3B4167" stroke-width="2" stroke-miterlimit="10" d="M432.4,300.8c-0.1,0.4,0.2,0.7,0.6,0.7
	c2.4-0.2,10.1-1.3,16.9-5.9c-4.4-2.1-8.9-3.9-12.9-5.3C434.1,294.8,432.8,299.2,432.4,300.8z"/>
<path fill="#FFFFFF" stroke="#3B4167" stroke-width="2" stroke-miterlimit="10" d="M422.8,286.1c2.3,6.7,6.4,11.6,7.9,13.2
	c0.2,0.3,0.7,0.2,0.9-0.1c0.7-1.4,2.4-5,3.4-9.6c-4.6-1.5-8.2-2.5-9.6-2.8C424.6,286.6,423.7,286.4,422.8,286.1z"/>
<path fill="#FFFFFF" stroke="#3B4167" stroke-width="2" stroke-miterlimit="10" d="M420,287.2c-0.2-0.3-0.7-0.2-0.9,0.1
	c-0.7,1.4-2.5,5.1-3.5,9.9c4.4,1.8,8.8,3.5,12.7,4.8C426.2,294.5,421.5,288.9,420,287.2z"/>
<path fill="#FFFFFF" stroke="#3B4167" stroke-width="2" stroke-miterlimit="10" d="M405.2,280.3c2.3,6.2,6.1,10.7,7.5,12.2
	c0.2,0.3,0.7,0.2,0.9-0.1c0.6-1.2,2-4.1,3-8c-3-0.9-6-1.8-8-2.5C407.3,281.5,406.2,280.9,405.2,280.3z"/>
<path fill="#FFFFFF" stroke="#3B4167" stroke-width="2" stroke-miterlimit="10" d="M409.6,216.9c-0.1,0.9-0.3,2.7-0.2,5
	c0,1.1,0.1,2.3,0.2,3.6c3,1.2,7.6,2.5,14,3.2c-1.8-3-4-5.4-6.1-7.3c-3-2.7-5.9-4.3-7.1-4.9C410,216.4,409.7,216.6,409.6,216.9z"/>
<path fill="#FFFFFF" stroke="#3B4167" stroke-width="2" stroke-miterlimit="10" d="M399.1,281.8c-0.1,0.9-0.3,2.7-0.2,5
	c0,1.1,0.1,2.3,0.2,3.6c3,1.2,8.7,5.9,15.1,6.6c-1.2-3.3-5.1-8.8-7.3-10.7c-3-2.7-5.9-4.3-7.1-4.9
	C399.5,281.3,399.2,281.5,399.1,281.8z"/>
<g>
	<path fill="#FFFFFF" stroke="#3B4167" stroke-width="2" stroke-miterlimit="10" d="M442.1,126.5c0.3,9.7,5.7,17.6,7.4,19.8
		c0.2,0.3,0.7,0.3,0.9,0c1.5-2.3,6.3-10.5,6-20.2c-0.3-9.7-5.7-17.6-7.4-19.8c-0.2-0.3-0.7-0.3-0.9,0
		C446.7,108.6,441.8,116.8,442.1,126.5z"/>
	<path fill="#FFFFFF" stroke="#3B4167" stroke-width="2" stroke-miterlimit="10" d="M467.3,148.9c0.3-9.7-4.6-17.9-6-20.2
		c-0.2-0.3-0.6-0.3-0.9,0c-1.6,2.2-7,10.1-7.3,19.8c-0.1,2.2,0.1,4.2,0.5,6.2c4.5,0,8.7,0.3,12.7,1.1
		C466.9,153.6,467.3,151.3,467.3,148.9z"/>
	<path fill="#FFFFFF" stroke="#3B4167" stroke-width="2" stroke-miterlimit="10" d="M474.9,158.3c-1.3-3.3-2.8-5.8-3.5-6.9
		c-0.2-0.3-0.6-0.3-0.9,0c-0.6,0.8-1.7,2.4-3,4.7c1.3,0.3,2.7,0.6,3.9,1C472.7,157.4,473.8,157.8,474.9,158.3z"/>
	<path fill="#FFFFFF" stroke="#3B4167" stroke-width="2" stroke-miterlimit="10" d="M429.4,107c1.2,9.6,7.4,17,9.2,19
		c0.2,0.3,0.7,0.2,0.9-0.1c1.2-2.4,5.3-11.1,4.1-20.7c-1.2-9.6-7.4-17-9.2-19c-0.2-0.3-0.7-0.2-0.9,0.1
		C432.2,88.7,428.2,97.4,429.4,107z"/>
	<path fill="#FFFFFF" stroke="#3B4167" stroke-width="2" stroke-miterlimit="10" d="M425.9,106.3c0.3,0.2,0.7,0.1,0.8-0.2
		c1-2.5,4-11.6,1.6-21c-2.3-9.4-9.3-16-11.3-17.8c-0.3-0.2-0.7-0.1-0.8,0.2c-1,2.5-4,11.6-1.6,21
		C416.9,97.9,423.9,104.5,425.9,106.3z"/>
	<path fill="#FFFFFF" stroke="#3B4167" stroke-width="2" stroke-miterlimit="10" d="M411.3,88.5c0.3,0.2,0.7,0,0.8-0.3
		c0.6-2.6,2.4-12.1-1.1-21.1c-3.5-9-11.3-14.6-13.6-16.1c-0.3-0.2-0.7,0-0.8,0.3c-0.6,2.6-2.4,12.1,1.1,21.1
		C401.3,81.4,409,87,411.3,88.5z"/>
	<path fill="#FFFFFF" stroke="#3B4167" stroke-width="2" stroke-miterlimit="10" d="M394,72.8c0.3,0.2,0.7,0,0.8-0.4
		c0.3-2.7,1.2-12.2-3.3-20.8s-12.8-13.4-15.2-14.6c-0.3-0.2-0.7,0-0.8,0.4c-0.3,2.7-1.2,12.2,3.3,20.8
		C383.3,66.7,391.6,71.5,394,72.8z"/>
	<path fill="#FFFFFF" stroke="#3B4167" stroke-width="2" stroke-miterlimit="10" d="M375.5,58.7c0.3,0.1,0.7-0.1,0.7-0.5
		c0-2.7-0.3-12.3-5.7-20.3c-5.4-8-14.3-11.8-16.8-12.8c-0.3-0.1-0.7,0.1-0.7,0.5c0,2.7,0.3,12.3,5.7,20.3
		C364.2,53.9,373,57.8,375.5,58.7z"/>
	<path fill="#FFFFFF" stroke="#3B4167" stroke-width="2" stroke-miterlimit="10" d="M356,48.4c0.4,0.1,0.7-0.2,0.7-0.5
		c-0.2-2.7-1.3-12.2-7.4-19.7c-6.1-7.5-15.2-10.5-17.8-11.3c-0.4-0.1-0.7,0.2-0.7,0.5c0.2,2.7,1.3,12.2,7.4,19.7
		C344.3,44.6,353.5,47.6,356,48.4z"/>
	<path fill="#FFFFFF" stroke="#3B4167" stroke-width="2" stroke-miterlimit="10" d="M332.6,40.4c0.7,0.2,2,0.7,3.5,1.4
		c1.6-0.4,2.8-0.7,3.5-1c0.4-0.1,0.5-0.6,0.3-0.9c-1.8-2.3-8.7-10.1-18.7-13c-10-2.9-20-0.1-22.7,0.9c-0.4,0.1-0.5,0.6-0.3,0.9
		c1.8,2.3,8.7,10.1,18.7,13c5.5,1.6,11,1.5,15.2,0.9c-0.1-0.7-0.1-1.3-0.2-1.7C332,40.6,332.3,40.3,332.6,40.4z"/>
	<path fill="#FFFFFF" stroke="#3B4167" stroke-width="2" stroke-miterlimit="10" d="M425.8,141.2c1.1-2,4.9-9.4,4.1-17.7
		c-0.8-8.3-5.9-14.8-7.4-16.6c-0.2-0.2-0.6-0.2-0.7,0.1c-1.1,2-4.9,9.4-4.1,17.7c0.8,8.3,5.9,14.8,7.4,16.6
		C425.3,141.5,425.6,141.5,425.8,141.2z"/>
	<path fill="#FFFFFF" stroke="#3B4167" stroke-width="2" stroke-miterlimit="10" d="M414,123.3c0.2,0.2,0.6,0.1,0.7-0.2
		c0.9-2.1,3.7-9.9,1.9-18.1s-7.7-14-9.4-15.5c-0.2-0.2-0.6-0.1-0.7,0.2c-0.9,2.1-3.7,9.9-1.9,18.1
		C406.4,115.9,412.3,121.7,414,123.3z"/>
	<path fill="#FFFFFF" stroke="#3B4167" stroke-width="2" stroke-miterlimit="10" d="M401.1,107.4c0.2,0.2,0.6,0.1,0.7-0.2
		c0.7-2.2,2.9-10.2,0.4-18.2c-2.5-8-8.8-13.3-10.6-14.7c-0.2-0.2-0.6-0.1-0.7,0.2c-0.7,2.2-2.9,10.2-0.4,18.2
		C393,100.7,399.3,106,401.1,107.4z"/>
	<path fill="#FFFFFF" stroke="#3B4167" stroke-width="2" stroke-miterlimit="10" d="M386.1,92.7c0.3,0.2,0.6,0,0.7-0.3
		c0.5-2.3,2-10.4-1.1-18.1c-3.1-7.7-9.8-12.6-11.8-13.8c-0.3-0.2-0.6,0-0.7,0.3c-0.5,2.3-2,10.4,1.1,18.1
		C377.5,86.6,384.2,91.4,386.1,92.7z"/>
	<path fill="#FFFFFF" stroke="#3B4167" stroke-width="2" stroke-miterlimit="10" d="M371.5,79.9c0.3-2.3,0.9-10.6-3.1-17.9
		c-4-7.3-11.2-11.4-13.2-12.4c-0.3-0.1-0.6,0-0.7,0.4c-0.3,2.3-0.9,10.6,3.1,17.9s11.2,11.4,13.2,12.4
		C371.1,80.4,371.4,80.2,371.5,79.9z"/>
	<path fill="#FFFFFF" stroke="#3B4167" stroke-width="2" stroke-miterlimit="10" d="M344.1,64c4.1,3,8.2,4.5,9.7,5
		c0.3,0.1,0.6-0.1,0.6-0.5c-0.1-2.4-1-10.8-6.3-17.6c-3.6-4.7-8.5-7.6-12-9.2c-1.5-0.7-2.8-1.2-3.5-1.4c-0.3-0.1-0.6,0.1-0.6,0.5
		c0,0.4,0.1,1,0.2,1.7c0.3,2.4,1,6.5,2.9,10.7"/>
	<path fill="#FFFFFF" stroke="#3B4167" stroke-width="2" stroke-miterlimit="10" d="M437.4,155.5c1.6-3.3,3.2-7.9,3.2-13.1
		c-0.1-8.3-4.6-15.3-6-17.2c-0.2-0.3-0.6-0.3-0.7,0c-1.3,1.9-5.6,9-5.5,17.3c0.1,4.8,1.6,9.1,3.1,12.3c0.3,0.4,0.5,0.7,0.8,1.1
		C433.9,155.7,435.7,155.6,437.4,155.5z"/>
	<path fill="#FFFFFF" stroke="#3B4167" stroke-width="2" stroke-miterlimit="10" d="M445.1,144.5c-0.2-0.3-0.6-0.3-0.7,0
		c-0.9,1.4-3.5,5.5-4.8,10.7c3.6-0.3,7-0.5,10.4-0.6C448.6,149.7,446.1,145.9,445.1,144.5z"/>
	<path fill="#FFFFFF" stroke="#3B4167" stroke-width="2" stroke-miterlimit="10" d="M337.7,76.8c7.9-0.6,14-5.3,15.7-6.6
		c0.2-0.2,0.2-0.5-0.1-0.7c-1.8-1-8-4.2-15.2-4.2c-0.5,0-1.1,0-1.6,0.1c-0.8,0.1-1.5,0.2-2.3,0.3"/>
	<path fill="#FFFFFF" stroke="#3B4167" stroke-width="2" stroke-miterlimit="10" d="M338.1,80.7c-0.2,0.2-0.2,0.5,0,0.7
		c1.8,1.2,8.6,5.4,16.5,5.4s14.4-4.2,16.2-5.4c0.2-0.2,0.2-0.5,0-0.7c-1.8-1.2-8.6-5.4-16.5-5.4C346.4,75.3,339.9,79.5,338.1,80.7z"
		/>
	<path fill="#FFFFFF" stroke="#3B4167" stroke-width="2" stroke-miterlimit="10" d="M369.6,97.5c7.8,0.9,14.8-2.4,16.7-3.4
		c0.3-0.1,0.3-0.5,0.1-0.7c-1.7-1.5-7.8-6.4-15.7-7.3s-14.8,2.4-16.7,3.4c-0.3,0.1-0.3,0.5-0.1,0.7
		C355.6,91.7,361.8,96.6,369.6,97.5z"/>
	<path fill="#FFFFFF" stroke="#3B4167" stroke-width="2" stroke-miterlimit="10" d="M383.4,110.5c7.7,1.8,15-0.9,17-1.7
		c0.3-0.1,0.3-0.5,0.1-0.7c-1.5-1.6-7.1-7.2-14.8-8.9c-7.7-1.8-15,0.9-17,1.7c-0.3,0.1-0.3,0.5-0.1,0.7
		C370.1,103.2,375.7,108.7,383.4,110.5z"/>
	<path fill="#FFFFFF" stroke="#3B4167" stroke-width="2" stroke-miterlimit="10" d="M396.3,124.7c7.5,2.4,15,0.4,17.1-0.2
		c0.3-0.1,0.4-0.4,0.2-0.7c-1.4-1.7-6.5-7.8-14-10.2c-7.5-2.4-15-0.4-17.1,0.2c-0.3,0.1-0.4,0.4-0.2,0.7
		C383.7,116.3,388.8,122.3,396.3,124.7z"/>
	<path fill="#FFFFFF" stroke="#3B4167" stroke-width="2" stroke-miterlimit="10" d="M407.3,140.3c7.2,3.1,14.9,1.9,17,1.4
		c0.3-0.1,0.4-0.4,0.3-0.6c-1.2-1.9-5.7-8.3-13-11.5c-7.2-3.1-14.9-1.9-17-1.4c-0.3,0.1-0.4,0.4-0.3,0.6
		C395.5,130.7,400,137.2,407.3,140.3z"/>
	<path fill="#FFFFFF" stroke="#3B4167" stroke-width="2" stroke-miterlimit="10" d="M432.2,155.9c-0.2-0.3-0.5-0.7-0.8-1.1
		c-2.1-2.8-5.5-6.6-10.2-9c-7.1-3.5-14.7-2.7-16.9-2.4c-0.3,0-0.4,0.4-0.3,0.6c1.1,1.9,5.2,8.7,12.3,12.2c0.5,0.3,1.1,0.5,1.6,0.7
		C422.8,156.7,427.5,156.3,432.2,155.9z"/>
	<path fill="#FFFFFF" stroke="#3B4167" stroke-width="2" stroke-miterlimit="10" d="M323.7,69.9c-0.5-0.2-1.1-0.5-1.6-0.7
		c-0.1,0-0.2-0.1-0.3-0.1c-4.6-1.6-9.2-1.7-12.7-1.3c-2,0.2-3.6,0.5-4.7,0.8c-0.3,0.1-0.6,0.1-0.8,0.2c-0.3,0.1-0.4,0.4-0.2,0.7
		c0.2,0.2,0.4,0.5,0.6,0.8c0.7,1,1.9,2.3,3.4,3.8c2.5,2.4,6,5.1,10.3,6.7c0.1,0,0.2,0.1,0.2,0.1c0.9,0.3,1.8,0.6,2.7,0.8
		c5.1,1.2,10,0.8,13.1,0.2c1.2-0.2,2.1-0.4,2.6-0.6c0.3-0.1,0.4-0.4,0.2-0.7c-0.3-0.4-0.8-1.1-1.5-1.9c-0.5-0.6-1.2-1.3-1.9-2.1"/>
	<path fill="#FFFFFF" stroke="#3B4167" stroke-width="2" stroke-miterlimit="10" d="M320.1,89.3c1.1,0.8,4.3,2.9,8.6,4
		c1.3,0.3,2.6,0.6,4,0.7c0.6,0.1,1.1,0.1,1.7,0.1c6.9,0,12.7-3.6,14.3-4.7c0,0,0.1-0.1,0.1-0.1c0,0,0,0,0-0.1c0.1-0.2,0-0.3-0.1-0.4
		c-1.3-0.9-5.7-3.7-11.2-4.6c-1-0.2-2-0.3-3.1-0.3c-0.5,0-1,0-1.5,0.1c-6.2,0.4-11.3,3.6-12.8,4.6C319.9,88.8,319.9,89.2,320.1,89.3
		z"/>
	<path fill="#FFFFFF" stroke="#3B4167" stroke-width="2" stroke-miterlimit="10" d="M334.6,100.6c0.9,0.6,3,1.8,5.9,2.8
		c1.1,0.4,2.2,0.7,3.5,1c1.6,0.3,3.3,0.5,5.1,0.4c4.4-0.2,8.2-1.8,10.8-3.2c1.5-0.9,2.7-1.7,3.2-2.1c0.2-0.2,0.2-0.5,0-0.6
		c-0.2-0.1-0.5-0.3-0.8-0.5c-2.2-1.3-6.8-3.5-12.3-3.7c-0.5,0-0.9,0-1.4,0c-1.1,0-2.2,0.2-3.2,0.4c-5.4,1.1-9.6,3.9-10.9,4.9
		C334.4,100.1,334.4,100.4,334.6,100.6z"/>
	<path fill="#FFFFFF" stroke="#3B4167" stroke-width="2" stroke-miterlimit="10" d="M347.7,109.5c0.7,0.5,2.3,1.7,4.4,2.7
		c1,0.5,2.2,1,3.5,1.5c1.9,0.7,4,1.2,6.2,1.3c3.3,0.2,6.4-0.5,8.9-1.4c2.7-0.9,4.8-2.1,5.6-2.6c0.2-0.1,0.2-0.5,0-0.6
		c-0.3-0.3-0.9-0.7-1.6-1.1c-2.5-1.6-7-4-12.2-4.4c-0.1,0-0.2,0-0.2,0c-1.7-0.1-3.4,0-4.9,0.3c-4.7,0.8-8.4,2.9-9.6,3.7
		C347.5,109,347.5,109.3,347.7,109.5z"/>
	<path fill="#FFFFFF" stroke="#3B4167" stroke-width="2" stroke-miterlimit="10" d="M360.9,118.9c0.5,0.5,1.4,1.4,2.7,2.4
		c0.8,0.7,1.8,1.3,2.9,2c2.1,1.3,4.6,2.5,7.5,3.1c1.1,0.2,2.2,0.4,3.3,0.4c2.7,0.1,5.2-0.3,7.2-0.8c2.1-0.5,3.6-1.1,4.4-1.4
		c0.2-0.1,0.3-0.4,0.1-0.6c-0.2-0.2-0.6-0.6-1-1c-0.8-0.8-2-1.8-3.5-2.8c-2.3-1.5-5.2-3.1-8.6-3.8c-0.9-0.2-1.7-0.3-2.6-0.4
		c-1.8-0.1-3.6,0-5.2,0.2c-3.4,0.5-6.1,1.5-7.2,2C360.8,118.4,360.8,118.7,360.9,118.9z"/>
	<path fill="#FFFFFF" stroke="#3B4167" stroke-width="2" stroke-miterlimit="10" d="M400.9,146.1c-1.2-0.9-2.5-1.7-4-2.3
		c-2.7-1.2-5.5-1.7-8-1.9c-3.2-0.2-5.9,0.2-6.9,0.4c-0.3,0-0.4,0.3-0.2,0.6c0.3,0.6,1,1.6,2,2.8c1.6,2.1,4.1,4.7,7.5,6.6
		c0.5,0.3,1.1,0.6,1.7,0.9c6.3,2.8,13.1,1.9,15,1.5c0.3,0,0.4-0.3,0.2-0.6C407.3,152.7,404.8,149,400.9,146.1z"/>
	<path fill="#FFFFFF" stroke="#3B4167" stroke-width="2" stroke-miterlimit="10" d="M384.1,139.3c2.6,0.7,5.1,0.9,7.3,0.8
		c3.4-0.2,6.2-0.9,7.3-1.3c0.2-0.1,0.3-0.4,0.2-0.6c-0.4-0.4-1-1.2-1.9-2.1c-1.1-1.1-2.5-2.4-4.2-3.5c-1.8-1.2-3.9-2.4-6.2-3.1
		c-1.6-0.5-3.2-0.7-4.7-0.9c-2.5-0.2-4.9,0.1-6.7,0.4c-1.7,0.3-2.9,0.7-3.6,0.9c-0.2,0.1-0.3,0.4-0.2,0.6c0.2,0.3,0.5,0.7,0.9,1.1
		c0.7,0.8,1.7,1.8,2.9,2.9c2.1,1.8,5,3.7,8.4,4.8C383.8,139.2,383.9,139.2,384.1,139.3z"/>
	<path fill="#FFFFFF" stroke="#3B4167" stroke-width="2" stroke-miterlimit="10" d="M335.1,53.2c-2.3-1.4-5-2.7-7.9-3.5
		c-10-2.9-20-0.1-22.7,0.9c-0.4,0.1-0.5,0.6-0.3,0.9c1.8,2.3,8.7,10.1,18.7,13c3.9,1.1,7.8,1.4,11.3,1.2c0.7-0.1,1.5-0.2,2.3-0.3
		c0.5,0,1.1-0.1,1.6-0.1c2.5-0.3,4.5-0.8,6-1.2"/>
</g>
<path fill="#FFFFFF" stroke="#3B4167" stroke-width="2" stroke-miterlimit="10" d="M319.8,73.2c1.9,1.1,8.8,4.8,17,4
	c8.2-0.8,15.1-5.7,17-7.2c0.3-0.2,0.3-0.6,0-0.7c-1.9-1.1-8.8-4.8-17-4c-8.2,0.8-15.1,5.7-17,7.2C319.6,72.7,319.6,73.1,319.8,73.2z
	"/>
<path fill="#FFFFFF" stroke="#3B4167" stroke-width="2" stroke-miterlimit="10" d="M354.6,69.8c-0.1-2.9-0.8-10.5-5.4-17.3
	c-5.4-8-14-10.9-16.5-12c-0.3-0.1-0.7,0-0.7,0.3c0,2.3,0.6,10.5,6.6,17.9c2.8,3.5,8.7,8.6,15.6,11.1"/>
<path fill="#FFFFFF" stroke="#3B4167" stroke-width="2" stroke-miterlimit="10" d="M315.3,454.9c0,0,7.6,4.9,13.3,11
	c5.8,6.1,8.8,10.7,14.5,13.9c5.5,3.1,7.5,2.3,7.5,2.3S342.1,467.6,315.3,454.9z"/>
<polygon fill="#384465" points="493.9,186.3 496.8,175.8 492.2,162.5 497.3,174.3 502.2,155.8 498.7,174.3 510.3,166.9 498.7,175.9 
	495.3,187.7 494.3,189.1 506.7,180.6 495.6,190.2 492.2,192.9 "/>
<polygon fill="#384465" points="499.1,226.3 501.2,219.3 496.6,211.8 501.6,217.9 504.8,207.7 502.6,202.8 505.2,205.8 508.4,194.5 
	506.1,206.2 513.4,203.1 506.1,207.9 502.9,219 510.7,215.9 502.5,220.6 501,224.9 "/>
<polygon fill="#384465" points="490.3,269.1 501.1,255.8 500.7,243.6 502.3,253.8 509.1,244.7 509.1,236 510.3,242.4 517.2,231.2 
	512.1,241.4 518.5,238.2 510.6,244.5 503.9,254.4 516.4,250.1 503.3,256.4 493.4,268.7 506.9,264.6 489.5,271.7 "/>
<polygon fill="#384465" points="479,309.2 486.9,302.7 486,287 488.2,300.6 496.9,292.7 496.9,280.3 498.3,290.3 505.3,283.1 
	505.3,276.1 506.4,281.5 517.4,268.7 508.1,281.9 512.3,281 506.4,284.2 499.6,291.8 510.9,292.8 497.6,294 488.4,302.7 
	499.7,306.5 487.4,304.6 480.4,310.5 483.3,312.8 479,311.8 "/>
<polygon fill="#384465" points="463.6,345.2 474.1,337.9 475.4,327.2 475.8,336.2 484,329.7 484.7,325.4 485,328.8 485.3,328.5 
	493.2,320.5 485.7,329.3 490.7,328.5 484.8,330.4 476.8,337.2 487.9,336.9 475.3,338.7 465.4,346.2 477.7,347 461.6,348.2 "/>
<polygon fill="#384465" points="447.1,375.3 450.4,366 448.4,375.3 459,370.6 462.8,362.4 460.6,369.9 468.1,366.7 471.8,360.6 
	469.4,366.1 481.7,359.9 470.9,366.7 478.1,369.6 469.1,367.6 460.9,371.7 469.7,378 459.5,372.5 452.4,375.8 "/>
<polygon fill="#384465" points="410,395.9 419.1,395.4 427.3,387.5 421,394.9 435.2,393.8 441,387.5 437.2,393.3 447.1,392.1 
	451.4,387.5 449,391.7 459.2,389.5 450.2,392.2 453.5,393.9 447.5,393.1 437.7,394.6 447.1,400.6 435.7,395.4 421.6,396.8 
	432.4,403.5 419.3,397.6 408.6,397.7 "/>
<path fill="#FFFFFF" stroke="#3B4167" stroke-width="3" stroke-miterlimit="10" d="M495.3,246.1c0,0,0.1-13.5-23.5-21.5
	c-19.7-6.7-32.7-4.8-50.3-6.7c-12.3-1.3-14.5-8.4-16.7-14.2L388,164.6l-5-12.5c0,0,11.2,6,32,5c20.8-1,40.5-4.8,55.5,0
	s20.3,11.7,20.3,11.7s3,14.3,4.5,28.3S498.2,230.9,495.3,246.1z"/>
<path fill="#FFFFFF" stroke="#3B4167" stroke-width="3" stroke-miterlimit="10" d="M472.3,325.8
	C472.3,325.8,472.3,325.8,472.3,325.8c0.1-1.1,0.8-12.5-10.4-22c-11.8-10-33.5-16-37.6-17s-12.6-3.4-16.8-4.9s-7.5-3.8-8-9.9
	s3.8-49.4,3.8-49.4s5,4.5,19.8,6.1s35.1,4.5,45.1,8.4s19.6,11.6,21,19.3s-2.4,29.1-5.1,38.5C481.4,303.9,472.9,324.3,472.3,325.8z"
	/>
<path fill="#FFFFFF" stroke="#3B4167" stroke-width="2" stroke-miterlimit="10" d="M386.2,414.7c0.3-0.5,10.6-9.6,10.6-9.6
	s4.9-1.3,9.5,0c1.4,0.4,3,1,4.4,1.5c1-1.2,3.1-3.2,5.6-3.7c3.6-0.7,6.1-0.1,7.6,0.5c1.5,0.7,2.9,4.3,2.9,4.3s3.8-1.1,7,0.5
	s5,6,4.1,8.9c-0.8,3-4.5,5.5-4.5,5.5l-1,0.6c0,0,1.2,2.2,1,4.2c-0.2,2-1.7,3.6-4.2,4.4c-1.4,0.4-5.7,0.6-8.9-0.8c0,0,1,1.8-0.4,4.1
	c-1.4,2.4-7,4.1-12.7,1.5c-5.8-2.6-11.9-4.6-11.9-4.6l-10.1-9.5C385.3,422.6,385.9,415.2,386.2,414.7z"/>
<path fill="#FFFFFF" stroke="#3B4167" stroke-width="2" stroke-miterlimit="10" d="M383.1,419.2c0,0,6.5-0.4,8,2.1s1.5,3.5,1.5,3.5
	s6.3-0.9,9.4,1.2s5.3,9.5,0,11.9c-5.3,2.4-2.5,1.2-2.5,1.2s1.2,4.4-2.7,7.5c-3.8,3-9.6,3.4-9.6,3.4l-4.7,0c0,0,0.7,3.9-2.4,6
	s-8.4,2.3-12.3,0s-5.6-3.5-5.6-3.5s-0.5,0.5-4,2.3c-3.5,1.8-6.8,3.3-10.3,0.7s-6-6.6-6-6.6s5.5-12.8,5.5-13.2
	C347.4,435.4,383.1,419.2,383.1,419.2z"/>
<polygon fill="#384465" points="398.4,424.7 407.3,414.1 402,422.7 411.8,419.7 417.9,413.6 414.2,419.2 430.2,415.1 416.8,420.1 
	423.5,421.3 413.5,421.3 403.3,423.5 413.5,429 402.9,425.4 400.4,425.6 "/>
<polygon fill="#384465" points="359.4,440.7 372.1,438.5 379.6,430.7 374.6,438 394.8,433.4 376.1,439.1 385.3,442.1 373.5,439.9 
	359.9,442.6 370.9,450.1 355.1,443.3 357.5,441.6 "/>
<path fill="#384465" d="M364.7,363.4c0,0,12.7-11.9,18.6-29.7c3.5-10.5,40.3,32,40.3,32s-12.1,20.2-22,29.9S364.7,363.4,364.7,363.4
	z"/>
<g>
	<path fill="#FFFFFF" d="M386.3,379.2c0.6-0.6,14.7-14,23-33.1l-5.5-2.4c-7.8,17.9-21.4,31-21.6,31.1L386.3,379.2z"/>
</g>
<g>
	<path fill="#FFFFFF" d="M377.1,375.2c0.6-0.6,14.7-14,23-33.1l-5.5-2.4c-7.8,17.9-21.4,31-21.6,31.1L377.1,375.2z"/>
</g>
<g>
	<path fill="#FFFFFF" d="M395.1,383.9c0.6-0.6,14.7-14,23-33.1l-5.5-2.4c-7.8,17.9-21.4,31-21.6,31.1L395.1,383.9z"/>
</g>
<g>
	<path fill="#FFFFFF" d="M401.2,393.6c0.6-0.6,14.7-14,23-33.1l-5.5-2.4c-7.8,17.9-21.4,31-21.6,31.1L401.2,393.6z"/>
</g>
<g>
	<path fill="#FFFFFF" d="M367,372.2c0.6-0.6,14.7-14,23-33.1l-5.5-2.4c-7.8,17.9-21.4,31-21.6,31.1L367,372.2z"/>
</g>
<path fill="#FFFFFF" stroke="#3B4167" stroke-width="3" stroke-miterlimit="10" d="M394.5,284.4c0-0.1,0.1-0.1,0.2,0
	c0.8,0.9,5.4,6,13.6,10c9,4.3,20,8.3,26.1,9.6s20.1,8.6,24.8,13.4s7.1,12.3,7.5,17l0.3,3.2c0,0,0,0,0,0.1c-0.3,0.6-6.3,12-12.7,18.9
	c-6.6,7.1-16.2,14.3-23.3,18.2c-5.9,3.2-8.1,4.2-8.6,4.5c-0.1,0-0.2,0-0.1-0.1c0.2-1.5,1-12.5-10.2-20.9
	c-12.1-9.1-26.5-16.9-30.1-19.3c-3.6-2.4-4-2.3-5.6-4.8c-1.6-2.5-1.5-3.9,0-9.1s7-15.8,9.3-20.6
	C387.9,299.7,393.7,287.2,394.5,284.4z"/>
<path fill="#FFFFFF" stroke="#3B4167" stroke-width="2" stroke-miterlimit="10" d="M165,437.2c-6.1-3.8-11.8-7.9-17.2-12.2
	c-14,11.7-23.8,24-26.9,35.9c7.4,4.9,17,8.8,29.3,13.1c4.1-10.6,12.3-21.6,23.3-31.9C170.6,440.5,167.7,438.9,165,437.2z"/>
<path fill="#FFFFFF" stroke="#3B4167" stroke-width="2" stroke-miterlimit="10" d="M140.5,418.5c3.3-5.4,7.6-10.6,12.9-15.3v0
	C148.1,407.9,143.8,413.1,140.5,418.5c-6-5.6-11.3-11.7-16-18.1c-12.7,13.1-22.9,27.4-30.7,42c8.6,7.3,16.4,13.4,27.1,18.5
	c3-11.8,13-24,27.1-35.8C145.4,423,142.9,420.8,140.5,418.5z"/>
<path fill="#FFFFFF" stroke="#3B4167" stroke-width="2" stroke-miterlimit="10" d="M191.7,450.6c-6.3-2.5-12.4-5.4-18.2-8.5
	c-11.1,10.3-19.2,21.3-23.3,31.9c6.7,4.8,18.7,6.3,30.3,8.6c11.6-16.6,33-27.6,56-35.7v-13.6C220.2,436.5,205.1,442.5,191.7,450.6z"
	/>
<path fill="#FFFFFF" stroke="#3B4167" stroke-width="2" stroke-miterlimit="10" d="M49,167.8c0,0-0.8-5.5-2.2-9.1
	c-1.3-3.6-6.8-3.4-8.1-3.5c-1.3-0.1-0.1-2.1-3.1-6.3s-9.8-5.4-14-1.9s-3.8,5.6-3.8,5.6s-0.2,2.7,0.8,3.8c0.9,1.2-2.8-0.8-5.7,3.1
	s-2,8.8-0.4,10.8s4.3,3.8,4.3,3.8s-3.4,1.6-4.2,4.7s0.6,6.2,2.3,8.4s9,6.8,9,6.8l12.9,2.8l10.6-9.9L49,167.8z"/>
<path fill="#384465" d="M422.5,417.9l10.1-3.4c0,0-1.1,0.8-4.5,2.5c-3.4,1.8-4.8,2-4.8,2L422.5,417.9z"/>
<path fill="#FFFFFF" stroke="#3B4167" stroke-width="2" stroke-miterlimit="10" d="M39.7,195c0,0-5.1-3.3-7.1-3.6s-3.5,0-3.5,0
	s-5.8-4-9-3.3c-3.2,0.7-8.8,2.9-10.5,8.5s0.2,9.4,1.4,11.4s1.2,2,1.2,2s-4.1,2.7-3.3,9.1c0.8,6.4,24.3,13.7,24.3,13.7l10.8-17
	L39.7,195z"/>
<path fill="#FFFFFF" stroke="#3B4167" stroke-width="2" stroke-miterlimit="10" d="M37.6,230.5c0,0-6.5-5.3-10.7-5.7
	s-4.2,0.7-4.2,0.7s-3.3-4.9-6-6.6s-7.1-3.2-12,1.2s-2.5,8-1.3,9.6s2.1,2,2.1,2s-1.9,1.3-2.8,2.7c-1,1.4-0.5,3.5,0,4.6
	c0.5,1.2,3.3,4.8,4.3,5.6c1,0.8,1.7,1.2,1.7,1.2s-3.4,1.3-4,3.4c-0.7,2.5-1.3,5.5,4.9,9.2c1.7,1,7,3.3,7,3.3s-1.4,0.4-1.3,2.3
	c0.1,1.8,8.3,10.9,8.3,10.9l16.8,5.4l9-6.1l-0.7-17.8l-9.6-22.5L37.6,230.5z"/>
<path fill="#FFFFFF" stroke="#3B4167" stroke-width="2" stroke-miterlimit="10" d="M46.9,280.8c0,0-3.2-3.1-5.8-2.7
	s-3.1,1.4-3.1,1.4s0.4-2.8,0-5.5s-4.3-6.3-6.7-6.6s-5.4-0.3-6.9,1.4s-1.6,1.3-1.6,1.3s-4.7-6.8-10.3-6.8s-7.6,3.9-8.4,6
	c-0.8,2.1,0.8,7.2,3.5,9.6c2.7,2.4,5.4,5.4,5.4,5.4s-2.1,0.6-2.9,3.5c-0.8,2.9,0,5.4,2.5,7.6s4.6,4.4,8.2,5.8c3.6,1.4,5.1,1,5.1,1
	s-1.1,2.2-0.8,4.4c0.3,2.3,0.6,3.8,2.6,5.4s7.4,4.6,7.4,4.6l31.6,5.7L46.9,280.8z"/>
<path fill="#FFFFFF" stroke="#3B4167" stroke-width="2" stroke-miterlimit="10" d="M51.4,354.2c0,0-5,2.3-7.3,5.1s-1,6.1,0,7.6
	s5.1,3.4,5.1,3.4s-0.4,4.8,0.4,7.2c0.8,2.4,4.1,5.4,6.4,6.4s10.9,0.4,10.9,0.4s13,1,13.3,0.9c0.3-0.1,11.9,1.9,11.9,1.9l8.1-1.2
	l6.9-9.3l-8.4-14.4c0,0-13.3-8.1-13.8-8.1s-21.9-4.1-21.9-4.1L51.4,354.2z"/>
<path fill="#FFFFFF" stroke="#3B4167" stroke-width="2" stroke-miterlimit="10" d="M119.7,379.5c0,0-3,0.7-4.2,2.8
	c-1.2,2.2-1.2,2.2-1.2,2.2s-2.8-5-6.6-5.2s-6-0.7-7.8,0s-3.8,3.3-3.8,3.3s-3-4.6-8.9-6.3c-5.9-1.7-10.7,1.3-12.3,2.4
	c-1.6,1.2-1.8,4.4-1.8,4.4s-7.1-1.8-11,2.5c0,0-2,3-1.3,6.2c0.7,3.2,1.9,4.7,4.5,5.4c2.6,0.7,3.8,0,3.8,0s-1.5,6.4,2.4,8.6
	c3.9,2.3,6.4,2.1,9.5,1.6c3.1-0.5,5.6-1.6,5.6-1.6s0.3,2.7,2.8,4.6c2.5,1.9,7.6,3.6,7.6,3.6l20.8,2.6c0,0,16.8-16,16.5-16.4
	s-5.9-11.1-6.2-11.3S119.7,379.5,119.7,379.5z"/>
<path fill="#FFFFFF" stroke="#3B4167" stroke-width="2" stroke-miterlimit="10" d="M55,319c0,0-2.1-2.9-5.8-4.3
	c-3.7-1.3-4.6-0.7-5.4-0.4c-1,0.3-2.4,1.3-2.4,1.3s-3.6-3-6.3-3.1c-2.8-0.1-6.2,0.2-8.9,2.9s-3.6,5.7-2.7,9.5
	c0.9,3.8,2.9,6.1,5.7,7.4s6,2.2,6,2.2s-1.3,5.3,0.8,7.9c2,2.7,2.7,4.2,6.3,4.6c3.7,0.4,4.4,0,4.4,0s-0.5,3.6,1.2,6.3
	c1.7,2.7,5,5.6,10.3,5.2c5.3-0.4,8.8-2.9,8.8-2.9s-1.1,3.8,2.4,6.8s7.1,2.7,11.6,2.2c0.9-0.1-1.8,3.5,2.9,6
	c2.6,1.4,9.5,1.8,12.4-0.4c2.9-2.2-5.2-14.8-5.2-14.8l-13.4-21.6l-17.3-14.3L55,319z"/>
<path fill="#735846" d="M192.4,380.7c-4.3,1.6-8.4,3.3-12.4,5.2v0C184,384,188.1,382.3,192.4,380.7L192.4,380.7z"/>
<path fill="#735846" d="M212.4,374.6c-2.5,0.6-5,1.3-7.4,2C207.4,375.9,209.9,375.2,212.4,374.6L212.4,374.6z"/>
<path fill="#735846" d="M205,376.6c-2,0.6-4.1,1.2-6,1.9l0,0C200.9,377.8,202.9,377.2,205,376.6z"/>
<polygon fill="#735846" points="265.7,230.8 265.7,231 265.7,231.4 265.7,231.5 265.7,231.4 "/>
<polygon fill="#735846" points="265.5,232.1 265.5,232.4 265.5,232.2 265.5,232.1 "/>
<polygon fill="#735846" points="265.8,230.4 265.7,230.5 265.8,230.8 265.8,230.6 "/>
<polygon fill="#735846" points="265.8,230.4 265.8,229.8 265.8,230.3 "/>
<polygon fill="#735846" points="265.7,230.5 265.7,230.6 265.7,230.8 265.7,230.7 "/>
<path fill="#735846" d="M242.6,369.5L242.6,369.5c-3,0.3-5.9,0.6-8.8,1C236.7,370.1,239.7,369.8,242.6,369.5z"/>
<polygon fill="#735846" points="265.8,229.8 265.7,230.2 265.8,230.2 "/>
<polygon fill="#735846" points="265.6,230.9 265.6,231 265.6,231.1 "/>
<polygon fill="#735846" points="265.7,232.9 265.7,232.8 265.7,232.9 "/>
<path fill="#735846" d="M223.9,372.1c-2.3,0.4-4.6,0.9-6.9,1.4l0,0C219.3,373,221.6,372.6,223.9,372.1z"/>
<polygon fill="#735846" points="265.5,232 265.5,232 265.4,232 "/>
<path fill="#65DD17" d="M193.4,65.8c1.2,0.2,2.5,0.3,3.9,0.4c-0.7-0.1-1.5-0.2-2.3-0.3C194.4,65.8,193.9,65.8,193.4,65.8z"/>
<path fill="#65DD17" d="M99.5,156.4c0.2-0.3,0.4-0.7,0.5-1.1c-0.3,0.4-0.5,0.7-0.7,1C99.4,156.3,99.4,156.4,99.5,156.4z"/>
<path fill="#65DD17" d="M132.1,288.2c-0.9-2.9-2-5-2.5-6c-0.2-0.3-0.6-0.4-0.9-0.1c-1.5,1.6-5.8,6.7-8,13.7c0.6-0.3,1.3-0.6,1.9-0.9
	C126.7,292.9,129.8,290.4,132.1,288.2z"/>
<path fill="#D7569C" d="M60.6,238.5c0.2,0.2,0.3,0.3,0.5,0.5c-0.1-0.2-0.2-0.4-0.3-0.5C60.7,238.5,60.7,238.5,60.6,238.5z"/>
<polygon fill="#FFFFFF" stroke="#3B4167" stroke-width="2" stroke-miterlimit="10" points="266,3.4 273.3,23.9 292.9,14.6 
	283.6,34.1 304,41.4 283.6,48.7 292.9,68.3 273.3,58.9 266,79.4 258.8,58.9 239.2,68.3 248.5,48.7 228.1,41.4 248.5,34.1 
	239.2,14.6 258.8,23.9 "/>
<line fill="none" stroke="#3B4167" stroke-miterlimit="10" x1="258.8" y1="23.9" x2="273.3" y2="58.9"/>
<line fill="none" stroke="#3B4167" stroke-miterlimit="10" x1="248.5" y1="48.7" x2="283.6" y2="34.1"/>
<line fill="none" stroke="#3B4167" stroke-miterlimit="10" x1="273.3" y1="23.9" x2="258.8" y2="58.9"/>
<line fill="none" stroke="#3B4167" stroke-miterlimit="10" x1="248.5" y1="34.1" x2="283.6" y2="48.7"/>
<polygon fill="#FFFFFF" stroke="#3B4167" stroke-width="1.5" stroke-miterlimit="10" points="136.8,351.6 144.8,361 200,301.2 
	202.2,289.6 "/>
<path fill="#FFFFFF" stroke="#3B4167" stroke-width="1.5" stroke-miterlimit="10" d="M199.3,305.1l-50.8,59.2l3.8,3.6
	c4.8-2.9,9.9-5.6,15.1-8.1l30.5-41.1l-1.3,0.7L199.3,305.1z"/>
<path fill="#FFFFFF" stroke="#3B4167" stroke-width="1.5" stroke-miterlimit="10" d="M175.8,356c4.4-1.9,8.9-3.6,13.5-5.2
	c1.2-0.4,2.4-0.8,3.6-1.2l24.2-41l-13,6.8L175.8,356z"/>
<path fill="#FFFFFF" stroke="#3B4167" stroke-width="1.5" stroke-miterlimit="10" d="M198.3,348c3.7-1.1,7.5-2.1,11.4-3l20.9-43.3
	l-8.5,4.4L198.3,348z"/>
<path fill="#FFFFFF" stroke="#3B4167" stroke-width="1.5" stroke-miterlimit="10" d="M214.4,343.8c3.3-0.7,6.6-1.4,9.9-1.9
	l16.7-45.8l-6.9,3.6L214.4,343.8z"/>
<path fill="#FFFFFF" stroke="#3B4167" stroke-width="1.5" stroke-miterlimit="10" d="M251,338.8c2.6-0.2,5.2-0.3,7.8-0.3l3.5-53.5
	l-4.2,2.2L251,338.8z"/>
<path fill="#FFFFFF" stroke="#3B4167" stroke-width="1.5" stroke-miterlimit="10" d="M240.3,339.7c2.5-0.3,4.9-0.5,7.4-0.6l8.4-50.8
	l-4.4,2.3L240.3,339.7z"/>
<path fill="#FFFFFF" stroke="#3B4167" stroke-width="1.5" stroke-miterlimit="10" d="M228.1,341.3c2.8-0.4,5.7-0.8,8.5-1.2
	l13.2-48.6l-5.7,3L228.1,341.3z"/>
<path fill="#FFFFFF" stroke="#3B4167" stroke-width="1.5" stroke-miterlimit="10" d="M338.7,349.9c1,0.3,2,0.6,2.9,1
	c4.9,1.7,9.6,3.5,14.3,5.5L327.8,316l-13.1-6.9L338.7,349.9z"/>
<path fill="#FFFFFF" stroke="#3B4167" stroke-width="1.5" stroke-miterlimit="10" d="M321.9,345.1c3.9,0.9,7.7,2,11.4,3.1
	l-23.6-41.6l-8.6-4.5L321.9,345.1z"/>
<path fill="#FFFFFF" stroke="#3B4167" stroke-width="1.5" stroke-miterlimit="10" d="M307.2,342c3.4,0.6,6.7,1.2,10,2l-19.6-43.8
	l-7-3.7L307.2,342z"/>
<path fill="#FFFFFF" stroke="#3B4167" stroke-width="1.5" stroke-miterlimit="10" d="M263.8,284.2l-1.8,54.2c1.2,0,2.3,0,3.5,0
	c1.4,0,2.7,0,4,0l-1.9-54l-2.2-1.1L263.8,284.2z"/>
<path fill="#FFFFFF" stroke="#3B4167" stroke-width="1.5" stroke-miterlimit="10" d="M272.7,338.5c2.6,0.1,5.2,0.2,7.8,0.3l-7-51.3
	l-4.3-2.2L272.7,338.5z"/>
<path fill="#FFFFFF" stroke="#3B4167" stroke-width="1.5" stroke-miterlimit="10" d="M283.8,339.1c2.5,0.2,5,0.4,7.4,0.7l-11.4-48.8
	l-4.5-2.3L283.8,339.1z"/>
<path fill="#FFFFFF" stroke="#3B4167" stroke-width="1.5" stroke-miterlimit="10" d="M294.9,340.2c2.9,0.3,5.7,0.8,8.6,1.2l-16-46.5
	l-5.7-3L294.9,340.2z"/>
<path fill="#FFFFFF" stroke="#3B4167" stroke-width="1.5" stroke-miterlimit="10" d="M113.8,287.2l7,8.5c0.6-0.3,1.2-0.6,1.8-0.9
	c9-4.3,12.9-8.3,12.9-8.3c0,0.7,1.3-0.6,2.2,1.7l70.6-31.1l0.9-4.7L113.8,287.2z"/>
<path fill="#FFFFFF" stroke="#3B4167" stroke-width="1.5" stroke-miterlimit="10" d="M139.6,292.6c1.3,2.9,2.8,6,4,8.5l63.3-36
	l1.1-5.7L139.6,292.6z"/>
<path fill="#FFFFFF" stroke="#3B4167" stroke-width="1.5" stroke-miterlimit="10" d="M145.3,304.8
	C145.3,304.8,145.3,304.9,145.3,304.8c1.1,2.2,2.7,5.5,4.4,9l55.2-39l1.3-7.1L145.3,304.8z"/>
<path fill="#FFFFFF" stroke="#3B4167" stroke-width="1.5" stroke-miterlimit="10" d="M151.6,317.8c1.3,2.9,2.5,5.7,3.1,7.7
	c0.2,0.8,0.4,1.5,0.6,2.1l47.5-41l1.6-8.5L151.6,317.8z"/>
<path fill="#FFFFFF" stroke="#3B4167" stroke-width="1.5" stroke-miterlimit="10" d="M127.9,225.9c0.2,2.2,0.5,5.6,0.9,9.6l71.1-2.1
	l-4.7-4.4L127.9,225.9z"/>
<path fill="#FFFFFF" stroke="#3B4167" stroke-width="1.5" stroke-miterlimit="10" d="M129.1,239c0.3,3,0.6,6.2,0.8,9.5l76-9.4
	l-3.9-3.7L129.1,239z"/>
<path fill="#FFFFFF" stroke="#3B4167" stroke-width="1.5" stroke-miterlimit="10" d="M207.7,240.7l-77.4,11.5
	c0.3,3.4,0.5,6.8,0.7,9.7l79.8-17.9l0.1-0.4L207.7,240.7z"/>
<path fill="#FFFFFF" stroke="#3B4167" stroke-width="1.5" stroke-miterlimit="10" d="M131.3,266.2c0.2,3,0.2,5.2,0.1,6.3
	c-0.1,1.4-0.4,2.5-0.7,3.5l79-25.9l0.8-4.1L131.3,266.2z"/>
<polygon fill="#FFFFFF" stroke="#3B4167" stroke-width="1.5" stroke-miterlimit="10" points="139.6,172.9 136,181.3 154.7,189 
	168.8,187 "/>
<polygon fill="#FFFFFF" stroke="#3B4167" stroke-width="1.5" stroke-miterlimit="10" points="134.1,185.6 130.4,194.3 171.7,206.5 
	159.9,195.3 "/>
<path fill="#FFFFFF" stroke="#3B4167" stroke-width="1.5" stroke-miterlimit="10" d="M128.5,198.7l-2.4,5.5
	c-0.4,1.1-0.8,2.3-1.3,3.4l58.8,10.1l-7.7-7.3L128.5,198.7z"/>
<path fill="#FFFFFF" stroke="#3B4167" stroke-width="1.5" stroke-miterlimit="10" d="M122.2,212.2c-2.3,3-6.1,5.5-12.8,6.2
	c-8.6,0.9-16.1,0.9-23.9,1.5l-0.1,0.7l106.9,5.6l-6.2-5.9L122.2,212.2z"/>
<polygon fill="#FFFFFF" stroke="#3B4167" stroke-width="1.5" stroke-miterlimit="10" points="144.7,160.6 142.9,165.1 141,169.5 
	174.5,186.3 185.9,184.7 "/>
<path fill="#FFFFFF" stroke="#3B4167" stroke-width="1.5" stroke-miterlimit="10" d="M213.8,81.3l27.2,77.8l3.6-7.6l-20.4-77
	C221.6,77,218.1,79.7,213.8,81.3z"/>
<path fill="#FFFFFF" stroke="#3B4167" stroke-width="1.5" stroke-miterlimit="10" d="M176,114.2c-1.9,0.7-4,1.2-6.3,1.3
	c-3.3,0.2-6.3-0.5-8.8-1.3l2.4,2.6c3.4,0.5,6.1,1.5,7.1,2c0.2,0.1,0.3,0.4,0.1,0.6c-0.5,0.5-1.4,1.4-2.7,2.4l53.2,58.1l5.7-0.8
	L176,114.2z"/>
<path fill="#FFFFFF" stroke="#3B4167" stroke-width="1.5" stroke-miterlimit="10" d="M232.7,176.8l-45.1-71.9
	c-1.6,0.3-3.4,0.5-5.2,0.5c-4.3-0.2-8.1-1.7-10.7-3.1l2.6,3.5c4.6,0.8,8.3,2.9,9.5,3.7c0.2,0.1,0.2,0.5,0,0.6
	c-0.7,0.5-2.2,1.6-4.3,2.7l49.1,66.2l3.4-0.5L232.7,176.8z"/>
<path fill="#FFFFFF" stroke="#3B4167" stroke-width="1.5" stroke-miterlimit="10" d="M198.9,94.6c-0.6,0.1-1.2,0.1-1.8,0.1
	c-6.8,0-12.5-3.4-14.2-4.6l3.3,5.5c5.4,1.1,9.5,3.9,10.8,4.9c0.2,0.2,0.2,0.5,0,0.6c-0.9,0.6-3,1.8-5.8,2.8l42.4,71.3l2.5-5.4
	L198.9,94.6z"/>
<path fill="#FFFFFF" stroke="#3B4167" stroke-width="1.5" stroke-miterlimit="10" d="M156.3,134.8c-2.1,1.8-5,3.7-8.5,4.8
	c-0.1,0-0.3,0.1-0.4,0.1l54.8,42.7l7-1L156.3,134.8z"/>
<path fill="#FFFFFF" stroke="#3B4167" stroke-width="1.5" stroke-miterlimit="10" d="M165,123.8c-2.1,1.3-4.7,2.5-7.6,3.1
	c-1.1,0.2-2.2,0.4-3.3,0.4l2.3,2.1c1.6,0.3,2.9,0.7,3.5,0.9c0.2,0.1,0.3,0.4,0.2,0.6c-0.2,0.3-0.5,0.6-0.9,1.1l53.6,49l6.3-0.9
	L165,123.8z"/>
<path fill="#FFFFFF" stroke="#3B4167" stroke-width="1.5" stroke-miterlimit="10" d="M147.8,146.1c-1.6,2.1-4.2,4.7-7.5,6.6l2.9,1.8
	c3.2-1,4.8-1.9,4.8-1.9l-1.6,3.9l44,27.6l8.6-1.2L147.8,146.1z"/>
<path fill="#FFFFFF" stroke="#3B4167" stroke-width="1.5" stroke-miterlimit="10" d="M210.8,82.3c-5.1,1.2-10,0.8-13.1,0.3l39,85.7
	l3.1-6.6L210.8,82.3z"/>
<polygon fill="#FFFFFF" stroke="#3B4167" stroke-width="1.5" stroke-miterlimit="10" points="270.1,116.5 272.2,62.1 266,79.4 
	259.7,61.6 261.7,115 265.4,107.1 "/>
<polygon fill="#FFFFFF" stroke="#3B4167" stroke-width="1.5" stroke-miterlimit="10" points="288.3,66.1 276.4,60.4 272.5,121.5 
	278.7,134.1 "/>
<polygon fill="#FFFFFF" stroke="#3B4167" stroke-width="1.5" stroke-miterlimit="10" points="255,60.7 243.1,66.4 252.7,134.1 
	258.9,121 "/>
<path fill="#FFFFFF" stroke="#3B4167" stroke-width="2" stroke-miterlimit="10" d="M265.5,226.1"/>
<path fill="#384465" d="M43.9,228.4c-0.3,1.4-0.7,2.6-1.6,3.8c-3.1,4-7.7,8.4-8.4,13.5c-0.1,1.1,3.4,9.5,12.6,2.5
	c2.3-1.7,3.4-1.4,6.7,0.6c1.8,1.1,3.2,4.9,4.4,6.6c0.9,1.5,1.9,3,1.9,4.7c0,1.4-0.6,2.8-1.2,4.1c-2.1,4.7-4.3,9.9-3.3,15
	c0.5,2.7,1.8,5.1,2.6,7.7c1.7,5.3,1.9,11.3,3.1,16.8c1,4.8-2.5,12.2-3.6,16.9c-1.2,5.3-0.1,10.7,7.1,8.2c1.7-0.6,2.7,5.6,4.6,5.5
	c1.8,0,3.9,1,5.4,1.9c3.3,1.9,6,4.8,8.4,7.7c1.4,1.7,2.8,3.5,4.2,5.3c7.6,9.8,11.5,19.3,17.9,29.9c0.5,0.8,2.7,1.8,3.6,2.2
	c1.1,0.5,4.4,0.3,5.5-0.1c3.7-1.5,6.7-4.8,7.8-8.7c1.6-5.3-0.2-10.9-0.8-16.4c-1.1-10.5,2.1-21.3-0.5-31.5
	c-1.1-4.2-3.1-8.3-3.3-12.7c-0.4-12.2,10.4-17.6,18.1-24.7c0.9-0.9,2.6-3,2.6-3s-0.9-4.1-7.6-1.2c-0.8,0.4,0.9-1.6,0-1.5
	c-1.9,0.1,0.4-0.8-1.4-0.3c-1.4,0.4-2.8,0.2-4.3,0.5c-1.1,0.2-2.1,1-3.3,1.1c-5.7,0.7-3.8-9.3-3.8-12.7c0.1-5.3,0.1-11.1-3-15.7
	c-1.7-2.6-4.3-4.8-4.6-7.8c-0.6-5.6,2.1-10.1,5.9-13.9c1.6-1.6,3.2-3.2,5-4.5c1.5-1.1,3.2-1.9,4.7-3s2.9-2.8,3.4-4.6
	c0.3-1-0.9-1.1-1.9-1.2c-3.4-0.4-5.8,0.5-6.9,1.4c-1.6,1.2-0.9-0.2-2.7,0.7c-0.9,0.4,1.8-1.7,0.9-1.6c-1.4,0.1-3.3-0.9-4-2.1
	c-0.7-1.2-0.3-2.7-0.3-4.1c0-3.9-0.2-7.8-0.7-11.7c-0.2-1.9-0.5-4,0.1-5.8c0.4-1.3,1.3-2.5,1.9-3.8c3-6.2-1.8-14.5,2.2-19.8
	c4.2-5.5,10.3-9.9,16.8-12.3c4.1-1.6,7.1-1,10.6-3.8s12.2-11-0.7-8.5c-1.5,0.3,4.4-8.2,3.3-9.3c-3.3-3.4-1.3-6.6,2.2-8.3
	c2.8-1.4,3-4.5,1.7-6.7c1.3-0.3,2.6-0.8,3.8-1.6c2.7-1.8,3.7-5.1,6.7-6.4c1.5-0.7,2.2-1.8,2.4-3c2.9-0.2,5.7-0.9,7.9-2.8
	c1.3-1.1,2.3-2.4,3.2-3.8c1.4-0.3,2.8-0.9,4.1-1.7c1.8-1.1,2.9-3.6,2.4-5.7c3.1-2.7,5.9-5.7,9.6-7.8c3.2-1.8,5.1-4.1,6.8-7.3
	c1.3-2.4,0.6-5.5-1.8-6.8c-3.6-2-7.1-1.2-11-0.9c-0.4,0-0.9,0.1-1.3,0.1c2.2-2.8,3.5-6.8,2.4-10.2c-0.1-0.4-0.3-0.8-0.5-1.3
	c0.1-0.1,0.2-0.2,0.3-0.3c2.6-2.8,1.1-7.4-2-8.4c0.1-0.1,0.1-0.2,0.2-0.3c1.2-1.6,2.8-2.9,3.9-4.6c0.7-1.1,1.2-2.7,2.5-2.9
	c5.6-1,4.2-10-1.3-9.8c-11,0.3-20.5,5.5-29.2,11.8c-4.8,3.5-9.2,7.3-13.8,10.9c-1.4,1.1-2.7,2.1-3.9,3.3c-3.8-1.4-2.2,7.5-5.8,3.7
	c-3.3-3.5-5.2,0.6-5.1,0.9c-2-0.8,0.5,2.9-1.5,4.2c-6.4,4.1-12.1,12.9-15.6,19.3c-1.5,2.7-2.9,5.4-4.6,8c-2.9-1.2-6.1-1-8.7,1.4
	c-3.8,3.4-3.1,7.5-2.3,11.9c-2.2,2.7-4.2,5.6-5.9,8.8c-0.1,0.1-0.1,0.2-0.2,0.4c-0.1-0.1-0.2-0.3-0.3-0.4c-2-2-5-1.8-7.1,0
	c-2.9,2.5-3.9,7.2-4.1,10.9c-0.1,1,0.3,1.9,0.8,2.7c0,0.2,0,0.3,0,0.5c-0.1,0.1-0.1,0.1-0.2,0.2c-2.9,3.4-4.6,7.3-6,11.5
	c-9.4,4.5-16.5,14-17.6,24.4c-0.3,2.8-0.2,5.7-0.5,8.6c-0.9,9.1-5.4,17.4-9,25.7c-1.8,4.1-3.5,8.4-4.3,12.8
	C44,222.3,44.5,225.5,43.9,228.4z M178.9,87.6c0.2-0.5,0.4-1,0.6-1.5c0.4,0,0.8,0,1.3-0.1C180.1,86.5,179.5,87,178.9,87.6z
	 M173.6,56.7c0,0.3,0,0.6,0,0.9c-3.8,0.9-7.6,1.8-11.3,3c1.4-1.1,2.8-2.2,4.3-3.2c2.6-1.8,5.2-3.5,8-5
	C173.9,53.7,173.6,55.2,173.6,56.7z M158.5,71.5c0.9-0.4,1.9-0.7,2.8-1c3.6-1.2,7.3-2.1,11-3c-0.3,1.2-0.5,2.5-0.8,3.7
	c-1,0.6-2,1.2-2.9,2C165.4,72,161.9,71.6,158.5,71.5z M109.9,116c0,0.1,0,0.2,0,0.4c-0.8,1.3-1.3,2.7-1.3,4.3c0,1,0.2,1.9,0.6,2.7
	c0,0.3-0.1,0.6-0.1,0.9c-0.3,2.7-0.4,5.2-0.2,7.6c-2.4,2.9-5.2,5.4-7.6,8.4c-1,1.2-1.8,2.5-2.4,3.9l-2.6-1.8
	c1.3-2.6,3.7-4.6,5.3-7.1c2.5-4,3.8-8.5,5.6-12.9c0.7-1.9,1.4-3.6,1.8-5.5C109.2,116.7,109.6,116.4,109.9,116z M134.6,91.3
	c-4.4,3.6-8,8.2-10.5,12.8c-0.4,0.8-0.6,1.7-0.6,2.5c-1,0.5-2,1-3,1.6c0-3.3,0.1-7.3,2.5-8.8c3.5-2.2,6.7-4.2,9.9-6.8
	C133.4,92.1,134,91.7,134.6,91.3C134.6,91.3,134.6,91.3,134.6,91.3z M122.8,118.5c1.6-0.9,3.3-1.7,4.9-2.6c0.1,0,0.2-0.1,0.4-0.1
	c0.3,0.5,0.5,1,0.8,1.5c0.9,1.7,1.8,2.9,2.9,3.9c-0.3,0-0.7-0.1-1-0.2c-2.7-0.6-5.4-1.2-8.1-1.8c0-0.2-0.1-0.4-0.1-0.5
	C122.6,118.6,122.7,118.6,122.8,118.5z M123.3,136c-1.2,0.5-2.5,0.9-3.9,1.2c-0.1-0.6-0.3-1.3-0.4-1.9c1.2-1.8,2.3-3.8,3-5.8
	c2,0.5,4.1,0.9,6.1,1.2c1.9,0.3,3.8,0.4,5.6,0.4c-1.9,1.6-3,3.7-3.1,5.9c-0.6,0.4-1.2,0.7-1.8,1.1
	C127.8,136.3,125.1,135.3,123.3,136z M107.4,150.2c1.1-0.8,2.5-1.3,4.1-1.8c0.3,1.8,0.6,3.6,1,5.4L107.4,150.2z"/>
<path fill="#FFFFFF" stroke="#3B4167" stroke-width="2" stroke-miterlimit="10" d="M83,232.5c-3.3,0.6-6.5,1.2-9.5,1.8
	c-2.1-2.6-4.2-5.8-5.6-9.6c-0.3-0.8-0.5-1.5-0.7-2.3c5-1.2,9.7-1.9,14.2-2.3C82.9,224.5,83.2,228.8,83,232.5z"/>
<path fill="#FFFFFF" stroke="#3B4167" stroke-width="2" stroke-miterlimit="10" d="M87.7,225c1.1-2.1,2.4-3.9,3.7-5.6
	c3.6-0.2,7.2-0.3,10.9-0.6c-0.2,3.3-0.9,7.3-2.6,11.2c-4.7,0.6-9.6,1.3-14.4,2C85.8,229.8,86.6,227.4,87.7,225z"/>
<path fill="#FFFFFF" stroke="#3B4167" stroke-width="2" stroke-miterlimit="10" d="M117.9,215.3c-4.5,6.1-10.9,9.5-12.8,10.4
	c-0.3,0.1-0.7-0.1-0.7-0.4c-0.1-1.1-0.2-3.5,0.1-6.6c1.3-0.1,2.6-0.2,4-0.4C112.6,218,115.6,216.8,117.9,215.3z"/>
<path fill="#FFFFFF" stroke="#3B4167" stroke-width="2" stroke-miterlimit="10" d="M66.9,236c-1.9,0.5-3.6,1.1-5.1,1.7
	c-0.5,0.2-1.1,0.4-1.6,0.7c-1.7-2.8-3.8-5.2-5.8-7.1c-0.7-1.2-1.4-2.5-1.9-3.9c1.7-0.8,3.6-1.5,5.7-2.2c2.7-0.9,5.3-1.7,7.7-2.3
	C67.2,227.5,67.2,232.3,66.9,236z"/>
<path fill="#FFFFFF" stroke="#3B4167" stroke-width="2" stroke-miterlimit="10" d="M54.3,231.1c2,1.9,4.1,4.3,5.8,7.1
	c-4.4,1.9-8.6,4.5-12,7.5c-2.3-5.3-2.7-10.7-2.6-14.7c1.5-1,3.2-2,5.2-3C51.8,228.9,53.1,229.9,54.3,231.1z"/>
<path fill="#FFFFFF" stroke="#3B4167" stroke-width="2" stroke-miterlimit="10" d="M67,305.1c3.4,1.2,7.3,3,10.7,5.9
	c0.4,0.3,0.7,0.6,1.1,1c-3.4,2-6.4,4.1-8.1,5.9c-1,1.1-2,2.3-2.8,3.5c-3-2.7-5.3-5.9-6.9-8.9C62.5,310.1,64.4,307.6,67,305.1z"/>
<path fill="#FFFFFF" stroke="#3B4167" stroke-width="2" stroke-miterlimit="10" d="M76,298.7c1.9,3.6,2.8,6.8,3.2,8.2
	c0.1,0.4-0.2,0.7-0.6,0.7c-1.7-0.2-6.2-0.8-11.2-2.8c0.2-0.2,0.3-0.3,0.5-0.5C70.4,302.3,73.1,300.4,76,298.7z"/>
<path fill="#FFFFFF" stroke="#3B4167" stroke-width="2" stroke-miterlimit="10" d="M83,309.7c-2.8-4.6-4.1-8.9-4.6-10.6
	c-0.1-0.4,0.2-0.7,0.6-0.7c2.4,0.2,10.1,1.3,17,5.9c-0.2,0-0.3,0.1-0.5,0.1C92.5,305.2,87.7,307.2,83,309.7z"/>
<path fill="#FFFFFF" stroke="#3B4167" stroke-width="2" stroke-miterlimit="10" d="M98.6,301.3c0.1,0.4-0.2,0.7-0.6,0.7
	c-2.4-0.2-10.1-1.3-16.9-5.9c4.4-2.1,8.9-3.9,12.9-5.3C96.8,295.3,98.1,299.6,98.6,301.3z"/>
<path fill="#FFFFFF" stroke="#3B4167" stroke-width="2" stroke-miterlimit="10" d="M108.2,286.6c-2.3,6.7-6.4,11.6-7.9,13.2
	c-0.2,0.3-0.7,0.2-0.9-0.1c-0.7-1.4-2.4-5-3.4-9.6c4.6-1.5,8.2-2.5,9.6-2.8C106.4,287.1,107.2,286.9,108.2,286.6z"/>
<path fill="#FFFFFF" stroke="#3B4167" stroke-width="2" stroke-miterlimit="10" d="M110.9,287.7c0.2-0.3,0.7-0.2,0.9,0.1
	c0.7,1.4,2.5,5.1,3.5,9.9c-4.4,1.8-8.8,3.5-12.7,4.8C104.7,295,109.4,289.4,110.9,287.7z"/>
<path fill="#FFFFFF" stroke="#3B4167" stroke-width="2" stroke-miterlimit="10" d="M125.8,280.8c-2.3,6.2-6.1,10.7-7.5,12.2
	c-0.2,0.3-0.7,0.2-0.9-0.1c-0.6-1.2-2-4.1-3-8c3-0.9,6-1.8,8-2.5C123.6,281.9,124.7,281.4,125.8,280.8z"/>
<path fill="#FFFFFF" stroke="#3B4167" stroke-width="2" stroke-miterlimit="10" d="M121.3,217.4c0.1,0.9,0.3,2.7,0.2,5
	c0,1.1-0.1,2.3-0.2,3.6c-3,1.2-7.6,2.5-14,3.2c1.8-3,4-5.4,6.1-7.3c3-2.7,5.9-4.3,7.1-4.9C120.9,216.9,121.2,217,121.3,217.4z"/>
<path fill="#FFFFFF" stroke="#3B4167" stroke-width="2" stroke-miterlimit="10" d="M131.8,282.3c0.1,0.9,0.3,2.7,0.2,5
	c0,1.1-0.1,2.3-0.2,3.6c-3,1.2-8.7,5.9-15.1,6.6c1.2-3.3,5.1-8.8,7.3-10.7c3-2.7,5.9-4.3,7.1-4.9C131.4,281.8,131.8,282,131.8,282.3
	z"/>
<g>
	<path fill="#FFFFFF" stroke="#3B4167" stroke-width="2" stroke-miterlimit="10" d="M88.8,127c-0.3,9.7-5.7,17.6-7.4,19.8
		c-0.2,0.3-0.7,0.3-0.9,0c-1.5-2.3-6.3-10.5-6-20.2c0.3-9.7,5.7-17.6,7.4-19.8c0.2-0.3,0.7-0.3,0.9,0C84.3,109,89.2,117.3,88.8,127z
		"/>
	<path fill="#FFFFFF" stroke="#3B4167" stroke-width="2" stroke-miterlimit="10" d="M63.6,149.4c-0.3-9.7,4.6-17.9,6-20.2
		c0.2-0.3,0.6-0.3,0.9,0c1.6,2.2,7,10.1,7.3,19.8c0.1,2.2-0.1,4.2-0.5,6.2c-4.5,0-8.7,0.3-12.7,1.1
		C64.1,154.1,63.7,151.8,63.6,149.4z"/>
	<path fill="#FFFFFF" stroke="#3B4167" stroke-width="2" stroke-miterlimit="10" d="M56,158.7c1.3-3.3,2.8-5.8,3.5-6.9
		c0.2-0.3,0.6-0.3,0.9,0c0.6,0.8,1.7,2.4,3,4.7c-1.3,0.3-2.7,0.6-3.9,1C58.2,157.9,57.1,158.3,56,158.7z"/>
	<path fill="#FFFFFF" stroke="#3B4167" stroke-width="2" stroke-miterlimit="10" d="M101.5,107.5c-1.2,9.6-7.4,17-9.2,19
		c-0.2,0.3-0.7,0.2-0.9-0.1c-1.2-2.4-5.3-11.1-4.1-20.7c1.2-9.6,7.4-17,9.2-19c0.2-0.3,0.7-0.2,0.9,0.1
		C98.7,89.2,102.7,97.9,101.5,107.5z"/>
	<path fill="#FFFFFF" stroke="#3B4167" stroke-width="2" stroke-miterlimit="10" d="M105,106.7c-0.3,0.2-0.7,0.1-0.8-0.2
		c-1-2.5-4-11.6-1.6-21c2.3-9.4,9.3-16,11.3-17.8c0.3-0.2,0.7-0.1,0.8,0.2c1,2.5,4,11.6,1.6,21C114,98.4,107,105,105,106.7z"/>
	<path fill="#FFFFFF" stroke="#3B4167" stroke-width="2" stroke-miterlimit="10" d="M119.6,89c-0.3,0.2-0.7,0-0.8-0.3
		c-0.6-2.6-2.4-12.1,1.1-21.1c3.5-9,11.3-14.6,13.6-16.1c0.3-0.2,0.7,0,0.8,0.3c0.6,2.6,2.4,12.1-1.1,21.1
		C129.7,81.8,121.9,87.5,119.6,89z"/>
	<path fill="#FFFFFF" stroke="#3B4167" stroke-width="2" stroke-miterlimit="10" d="M137,73.2c-0.3,0.2-0.7,0-0.8-0.4
		c-0.3-2.7-1.2-12.2,3.3-20.8s12.8-13.4,15.2-14.6c0.3-0.2,0.7,0,0.8,0.4c0.3,2.7,1.2,12.2-3.3,20.8C147.7,67.2,139.4,72,137,73.2z"
		/>
	<path fill="#FFFFFF" stroke="#3B4167" stroke-width="2" stroke-miterlimit="10" d="M155.4,59.2c-0.3,0.1-0.7-0.1-0.7-0.5
		c0-2.7,0.3-12.3,5.7-20.3c5.4-8,14.3-11.8,16.8-12.8c0.3-0.1,0.7,0.1,0.7,0.5c0,2.7-0.3,12.3-5.7,20.3
		C166.7,54.4,157.9,58.3,155.4,59.2z"/>
	<path fill="#FFFFFF" stroke="#3B4167" stroke-width="2" stroke-miterlimit="10" d="M174.9,48.9c-0.4,0.1-0.7-0.2-0.7-0.5
		c0.2-2.7,1.3-12.2,7.4-19.7c6.1-7.5,15.2-10.5,17.8-11.3c0.4-0.1,0.7,0.2,0.7,0.5c-0.2,2.7-1.3,12.2-7.4,19.7
		C186.6,45.1,177.5,48.1,174.9,48.9z"/>
	<path fill="#FFFFFF" stroke="#3B4167" stroke-width="2" stroke-miterlimit="10" d="M198.3,40.9c-0.7,0.2-2,0.7-3.5,1.4
		c-1.6-0.4-2.8-0.7-3.5-1c-0.4-0.1-0.5-0.6-0.3-0.9c1.8-2.3,8.7-10.1,18.7-13c10-2.9,20-0.1,22.7,0.9c0.4,0.1,0.5,0.6,0.3,0.9
		c-1.8,2.3-8.7,10.1-18.7,13c-5.5,1.6-11,1.5-15.2,0.9c0.1-0.7,0.1-1.3,0.2-1.7C198.9,41,198.6,40.8,198.3,40.9z"/>
	<path fill="#FFFFFF" stroke="#3B4167" stroke-width="2" stroke-miterlimit="10" d="M105.1,141.7c-1.1-2-4.9-9.4-4.1-17.7
		c0.8-8.3,5.9-14.8,7.4-16.6c0.2-0.2,0.6-0.2,0.7,0.1c1.1,2,4.9,9.4,4.1,17.7c-0.8,8.3-5.9,14.8-7.4,16.6
		C105.7,142,105.3,141.9,105.1,141.7z"/>
	<path fill="#FFFFFF" stroke="#3B4167" stroke-width="2" stroke-miterlimit="10" d="M116.9,123.8c-0.2,0.2-0.6,0.1-0.7-0.2
		c-0.9-2.1-3.7-9.9-1.9-18.1s7.7-14,9.4-15.5c0.2-0.2,0.6-0.1,0.7,0.2c0.9,2.1,3.7,9.9,1.9,18.1
		C124.5,116.3,118.6,122.2,116.9,123.8z"/>
	<path fill="#FFFFFF" stroke="#3B4167" stroke-width="2" stroke-miterlimit="10" d="M129.8,107.9c-0.2,0.2-0.6,0.1-0.7-0.2
		c-0.7-2.2-2.9-10.2-0.4-18.2c2.5-8,8.8-13.3,10.6-14.7c0.2-0.2,0.6-0.1,0.7,0.2c0.7,2.2,2.9,10.2,0.4,18.2
		C138,101.1,131.7,106.5,129.8,107.9z"/>
	<path fill="#FFFFFF" stroke="#3B4167" stroke-width="2" stroke-miterlimit="10" d="M144.8,93.2c-0.3,0.2-0.6,0-0.7-0.3
		c-0.5-2.3-2-10.4,1.1-18.1c3.1-7.7,9.8-12.6,11.8-13.8c0.3-0.2,0.6,0,0.7,0.3c0.5,2.3,2,10.4-1.1,18.1
		C153.5,87.1,146.7,91.9,144.8,93.2z"/>
	<path fill="#FFFFFF" stroke="#3B4167" stroke-width="2" stroke-miterlimit="10" d="M159.5,80.4c-0.3-2.3-0.9-10.6,3.1-17.9
		c4-7.3,11.2-11.4,13.2-12.4c0.3-0.1,0.6,0,0.7,0.4c0.3,2.3,0.9,10.6-3.1,17.9s-11.2,11.4-13.2,12.4
		C159.8,80.9,159.5,80.7,159.5,80.4z"/>
	<path fill="#FFFFFF" stroke="#3B4167" stroke-width="2" stroke-miterlimit="10" d="M186.9,64.5c-4.1,3-8.2,4.5-9.7,5
		c-0.3,0.1-0.6-0.1-0.6-0.5c0.1-2.4,1-10.8,6.3-17.6c3.6-4.7,8.5-7.6,12-9.2c1.5-0.7,2.8-1.2,3.5-1.4c0.3-0.1,0.6,0.1,0.6,0.5
		c0,0.4-0.1,1-0.2,1.7c-0.3,2.4-1,6.5-2.9,10.7"/>
	<path fill="#FFFFFF" stroke="#3B4167" stroke-width="2" stroke-miterlimit="10" d="M93.5,155.9c-1.6-3.3-3.2-7.9-3.2-13.1
		c0.1-8.3,4.6-15.3,6-17.2c0.2-0.3,0.6-0.3,0.7,0c1.3,1.9,5.6,9,5.5,17.3c-0.1,4.8-1.6,9.1-3.1,12.3c-0.3,0.4-0.5,0.7-0.8,1.1
		C97,156.2,95.2,156.1,93.5,155.9z"/>
	<path fill="#FFFFFF" stroke="#3B4167" stroke-width="2" stroke-miterlimit="10" d="M85.8,145c0.2-0.3,0.6-0.3,0.7,0
		c0.9,1.4,3.5,5.5,4.8,10.7c-3.6-0.3-7-0.5-10.4-0.6C82.3,150.2,84.8,146.3,85.8,145z"/>
	<path fill="#FFFFFF" stroke="#3B4167" stroke-width="2" stroke-miterlimit="10" d="M193.3,77.3c-7.9-0.6-14-5.3-15.7-6.6
		c-0.2-0.2-0.2-0.5,0.1-0.7c1.8-1,8-4.2,15.2-4.2c0.5,0,1.1,0,1.6,0.1c0.8,0.1,1.5,0.2,2.3,0.3"/>
	<path fill="#FFFFFF" stroke="#3B4167" stroke-width="2" stroke-miterlimit="10" d="M192.8,81.2c0.2,0.2,0.2,0.5,0,0.7
		c-1.8,1.2-8.6,5.4-16.5,5.4s-14.4-4.2-16.2-5.4c-0.2-0.2-0.2-0.5,0-0.7c1.8-1.2,8.6-5.4,16.5-5.4C184.5,75.8,191,80,192.8,81.2z"/>
	<path fill="#FFFFFF" stroke="#3B4167" stroke-width="2" stroke-miterlimit="10" d="M161.3,98c-7.8,0.9-14.8-2.4-16.7-3.4
		c-0.3-0.1-0.3-0.5-0.1-0.7c1.7-1.5,7.8-6.4,15.7-7.3S175,89,176.9,90c0.3,0.1,0.3,0.5,0.1,0.7C175.3,92.1,169.1,97.1,161.3,98z"/>
	<path fill="#FFFFFF" stroke="#3B4167" stroke-width="2" stroke-miterlimit="10" d="M147.5,111c-7.7,1.8-15-0.9-17-1.7
		c-0.3-0.1-0.3-0.5-0.1-0.7c1.5-1.6,7.1-7.2,14.8-8.9c7.7-1.8,15,0.9,17,1.7c0.3,0.1,0.3,0.5,0.1,0.7
		C160.8,103.7,155.2,109.2,147.5,111z"/>
	<path fill="#FFFFFF" stroke="#3B4167" stroke-width="2" stroke-miterlimit="10" d="M134.6,125.2c-7.5,2.4-15,0.4-17.1-0.2
		c-0.3-0.1-0.4-0.4-0.2-0.7c1.4-1.7,6.5-7.8,14-10.2c7.5-2.4,15-0.4,17.1,0.2c0.3,0.1,0.4,0.4,0.2,0.7
		C147.3,116.8,142.1,122.8,134.6,125.2z"/>
	<path fill="#FFFFFF" stroke="#3B4167" stroke-width="2" stroke-miterlimit="10" d="M123.7,140.8c-7.2,3.1-14.9,1.9-17,1.4
		c-0.3-0.1-0.4-0.4-0.3-0.6c1.2-1.9,5.7-8.3,13-11.5c7.2-3.1,14.9-1.9,17-1.4c0.3,0.1,0.4,0.4,0.3,0.6
		C135.4,131.2,130.9,137.7,123.7,140.8z"/>
	<path fill="#FFFFFF" stroke="#3B4167" stroke-width="2" stroke-miterlimit="10" d="M98.7,156.4c0.2-0.3,0.5-0.7,0.8-1.1
		c2.1-2.8,5.5-6.6,10.2-9c7.1-3.5,14.7-2.7,16.9-2.4c0.3,0,0.4,0.4,0.3,0.6c-1.1,1.9-5.2,8.7-12.3,12.2c-0.5,0.3-1.1,0.5-1.6,0.7
		C108.2,157.2,103.4,156.8,98.7,156.4z"/>
	<path fill="#FFFFFF" stroke="#3B4167" stroke-width="2" stroke-miterlimit="10" d="M207.2,70.4c0.5-0.2,1.1-0.5,1.6-0.7
		c0.1,0,0.2-0.1,0.3-0.1c4.6-1.6,9.2-1.7,12.7-1.3c2,0.2,3.6,0.5,4.7,0.8c0.3,0.1,0.6,0.1,0.8,0.2c0.3,0.1,0.4,0.4,0.2,0.7
		c-0.2,0.2-0.4,0.5-0.6,0.8c-0.7,1-1.9,2.3-3.4,3.8c-2.5,2.4-6,5.1-10.3,6.7c-0.1,0-0.2,0.1-0.2,0.1c-0.9,0.3-1.8,0.6-2.7,0.8
		c-5.1,1.2-10,0.8-13.1,0.2c-1.2-0.2-2.1-0.4-2.6-0.6c-0.3-0.1-0.4-0.4-0.2-0.7c0.3-0.4,0.8-1.1,1.5-1.9c0.5-0.6,1.2-1.3,1.9-2.1"/>
	<path fill="#FFFFFF" stroke="#3B4167" stroke-width="2" stroke-miterlimit="10" d="M210.8,89.8c-1.1,0.8-4.3,2.9-8.6,4
		c-1.3,0.3-2.6,0.6-4,0.7c-0.6,0.1-1.1,0.1-1.7,0.1c-6.9,0-12.7-3.6-14.3-4.7c0,0-0.1-0.1-0.1-0.1c0,0,0,0,0-0.1
		c-0.1-0.2,0-0.3,0.1-0.4c1.3-0.9,5.7-3.7,11.2-4.6c1-0.2,2-0.3,3.1-0.3c0.5,0,1,0,1.5,0.1c6.2,0.4,11.3,3.6,12.8,4.6
		C211,89.3,211,89.7,210.8,89.8z"/>
	<path fill="#FFFFFF" stroke="#3B4167" stroke-width="2" stroke-miterlimit="10" d="M196.3,101.1c-0.9,0.6-3,1.8-5.9,2.8
		c-1.1,0.4-2.2,0.7-3.5,1c-1.6,0.3-3.3,0.5-5.1,0.4c-4.4-0.2-8.2-1.8-10.8-3.2c-1.5-0.9-2.7-1.7-3.2-2.1c-0.2-0.2-0.2-0.5,0-0.6
		c0.2-0.1,0.5-0.3,0.8-0.5c2.2-1.3,6.8-3.5,12.3-3.7c0.5,0,0.9,0,1.4,0c1.1,0,2.2,0.2,3.2,0.4c5.4,1.1,9.6,3.9,10.9,4.9
		C196.6,100.6,196.6,100.9,196.3,101.1z"/>
	<path fill="#FFFFFF" stroke="#3B4167" stroke-width="2" stroke-miterlimit="10" d="M183.3,110c-0.7,0.5-2.3,1.7-4.4,2.7
		c-1,0.5-2.2,1-3.5,1.5c-1.9,0.7-4,1.2-6.2,1.3c-3.3,0.2-6.4-0.5-8.9-1.4c-2.7-0.9-4.8-2.1-5.6-2.6c-0.2-0.1-0.2-0.5,0-0.6
		c0.3-0.3,0.9-0.7,1.6-1.1c2.5-1.6,7-4,12.2-4.4c0.1,0,0.2,0,0.2,0c1.7-0.1,3.4,0,4.9,0.3c4.7,0.8,8.4,2.9,9.6,3.7
		C183.4,109.5,183.5,109.8,183.3,110z"/>
	<path fill="#FFFFFF" stroke="#3B4167" stroke-width="2" stroke-miterlimit="10" d="M170,119.3c-0.5,0.5-1.4,1.4-2.7,2.4
		c-0.8,0.7-1.8,1.3-2.9,2c-2.1,1.3-4.6,2.5-7.5,3.1c-1.1,0.2-2.2,0.4-3.3,0.4c-2.7,0.1-5.2-0.3-7.2-0.8c-2.1-0.5-3.6-1.1-4.4-1.4
		c-0.2-0.1-0.3-0.4-0.1-0.6c0.2-0.2,0.6-0.6,1-1c0.8-0.8,2-1.8,3.5-2.8c2.3-1.5,5.2-3.1,8.6-3.8c0.9-0.2,1.7-0.3,2.6-0.4
		c1.8-0.1,3.6,0,5.2,0.2c3.4,0.5,6.1,1.5,7.2,2C170.1,118.8,170.2,119.2,170,119.3z"/>
	<path fill="#FFFFFF" stroke="#3B4167" stroke-width="2" stroke-miterlimit="10" d="M130,146.6c1.2-0.9,2.5-1.7,4-2.3
		c2.7-1.2,5.5-1.7,8-1.9c3.2-0.2,5.9,0.2,6.9,0.4c0.3,0,0.4,0.3,0.2,0.6c-0.3,0.6-1,1.6-2,2.8c-1.6,2.1-4.1,4.7-7.5,6.6
		c-0.5,0.3-1.1,0.6-1.7,0.9c-6.3,2.8-13.1,1.9-15,1.5c-0.3,0-0.4-0.3-0.2-0.6C123.7,153.2,126.1,149.5,130,146.6z"/>
	<path fill="#FFFFFF" stroke="#3B4167" stroke-width="2" stroke-miterlimit="10" d="M146.9,139.7c-2.6,0.7-5.1,0.9-7.3,0.8
		c-3.4-0.2-6.2-0.9-7.3-1.3c-0.2-0.1-0.3-0.4-0.2-0.6c0.4-0.4,1-1.2,1.9-2.1c1.1-1.1,2.5-2.4,4.2-3.5c1.8-1.2,3.9-2.4,6.2-3.1
		c1.6-0.5,3.2-0.7,4.7-0.9c2.5-0.2,4.9,0.1,6.7,0.4c1.7,0.3,2.9,0.7,3.6,0.9c0.2,0.1,0.3,0.4,0.2,0.6c-0.2,0.3-0.5,0.7-0.9,1.1
		c-0.7,0.8-1.7,1.8-2.9,2.9c-2.1,1.8-5,3.7-8.4,4.8C147.2,139.7,147,139.7,146.9,139.7z"/>
	<path fill="#FFFFFF" stroke="#3B4167" stroke-width="2" stroke-miterlimit="10" d="M195.8,53.7c2.3-1.4,5-2.7,7.9-3.5
		c10-2.9,20-0.1,22.7,0.9c0.4,0.1,0.5,0.6,0.3,0.9c-1.8,2.3-8.7,10.1-18.7,13c-3.9,1.1-7.8,1.4-11.3,1.2c-0.7-0.1-1.5-0.2-2.3-0.3
		c-0.5,0-1.1-0.1-1.6-0.1c-2.5-0.3-4.5-0.8-6-1.2"/>
</g>
<path fill="#FFFFFF" stroke="#3B4167" stroke-width="2" stroke-miterlimit="10" d="M211.1,73.7c-1.9,1.1-8.8,4.8-17,4
	c-8.2-0.8-15.1-5.7-17-7.2c-0.3-0.2-0.3-0.6,0-0.7c1.9-1.1,8.8-4.8,17-4c8.2,0.8,15.1,5.7,17,7.2C211.4,73.2,211.4,73.6,211.1,73.7z
	"/>
<path fill="#FFFFFF" stroke="#3B4167" stroke-width="2" stroke-miterlimit="10" d="M176.3,70.3c0.1-2.9,0.8-10.5,5.4-17.3
	c5.4-8,14-10.9,16.5-12c0.3-0.1,0.7,0,0.7,0.3c0,2.3-0.6,10.5-6.6,17.9c-2.8,3.5-8.7,8.6-15.6,11.1"/>
<g>
	<g>
		<path fill="#FFFFFF" stroke="#3B4167" stroke-width="1.5" stroke-miterlimit="10" d="M196.4,447.2c13.1,7.5,35.5,15.4,49.1,19.4
			c5.6,1.6,6.9-8.6,2.7-9.6c-12.9-3.2-26.2-6.9-38.3-12.6c-5.8-2.7-4.6-4.9-13.8,0.1L196.4,447.2z"/>
	</g>
	<g>
		<path fill="#FFFFFF" stroke="#3B4167" stroke-width="1.5" stroke-miterlimit="10" d="M206.9,442.9c12.9,5.9,26.1,10,40.2,13.5
			c6.3,1.5,7-8.4,2.7-9.3c-13-2.7-26.8-6.1-38.9-11.6C205.1,432.8,201.1,440.3,206.9,442.9L206.9,442.9z"/>
	</g>
	<g>
		<path fill="#FFFFFF" stroke="#3B4167" stroke-width="1.5" stroke-miterlimit="10" d="M208.7,433.6c12.9,5.8,26.5,9.6,40.2,13.4
			c6.9,1.9,6.5-8.4,2.7-9.2c-12.9-3-26.4-6.4-38.5-11.8C207.3,423.3,202.8,430.9,208.7,433.6L208.7,433.6z"/>
	</g>
	<g>
		<path fill="#FFFFFF" stroke="#3B4167" stroke-width="1.5" stroke-miterlimit="10" d="M211.4,424.9c12.5,5.5,25.5,8.5,38.9,12.5
			c6.9,2,7.4-8.2,2.7-8.5c-12.9-0.8-25-6.6-36.7-11.8C210.6,414.6,205.7,422.4,211.4,424.9L211.4,424.9z"/>
	</g>
</g>
<polygon fill="#384465" points="37,186.8 34.1,176.3 38.7,163 33.7,174.8 28.7,156.3 32.2,174.8 20.7,167.4 32.2,176.3 35.7,188.2 
	36.7,189.6 24.2,181.1 35.3,190.7 38.7,193.4 "/>
<polygon fill="#384465" points="31.8,226.8 29.7,219.8 34.4,212.3 29.4,218.3 26.1,208.2 28.3,203.3 25.7,206.3 22.6,195 
	24.8,206.7 17.5,203.6 24.9,208.4 28.1,219.5 20.2,216.3 28.4,221.1 29.9,225.4 "/>
<polygon fill="#384465" points="40.7,269.6 29.8,256.3 30.2,244.1 28.7,254.3 21.8,245.2 21.8,236.5 20.7,242.9 13.7,231.7 
	18.8,241.9 12.4,238.7 20.3,245 27,254.9 14.6,250.6 27.7,256.8 37.6,269.2 24.1,265.1 41.5,272.2 "/>
<polygon fill="#384465" points="52,309.7 44,303.2 45,287.5 42.7,301.1 34,293.1 34,280.8 32.6,290.8 25.6,283.6 25.6,276.6 
	24.5,282 13.6,269.2 22.8,282.3 18.7,281.5 24.6,284.7 31.3,292.3 20,293.3 33.3,294.5 42.5,303.2 31.2,307 43.6,305.1 50.6,311 
	47.7,313.3 52,312.3 "/>
<polygon fill="#384465" points="67.3,345.7 56.8,338.4 55.6,327.7 55.2,336.7 46.9,330.2 46.2,325.8 45.9,329.3 45.6,329 37.7,321 
	45.2,329.8 40.2,329 46.2,330.9 54.2,337.7 43.1,337.4 55.7,339.2 65.5,346.7 53.2,347.5 69.3,348.7 "/>
<polygon fill="#384465" points="83.8,375.8 80.5,366.5 82.6,375.8 71.9,371.1 68.2,362.9 70.3,370.3 62.8,367.2 59.2,361 
	61.5,366.6 49.2,360.4 60.1,367.2 52.8,370.1 61.8,368.1 70,372.2 61.2,378.4 71.4,373 78.5,376.3 "/>
<polygon fill="#384465" points="120.9,396.3 111.8,395.8 103.7,388 109.9,395.4 95.7,394.3 89.9,388 93.8,393.8 83.8,392.6 
	79.5,388 81.9,392.2 71.7,390 80.7,392.7 77.4,394.3 83.4,393.6 93.2,395.1 83.8,401.1 95.2,395.8 109.3,397.3 98.5,404 
	111.7,398.1 122.3,398.2 "/>
<path fill="#FFFFFF" stroke="#3B4167" stroke-width="3" stroke-miterlimit="10" d="M35.6,246.6c0,0-0.1-13.5,23.5-21.5
	c19.7-6.7,32.7-4.8,50.3-6.7c12.3-1.3,14.5-8.4,16.7-14.2l16.8-39.2l5-12.5c0,0-11.2,6-32,5s-40.5-4.8-55.5,0
	c-15,4.8-20.3,11.7-20.3,11.7s-3,14.3-4.5,28.3S32.8,231.4,35.6,246.6z"/>
<path fill="#FFFFFF" stroke="#3B4167" stroke-width="3" stroke-miterlimit="10" d="M58.6,326.3C58.6,326.3,58.6,326.3,58.6,326.3
	c-0.1-1.1-0.8-12.5,10.4-22c11.8-10,33.5-16,37.6-17s12.6-3.4,16.8-4.9s7.5-3.8,8-9.9s-3.8-49.4-3.8-49.4s-5,4.5-19.8,6.1
	s-35.1,4.5-45.1,8.4s-19.6,11.6-21,19.3s2.4,29.1,5.1,38.5C49.5,304.4,58,324.8,58.6,326.3z"/>
<path fill="#FFFFFF" stroke="#3B4167" stroke-width="1.5" stroke-miterlimit="10" d="M228,70c-0.1,0.2-0.3,0.4-0.5,0.7l18.5,77.7
	l4.5-9.7l-11.4-72.1c-3.8,0.8-7.5,1.7-11.2,2.8C228.1,69.5,228.2,69.8,228,70z"/>
<polygon fill="#FFFFFF" points="265.4,102.2 301.7,176.2 381.5,187.3 322.8,243.8 336.8,322.2 265.4,284.9 194.1,322.2 208.9,243.8 
	149.3,187.3 230.7,176.2 "/>
<polygon fill="#FFFFFF" stroke="#3B4167" stroke-width="2" stroke-miterlimit="10" points="265.4,114.1 298.1,180.7 370.1,190.7 
	317.1,241.7 329.8,312.4 265.4,278.7 201.1,312.4 214.4,241.7 160.8,190.7 234.1,180.7 "/>
<g>
	<line fill="none" stroke="#4D5B9D" stroke-width="1.5" stroke-miterlimit="10" x1="265.4" y1="114.1" x2="265.4" y2="278.7"/>
	<line fill="none" stroke="#4D5B9D" stroke-width="1.5" stroke-miterlimit="10" x1="214.4" y1="241.7" x2="370.1" y2="190.7"/>
	<line fill="none" stroke="#4D5B9D" stroke-width="1.5" stroke-miterlimit="10" x1="160.8" y1="190.7" x2="317.1" y2="241.7"/>
	<line fill="none" stroke="#4D5B9D" stroke-width="1.5" stroke-miterlimit="10" x1="298.1" y1="180.7" x2="201.1" y2="312.4"/>
	<line fill="none" stroke="#4D5B9D" stroke-width="1.5" stroke-miterlimit="10" x1="234.1" y1="180.7" x2="329.8" y2="312.4"/>
</g>
<polygon fill="#384465" points="160.8,190.7 214.4,241.7 201.1,312.4 264.9,225.1 241.1,216.9 "/>
<polygon fill="#384465" points="265.4,114.1 265.5,223.1 234.1,180.7 "/>
<polygon fill="#384465" points="266.8,225.1 317.1,241.7 370.1,190.7 "/>
<polygon fill="#384465" points="265.9,224.5 265.4,278.7 328.9,311.2 "/>
<path fill="#FFFFFF" stroke="#3B4167" stroke-width="2" stroke-miterlimit="10" d="M144.7,415.2c-0.3-0.5-10.6-9.6-10.6-9.6
	s-4.9-1.3-9.5,0c-1.4,0.4-3,1-4.4,1.5c-1-1.2-3.1-3.2-5.6-3.7c-3.6-0.7-6.1-0.1-7.6,0.5c-1.5,0.7-2.9,4.3-2.9,4.3s-3.8-1.1-7,0.5
	s-5,6-4.1,8.9c0.8,3,4.5,5.5,4.5,5.5l1,0.6c0,0-1.2,2.2-1,4.2c0.2,2,1.7,3.6,4.2,4.4c1.4,0.4,5.7,0.6,8.9-0.8c0,0-1,1.8,0.4,4.1
	c1.4,2.4,7,4.1,12.7,1.5c5.8-2.6,11.9-4.6,11.9-4.6l10.1-9.5C145.6,423.1,145,415.7,144.7,415.2z"/>
<path fill="#FFFFFF" stroke="#3B4167" stroke-width="2" stroke-miterlimit="10" d="M147.9,419.7c0,0-6.5-0.4-8,2.1s-1.5,3.5-1.5,3.5
	s-6.3-0.9-9.4,1.2s-5.3,9.5,0,11.9s2.5,1.2,2.5,1.2s-1.2,4.4,2.7,7.5s9.6,3.4,9.6,3.4l4.7,0c0,0-0.7,3.9,2.4,6s8.4,2.3,12.3,0
	s5.6-3.5,5.6-3.5s0.5,0.5,4,2.3s6.8,3.3,10.3,0.7s6-6.6,6-6.6s-5.5-12.8-5.5-13.2C183.5,435.8,147.9,419.7,147.9,419.7z"/>
<polygon fill="#384465" points="132.5,425.1 123.6,414.6 128.9,423.2 119.2,420.2 113,414.1 116.7,419.7 100.7,415.6 114.1,420.6 
	107.4,421.8 117.5,421.8 127.6,424 117.5,429.5 128.1,425.9 130.6,426.1 "/>
<polygon fill="#384465" points="171.5,441.2 158.9,439 151.4,431.2 156.3,438.5 136.1,433.8 154.8,439.6 145.6,442.6 157.4,440.3 
	171,443.1 160,450.6 175.8,443.8 173.5,442.1 "/>
<g>
	<g>
		<path fill="#FFFFFF" stroke="#3B4167" stroke-width="1.5" stroke-miterlimit="10" d="M334.8,447.2c-13.1,7.5-35.5,15.4-49.1,19.4
			c-5.6,1.6-6.9-8.6-2.7-9.6c12.9-3.2,26.2-6.9,38.3-12.6c5.8-2.7,4.6-4.9,13.8,0.1L334.8,447.2z"/>
	</g>
	<g>
		<path fill="#FFFFFF" stroke="#3B4167" stroke-width="1.5" stroke-miterlimit="10" d="M324.2,442.9c-12.9,5.9-26.1,10-40.2,13.5
			c-6.3,1.5-7-8.4-2.7-9.3c13-2.7,26.8-6.1,38.9-11.6C326.1,432.8,330.1,440.3,324.2,442.9L324.2,442.9z"/>
	</g>
	<g>
		<path fill="#FFFFFF" stroke="#3B4167" stroke-width="1.5" stroke-miterlimit="10" d="M322.5,433.6c-12.9,5.8-26.5,9.6-40.2,13.4
			c-6.9,1.9-6.5-8.4-2.7-9.2c12.9-3,26.4-6.4,38.5-11.8C323.9,423.3,328.3,430.9,322.5,433.6L322.5,433.6z"/>
	</g>
	<g>
		<path fill="#FFFFFF" stroke="#3B4167" stroke-width="1.5" stroke-miterlimit="10" d="M319.8,424.9c-12.5,5.5-25.5,8.5-38.9,12.5
			c-6.9,2-7.4-8.2-2.7-8.5c12.9-0.8,25-6.6,36.7-11.8C320.5,414.6,325.5,422.4,319.8,424.9L319.8,424.9z"/>
	</g>
</g>
<path fill="#384465" d="M166.2,363.8c0,0-12.7-11.9-18.6-29.7c-3.5-10.5-40.3,32-40.3,32s12.1,20.2,22,29.9S166.2,363.8,166.2,363.8
	z"/>
<g>
	<path fill="#FFFFFF" d="M144.6,379.7c-0.6-0.6-14.7-14-23-33.1l5.5-2.4c7.8,17.9,21.4,31,21.6,31.1L144.6,379.7z"/>
</g>
<g>
	<path fill="#FFFFFF" d="M153.8,375.7c-0.6-0.6-14.7-14-23-33.1l5.5-2.4c7.8,17.9,21.4,31,21.6,31.1L153.8,375.7z"/>
</g>
<g>
	<path fill="#FFFFFF" d="M135.8,384.4c-0.6-0.6-14.7-14-23-33.1l5.5-2.4c7.8,17.9,21.4,31,21.6,31.1L135.8,384.4z"/>
</g>
<g>
	<path fill="#FFFFFF" d="M129.8,394.1c-0.6-0.6-14.7-14-23-33.1l5.5-2.4c7.8,17.9,21.4,31,21.6,31.1L129.8,394.1z"/>
</g>
<g>
	<path fill="#FFFFFF" d="M164,372.7c-0.6-0.6-14.7-14-23-33.1l5.5-2.4c7.8,17.9,21.4,31,21.6,31.1L164,372.7z"/>
</g>
<path fill="#FFFFFF" stroke="#3B4167" stroke-width="3" stroke-miterlimit="10" d="M136.4,284.9c0-0.1-0.1-0.1-0.2,0
	c-0.8,0.9-5.4,6-13.6,10c-9,4.3-20,8.3-26.1,9.6s-20.1,8.6-24.8,13.4s-7.1,12.3-7.5,17l-0.3,3.2c0,0,0,0,0,0.1
	c0.3,0.6,6.3,12,12.7,18.9c6.6,7.1,16.2,14.3,23.3,18.2c5.9,3.2,8.1,4.2,8.6,4.5c0.1,0,0.2,0,0.1-0.1c-0.2-1.5-1-12.5,10.2-20.9
	c12.1-9.1,26.5-16.9,30.1-19.3c3.6-2.4,4-2.3,5.6-4.8c1.6-2.5,1.5-3.9,0-9.1c-1.5-5.2-7-15.8-9.3-20.6
	C143.1,300.2,137.3,287.7,136.4,284.9z"/>
<path fill="none" stroke="#3B4167" stroke-width="2.5" stroke-miterlimit="10" d="M411.3,393.3c-17.8-18.2-41.7-32.9-69.6-42.5
	c-23.1-8-49-12.5-76.2-12.5s-53.1,4.5-76.2,12.5c-27.8,9.6-51.8,24.3-69.6,42.5c5.6,9.1,13.1,17.3,20.8,25.2
	c7.3,6.9,15.5,13.1,24.5,18.7c8.3,5.1,17.2,9.6,26.7,13.4c21.1-12.8,46.5-20.2,73.8-20.2s52.7,7.4,73.8,20.2
	c9.5-3.8,18.4-8.3,26.7-13.4c9-5.5,17.2-11.8,24.5-18.7v0C398.6,410.8,405.6,402.4,411.3,393.3z"/>
<g>
	<path fill="#FFFFFF" stroke="#3B4167" stroke-width="2" stroke-miterlimit="10" d="M264.9,368.4c58.2,0,107.5,21,125,50.1
		c8.1-7.7,15.1-16.1,20.8-25.2c-17.8-18.2-41.7-32.9-69.6-42.5c-23.1-8-49-12.5-76.2-12.5s-53.1,4.5-76.2,12.5
		c-27.8,9.6-51.8,24.3-69.6,42.5c5.6,9.1,12.6,17.5,20.8,25.2C157.4,389.4,206.8,368.4,264.9,368.4z"/>
	<path fill="#FFFFFF" stroke="#3B4167" stroke-width="2" stroke-miterlimit="10" d="M264.9,399.7c44.9,0,83.5,15.4,100.5,37.5
		c9-5.5,17.2-11.8,24.5-18.7c-17.5-29.1-66.8-50.1-125-50.1c-58.2,0-107.5,21-125,50.1c7.3,6.9,15.5,13.1,24.5,18.7
		C181.5,415.1,220,399.7,264.9,399.7z"/>
	<path fill="#FFFFFF" stroke="#3B4167" stroke-width="2" stroke-miterlimit="10" d="M264.9,430.4c27.3,0,52.7,7.4,73.8,20.2
		c9.5-3.8,18.4-8.3,26.7-13.4c-17-22.1-55.6-37.5-100.5-37.5c-44.9,0-83.5,15.4-100.5,37.5c8.3,5.1,17.2,9.6,26.7,13.4
		C212.2,437.8,237.6,430.4,264.9,430.4z"/>
</g>
<g>
	<g>
		<g>
			<path fill="#384465" d="M205.1,369.2c-0.1-0.3-0.1-0.4-0.2-0.7c1.4-0.6,1.5-0.8,0.9-2.8c-1-3.4-1.5-5.1-2.5-8.4
				c-0.3-1.1-0.4-1.1-1-0.9c-0.9,0.3-1.3,0.4-2.2,0.7c-0.6,0.2-0.6,0.4-0.4,1c1.5,4.8,2.4,9.3,1.8,11.6c-0.2,0.8-0.5,1.3-1,1.4
				c-0.6,0.2-1,0.3-1.3,0.2c-0.1-0.2-0.1-0.3-0.2-0.5c0.7-1,1-1.8,1.1-3.2c0.2-2-0.4-5.4-1.6-9c-0.3-0.9-0.7-1.1-2.2-0.7
				c-0.1-0.3-0.1-0.4-0.2-0.7c4.4-1.5,6.6-2.1,11-3.4c0.1,0.3,0.1,0.4,0.2,0.7c-1.5,0.6-1.6,0.8-1.2,2.3c0.9,3.2,1.4,4.8,2.3,8
				c0.6,2,0.8,2.1,2.3,1.9c0.1,0.3,0.1,0.4,0.2,0.7C208.6,368.2,207.4,368.5,205.1,369.2z"/>
			<path fill="#384465" d="M223.7,350.8c-1.4,0.5-1.6,0.9-2,2.6c-0.4,1.9-1.3,7-1.7,8.8c-0.6,3.2-1.6,4-2.7,4.3
				c-0.8,0.2-1.7-0.1-1.9-0.9c-0.1-0.4,0-0.8,0.3-1c0.2-0.2,0.7-0.3,1.2-0.1c0.4,0.1,0.8,0.2,1.1,0.2c0.5-0.1,0.9-0.9,0.7-1.7
				c-0.1-0.4-0.4-0.9-0.8-1.4c-0.8-1-4.6-5.8-5.4-6.7c-0.6-0.7-0.9-0.9-2.2-0.8c-0.1-0.3-0.1-0.4-0.2-0.7c2.3-0.6,3.4-0.9,5.8-1.4
				c0.1,0.3,0.1,0.4,0.2,0.7c-0.2,0.1-0.3,0.2-0.6,0.3c-0.4,0.2-0.4,0.5,0,1c1.7,2.2,2.5,3.3,4.1,5.6c0.3-2.1,0.7-4.1,0.9-6.2
				c0.1-1,0-1.3-0.7-1.3c-0.3,0-0.5,0-0.8,0c-0.1-0.3-0.1-0.4-0.2-0.7c1.8-0.4,2.7-0.6,4.5-0.9C223.6,350.4,223.6,350.5,223.7,350.8
				z"/>
			<path fill="#384465" d="M236.1,351.5c-0.4-0.8-0.6-1.4-0.9-1.8c-0.4-0.4-0.8-0.6-1.9-0.4c-0.5,0.1-0.7,0.1-1.2,0.2
				c-0.8,0.1-0.8,0.1-0.7,0.9c0.6,3.7,0.9,5.5,1.5,9.2c0.3,2,0.5,2.1,2.2,2c0,0.3,0.1,0.4,0.1,0.7c-2.4,0.4-3.6,0.6-6.1,1
				c-0.1-0.3-0.1-0.4-0.1-0.7c1.4-0.4,1.6-0.6,1.2-2.5c-0.5-3.2-0.8-4.8-1.4-8c-0.3-1.9-0.5-2-2.1-1.9c-0.1-0.3-0.1-0.4-0.1-0.7
				c3.9-0.7,5.8-1,9.7-1.5c0.1,0.5,0.4,2.2,0.6,3.3C236.5,351.4,236.4,351.4,236.1,351.5z"/>
			<path fill="#384465" d="M246.7,361c0-0.3,0-0.5-0.1-0.8c1.1-0.3,1.2-0.6,0.8-1.5c-0.3-0.6-0.6-1.5-1-2.4
				c-1.5,0.1-2.3,0.2-3.9,0.4c-0.1,0.7-0.3,1.5-0.5,2.4c-0.2,1.1-0.1,1.4,1.4,1.4c0,0.3,0,0.5,0.1,0.8c-1.8,0.2-2.6,0.3-4.4,0.5
				c0-0.3,0-0.5-0.1-0.8c1.3-0.3,1.5-0.6,1.9-2.5c1.1-4.6,1.7-6.9,3-11.5c0.4-0.2,0.6-0.2,1-0.4c1.7,3.7,3.3,7.3,4.8,11
				c0.8,1.9,1.1,2.1,2.3,2.2c0,0.3,0,0.5,0,0.8C250.1,360.7,249,360.8,246.7,361z M244,350.8C244,350.8,244,350.8,244,350.8
				c-0.5,1.6-0.8,3.2-1.2,4.8c1.3-0.1,1.9-0.2,3.2-0.3C245.2,353.5,244.8,352.6,244,350.8z"/>
			<path fill="#384465" d="M270.1,346.9c-1.6,0.1-1.8,0.2-1.8,2.1c-0.1,3.3-0.1,5-0.1,8.4c0,1.8,0.1,2,1.6,2.1c0,0.3,0,0.5,0,0.8
				c-2.4-0.1-3.6-0.1-6-0.1c0-0.3,0-0.5,0-0.8c1.6-0.2,1.7-0.3,1.7-2.1c0-1.6,0-2.4,0-4c-2.2,0-3.3,0-5.6,0.1c0,1.6,0.1,2.4,0.1,4
				c0,1.8,0.2,2,1.7,2.1c0,0.3,0,0.5,0,0.8c-2.4,0-3.5,0.1-5.9,0.2c0-0.3,0-0.5,0-0.8c1.4-0.2,1.6-0.3,1.5-2.2
				c-0.1-3.3-0.2-5-0.3-8.3c-0.1-1.8-0.3-2-1.9-2.1c0-0.3,0-0.5,0-0.8c2.5-0.1,3.8-0.2,6.3-0.2c0,0.3,0,0.5,0,0.8
				c-1.5,0.2-1.7,0.3-1.6,2.2c0,1.3,0,1.9,0.1,3.2c2.2-0.1,3.4-0.1,5.6-0.1c0-1.3,0-1.9,0-3.2c0-1.8-0.2-2-1.7-2.1
				c0-0.3,0-0.5,0-0.8c2.5,0,3.8,0,6.3,0.1C270.1,346.5,270.1,346.6,270.1,346.9z"/>
			<path fill="#384465" d="M285.8,357.6c-0.4,1-1.1,3.1-1.4,3.3c-0.2,0.2-2.4,0.4-3.7,0.2c-5.2-0.4-7.3-4.2-7.1-7.6
				c0.2-4.4,3.6-7.4,8.7-7.1c1.7,0.1,3.6,0.7,3.8,0.9c0.3,0.4,0.1,2.2,0.1,3.6c-0.3,0-0.5,0-0.8,0.1c-0.4-2.6-2-3.5-3.6-3.7
				c-3-0.2-4.9,2.7-5.1,5.8c-0.2,4,1.6,6.7,4.3,6.9c1.6,0.1,3-0.9,4.2-3C285.4,357.3,285.5,357.4,285.8,357.6z"/>
			<path fill="#384465" d="M298.7,363c-1.5-0.2-1.9-1-2.3-2.4c-0.2-0.7-0.4-1.8-0.6-3.2c-0.3-1.8-1.1-2.4-2.1-2.5
				c-0.2,1.6-0.3,2.4-0.6,4c-0.3,2.1-0.2,2.2,1.3,2.5c0,0.3-0.1,0.5-0.1,0.8c-2.3-0.3-3.5-0.5-5.9-0.8c0-0.3,0.1-0.5,0.1-0.8
				c1.5,0,1.7,0,1.9-2.1c0.4-3.2,0.6-4.8,1-7.9c0.3-2.1,0.1-2.2-1.5-2.5c0-0.3,0.1-0.5,0.1-0.8c2.5,0.3,3.8,0.5,6.3,0.8
				c0,0.3-0.1,0.5-0.1,0.8c-1.6-0.1-1.7,0-2,2.1c-0.2,1.2-0.2,1.8-0.4,3c1,0.1,1.8,0,2.6-0.6c0.7-0.5,1.3-1.4,2.2-2.9
				c0.9-1.5,1.8-2,2.8-1.9c0.8,0.1,1.2,0.7,1.1,1.3c-0.1,0.5-0.6,0.7-1,0.6c-0.1,0-0.2,0-0.4-0.1c-0.8-0.1-1.3,0.2-2.5,1.9
				c-1,1.5-2,2-2.4,2.1c0,0,0,0,0,0.1c1,0.4,1.8,1.1,2.2,2.6c0.2,0.7,0.5,2,0.9,3.4c0.4,1.3,0.9,1.6,1.8,1.9
				c-0.1,0.3-0.1,0.4-0.1,0.7C300,363.2,299.6,363.2,298.7,363z"/>
			<path fill="#384465" d="M310.9,365.5c0.1-0.3,0.1-0.4,0.2-0.7c1.2,0.1,1.3-0.2,1.3-1.2c-0.1-0.7-0.1-1.6-0.2-2.6
				c-1.5-0.4-2.3-0.5-3.8-0.8c-0.4,0.6-0.8,1.3-1.2,2.1c-0.5,1-0.5,1.3,0.9,1.8c-0.1,0.3-0.1,0.4-0.2,0.7c-1.7-0.4-2.6-0.6-4.4-0.9
				c0.1-0.3,0.1-0.4,0.2-0.7c1.3,0.1,1.6-0.1,2.6-1.8c2.5-4,3.8-6,6.5-10c0.4,0,0.7,0,1.1,0c0.5,4,0.8,8,1.2,11.9
				c0.2,2,0.4,2.4,1.6,2.8c-0.1,0.3-0.1,0.4-0.2,0.7C314.2,366.2,313.1,366,310.9,365.5z M311.6,354.9
				C311.5,354.9,311.5,354.9,311.6,354.9c-1,1.4-1.8,2.8-2.7,4.2c1.2,0.3,1.9,0.4,3.1,0.7C311.8,357.8,311.8,356.8,311.6,354.9z"/>
			<path fill="#384465" d="M335.1,358.5c-1.5-0.4-1.8-0.2-2.4,1.7c-1,2.9-1.5,4.4-2.4,7.3c-0.7,2-0.6,2.3,0.9,2.9
				c-0.1,0.3-0.1,0.4-0.2,0.7c-2.2-0.8-3.4-1.1-5.6-1.8c0.1-0.3,0.1-0.4,0.2-0.7c1.4,0.3,1.6,0.1,2.3-1.9c0.4-1.2,0.6-1.8,1-3
				c-0.2-0.1-0.2-0.1-0.4-0.1c-0.6-0.2-1.2,0.1-1.8,0.7c-0.8,0.8-1.6,1.9-2.5,2.8c-0.9,1-1.7,1.4-3.4,0.9c-0.7-0.2-1-0.3-1.7-0.5
				c0.1-0.3,0.1-0.4,0.2-0.7c0.5,0.1,1.1,0.1,1.5-0.2c0.5-0.4,1-1.1,2.1-2.3c1.3-1.4,2.1-1.9,3.1-1.8c0,0,0,0,0,0
				c-2.1-0.9-2.9-2.6-2.4-4.4c0.7-2.4,2.9-3.2,6-2.2c2.4,0.7,3.6,1.1,5.9,1.9C335.3,358.1,335.2,358.2,335.1,358.5z M330.5,358.2
				c0.3-0.8,0-1-0.8-1.3c-1.1-0.4-2.8-0.1-3.4,2.1c-0.6,1.9,0.2,3.2,2.2,3.8c0.2,0.1,0.3,0.1,0.5,0.2
				C329.6,361,329.9,360.1,330.5,358.2z"/>
		</g>
	</g>
	<g>
		<g>
			<path fill="#384465" d="M212.4,384.4c-1.6,0.6-1.7,0.8-1.2,2.6c1,3.2,1.4,4.8,2.4,8c0.5,1.7,0.7,1.8,2.3,1.5
				c0.1,0.3,0.1,0.4,0.2,0.7c-2.4,0.7-3.6,1-5.9,1.8c-0.1-0.3-0.1-0.4-0.2-0.7c1.5-0.7,1.6-0.8,1.1-2.6c-0.5-1.5-0.7-2.3-1.2-3.9
				c-2.2,0.7-3.3,1.1-5.5,1.8c0.5,1.5,0.8,2.3,1.3,3.8c0.6,1.7,0.8,1.8,2.3,1.5c0.1,0.3,0.1,0.4,0.2,0.7c-2.3,0.8-3.5,1.2-5.7,2.1
				c-0.1-0.3-0.2-0.4-0.3-0.7c1.4-0.7,1.5-0.9,0.8-2.6c-1.1-3.1-1.7-4.7-2.9-7.8c-0.6-1.7-0.9-1.8-2.5-1.3c-0.1-0.3-0.2-0.4-0.3-0.7
				c2.5-0.9,3.7-1.4,6.2-2.2c0.1,0.3,0.1,0.4,0.2,0.7c-1.5,0.7-1.6,0.8-1,2.6c0.4,1.2,0.6,1.8,1.1,3c2.2-0.8,3.3-1.1,5.5-1.8
				c-0.4-1.2-0.6-1.8-1-3c-0.6-1.8-0.8-1.8-2.4-1.5c-0.1-0.3-0.1-0.4-0.2-0.7c2.5-0.8,3.8-1.2,6.3-1.9
				C212.2,384,212.3,384.1,212.4,384.4z"/>
			<path fill="#384465" d="M226.6,394.5c-0.1-0.3-0.1-0.4-0.2-0.7c1.1-0.5,1.2-0.7,0.7-1.6c-0.3-0.6-0.8-1.4-1.3-2.2
				c-1.6,0.3-2.3,0.5-3.9,0.9c-0.1,0.7-0.1,1.5-0.2,2.4c0,1.1,0.1,1.4,1.6,1.2c0.1,0.3,0.1,0.4,0.2,0.7c-1.8,0.4-2.7,0.6-4.4,1.1
				c-0.1-0.3-0.1-0.4-0.2-0.7c1.3-0.5,1.4-0.8,1.6-2.7c0.5-4.7,0.9-7.1,1.6-11.9c0.4-0.2,0.6-0.3,1-0.5c2.2,3.4,4.3,6.8,6.3,10.2
				c1.1,1.7,1.4,2,2.7,1.9c0.1,0.3,0.1,0.4,0.1,0.7C230,393.8,228.9,394,226.6,394.5z M222.6,384.7
				C222.6,384.7,222.6,384.7,222.6,384.7c-0.3,1.7-0.4,3.3-0.6,5c1.3-0.3,1.9-0.5,3.2-0.7C224.2,387.3,223.6,386.4,222.6,384.7z"/>
			<path fill="#384465" d="M239.6,377.9c1.7-0.2,3-0.1,3.9,0.4c1.1,0.6,1.8,1.6,1.9,3c0.3,2.9-1.6,4.4-3.7,5
				c-0.3,0.1-0.6,0.1-0.9,0.2c-0.6-0.1-0.9-0.1-1.5-0.2c0.2,1.2,0.2,1.8,0.4,2.9c0.3,1.8,0.5,1.9,2.2,1.9c0,0.3,0.1,0.4,0.1,0.7
				c-2.5,0.3-3.7,0.5-6.2,0.9c0-0.3-0.1-0.4-0.1-0.7c1.5-0.4,1.6-0.6,1.4-2.4c-0.5-3.3-0.8-4.9-1.3-8.2c-0.3-1.8-0.5-1.9-2-1.9
				c0-0.3-0.1-0.4-0.1-0.8C236,378.4,237.2,378.2,239.6,377.9z M239.2,385.4c0.3,0.1,0.7,0.1,1.2,0.1c0.8-0.1,2.4-0.9,2-3.8
				c-0.3-2.4-1.8-3.1-3.1-2.9c-0.4,0.1-0.7,0.2-0.8,0.3c-0.1,0.1-0.1,0.4-0.1,0.7C238.7,382.1,238.9,383.2,239.2,385.4z"/>
			<path fill="#384465" d="M256.9,376.1c3.9-0.2,7.2,2.7,7.2,7c0,4.7-3.1,7.5-6.9,7.7c-4,0.2-7.1-2.8-7.4-6.9
				C249.5,380.2,251.9,376.3,256.9,376.1C256.9,376.1,256.9,376.1,256.9,376.1z M256.5,377c-2.2,0.1-3.7,2.5-3.5,6.3
				c0.2,3.7,2,6.7,4.6,6.6c1.9-0.1,3.4-2.1,3.3-6.1C260.8,379.5,259,376.9,256.5,377C256.5,377,256.5,377,256.5,377z"/>
			<path fill="#384465" d="M278.4,394.8c-0.3,0-0.5,0-0.8-0.1c-0.1-0.9-0.1-1.4-0.2-2.3c-0.1-1.3-0.3-1.6-1.4-1.7
				c-2.7-0.2-4-0.2-6.7-0.3c-0.9,0-1.2,0.4-1.5,1.8c-0.2,0.8-0.3,1.2-0.5,2c-0.3,0-0.5,0-0.8,0c0.1-1.9,0.1-2.9,0.1-4.8
				c0.5,0,0.7,0,1.2,0c0.3,0,0.4-0.1,0.6-0.4c0.7-1.4,1.5-4.8,1.7-10.5c0-0.9-0.1-1.2-1.3-1.4c-0.3,0-0.5-0.1-0.8-0.1
				c0-0.3,0-0.5,0-0.8c4.9,0.1,7.3,0.2,12.1,0.6c0,0.3,0,0.5-0.1,0.8c-1.7,0-1.9,0.1-2,2.2c-0.2,3.6-0.4,5.3-0.6,8.9
				c-0.1,1,0,1.1,0.5,1.2c0.5,0,0.8,0.1,1.3,0.1C279,391.9,278.8,392.8,278.4,394.8z M275.3,378.7c0.1-1.1,0.1-1.2-0.8-1.3
				c-0.9,0-1.4-0.1-2.3-0.1c-0.9,0-0.9,0-0.9,0.9c-0.1,2.7-0.5,7.5-1.4,10.6c-0.1,0.5-0.1,0.7,0.4,0.7c1.2,0,1.8,0.1,3,0.1
				c1,0,1.3-0.1,1.3-1.3C275,384.4,275.1,382.5,275.3,378.7z"/>
			<path fill="#384465" d="M299.2,380.1c-1.7-0.2-1.8,0-2.2,1.8c-0.6,3.3-0.9,4.9-1.4,8.2c-0.3,1.8-0.2,1.9,1.3,2.4
				c-0.1,0.3-0.1,0.4-0.1,0.7c-2.4-0.4-3.6-0.6-6.1-1c0-0.3,0.1-0.5,0.1-0.8c1.6,0.1,1.8,0,2.1-1.8c0.2-1.6,0.4-2.4,0.6-4
				c-2.3-0.4-3.4-0.5-5.7-0.8c-0.2,1.6-0.3,2.4-0.5,4c-0.2,1.8-0.1,2,1.4,2.3c0,0.3-0.1,0.5-0.1,0.8c-2.4-0.3-3.6-0.5-6-0.7
				c0-0.3,0-0.5,0.1-0.8c1.5,0,1.7-0.1,1.9-1.9c0.4-3.3,0.5-5,0.9-8.3c0.2-1.8,0-2-1.6-2.3c0-0.3,0-0.5,0.1-0.8
				c2.6,0.3,3.9,0.4,6.5,0.8c0,0.3-0.1,0.5-0.1,0.8c-1.6-0.1-1.8,0.1-2,1.9c-0.2,1.3-0.2,1.9-0.4,3.2c2.3,0.3,3.4,0.4,5.7,0.8
				c0.2-1.3,0.3-1.9,0.5-3.2c0.3-1.8,0.1-2-1.4-2.4c0-0.3,0.1-0.5,0.1-0.8c2.6,0.4,3.9,0.6,6.5,1.1
				C299.2,379.6,299.2,379.8,299.2,380.1z"/>
			<path fill="#384465" d="M307.4,395.5c0.1-0.3,0.1-0.4,0.2-0.7c1.2,0.1,1.4-0.1,1.3-1.1c0-0.7-0.1-1.6-0.2-2.6
				c-1.6-0.4-2.3-0.6-3.9-0.9c-0.4,0.6-0.8,1.3-1.2,2.1c-0.5,1-0.5,1.3,0.9,1.8c-0.1,0.3-0.1,0.4-0.2,0.7c-1.8-0.4-2.7-0.6-4.4-0.9
				c0.1-0.3,0.1-0.4,0.2-0.7c1.4,0.1,1.6-0.1,2.7-1.7c2.6-4,3.9-6,6.7-9.9c0.5,0,0.7,0,1.2,0c0.5,4,0.8,8,1.1,12
				c0.2,2,0.4,2.4,1.6,2.9c-0.1,0.3-0.1,0.4-0.2,0.7C310.8,396.3,309.7,396.1,307.4,395.5z M308.2,384.9
				C308.1,384.9,308.1,384.9,308.2,384.9c-1,1.4-1.9,2.8-2.8,4.2c1.3,0.3,1.9,0.4,3.2,0.7C308.4,387.9,308.3,386.9,308.2,384.9z"/>
			<path fill="#384465" d="M332.4,389.3c-1.6-0.5-1.8-0.3-2.5,1.7c-1.1,2.9-1.6,4.3-2.7,7.2c-0.7,2-0.6,2.2,0.8,2.9
				c-0.1,0.3-0.2,0.4-0.3,0.7c-2.3-0.9-3.4-1.3-5.7-2.1c0.1-0.3,0.1-0.4,0.2-0.7c1.4,0.3,1.7,0.2,2.4-1.8c0.4-1.2,0.6-1.8,1-3
				c-0.2-0.1-0.3-0.1-0.4-0.1c-0.6-0.2-1.2,0-1.9,0.6c-0.8,0.8-1.7,1.8-2.6,2.7c-1,1-1.8,1.3-3.5,0.8c-0.7-0.2-1-0.3-1.7-0.5
				c0.1-0.3,0.1-0.4,0.2-0.7c0.5,0.1,1.1,0.1,1.5-0.2c0.5-0.4,1.1-1.1,2.2-2.2c1.3-1.3,2.2-1.8,3.2-1.7c0,0,0,0,0,0
				c-2.2-1-3-2.7-2.4-4.5c0.7-2.4,3-3.1,6.2-2c2.4,0.8,3.6,1.3,6.1,2.2C332.5,388.9,332.5,389,332.4,389.3z M327.6,388.8
				c0.3-0.8,0.1-1-0.8-1.3c-1.2-0.4-2.9-0.2-3.5,2c-0.6,1.8,0.2,3.2,2.2,3.9c0.2,0.1,0.3,0.1,0.5,0.2
				C326.6,391.6,326.9,390.6,327.6,388.8z"/>
		</g>
	</g>
	<g>
		<g>
			<path fill="#384465" d="M189.8,424.1c1.6-0.8,2.9-1.1,3.9-1c1.2,0.2,2.2,0.9,2.8,2.2c1.2,2.6-0.2,4.7-2,6
				c-0.3,0.2-0.6,0.3-0.8,0.4c-0.6,0.1-0.9,0.2-1.5,0.3c0.5,1.1,0.8,1.6,1.4,2.6c0.8,1.6,1.1,1.7,2.7,1c0.1,0.3,0.2,0.4,0.3,0.7
				c-2.3,1.1-3.4,1.7-5.7,3c-0.1-0.3-0.2-0.4-0.4-0.6c1.3-0.9,1.4-1.1,0.5-2.7c-1.6-2.9-2.4-4.4-3.9-7.3c-0.9-1.6-1.1-1.7-2.6-1.1
				c-0.1-0.3-0.2-0.4-0.4-0.7C186.5,425.8,187.6,425.2,189.8,424.1z M191.9,431.3c0.3,0,0.7-0.1,1.1-0.3c0.7-0.4,2-1.6,0.7-4.3
				c-1.1-2.2-2.7-2.3-3.9-1.7c-0.4,0.2-0.6,0.4-0.6,0.6c-0.1,0.2,0,0.4,0.1,0.7C190.3,428.3,190.8,429.3,191.9,431.3z"/>
			<path fill="#384465" d="M212.9,425.7c0.2,1,0.5,3,0.5,3.6c-3.9,1.4-5.9,2.2-9.7,3.8c-0.1-0.3-0.2-0.4-0.3-0.7
				c1.5-0.8,1.7-1,1-2.7c-1.3-3.1-1.9-4.6-3.2-7.7c-0.7-1.7-1-1.8-2.5-1.3c-0.1-0.3-0.2-0.4-0.3-0.7c3.9-1.7,5.8-2.5,9.8-3.9
				c0.2,0.4,0.8,1.8,1.3,3c-0.3,0.1-0.4,0.2-0.7,0.4c-0.5-0.6-1-1.2-1.5-1.4c-0.5-0.2-1.1-0.2-2.3,0.3c-0.4,0.2-0.6,0.2-1,0.4
				c-0.8,0.3-0.8,0.4-0.6,1c0.7,1.7,1,2.6,1.7,4.3c0.5-0.2,0.8-0.3,1.3-0.5c1.7-0.7,1.9-0.8,1.7-2.4c0.3-0.1,0.4-0.2,0.7-0.3
				c0.6,1.6,0.9,2.5,1.5,4.1c-0.3,0.1-0.4,0.2-0.7,0.3c-0.8-1.4-1.1-1.4-2.8-0.7c-0.5,0.2-0.8,0.3-1.3,0.5c0.6,1.4,0.8,2.1,1.4,3.5
				c0.4,0.9,0.7,1.4,1.1,1.5c0.4,0,1.1-0.2,1.8-0.5c1-0.4,1.6-0.8,1.9-1.5c0.2-0.6,0.3-1.4,0.4-2.4
				C212.5,425.7,212.6,425.7,212.9,425.7z"/>
			<path fill="#384465" d="M228.2,421c0,1.1,0,3.3-0.3,3.6c-0.2,0.2-2.2,1.1-3.5,1.5c-5.2,1.4-8.5-1.4-9.6-4.6
				c-1.4-4.2,1-8.3,6.1-9.7c1.7-0.5,3.8-0.6,4-0.4c0.4,0.3,0.9,2,1.3,3.3c-0.3,0.1-0.4,0.2-0.7,0.3c-1.3-2.3-3.2-2.7-4.8-2.2
				c-3.1,0.8-3.9,4.2-3,7.3c1.2,3.8,3.9,5.7,6.5,5c1.6-0.4,2.6-1.9,3.1-4.2C227.8,420.9,227.9,421,228.2,421z"/>
			<path fill="#384465" d="M239.8,422.5c0-0.3-0.1-0.4-0.1-0.7c1.5-0.4,1.6-0.5,1.3-2.7c-0.6-3.6-0.8-5.4-1.4-9.1
				c-0.1-0.8-0.2-0.8-1-0.7c-1.5,0.2-2.3,0.4-3.8,0.6c-0.8,0.2-0.9,0.2-0.7,0.9c0.7,3.6,1,5.4,1.7,9.1c0.4,2.1,0.6,2.2,2.1,2.1
				c0.1,0.3,0.1,0.4,0.1,0.7c-2.4,0.4-3.6,0.7-6,1.2c-0.1-0.3-0.1-0.4-0.2-0.7c1.5-0.5,1.7-0.6,1.2-2.7c-0.6-3.1-1-4.6-1.6-7.7
				c-0.4-2-0.6-2.1-2.4-1.9c-0.1-0.3-0.1-0.4-0.2-0.7c6.1-1.3,9.1-1.9,15.2-2.6c0,0.3,0.1,0.5,0.1,0.8c-1.7,0.3-1.9,0.5-1.6,2.6
				c0.4,3.1,0.6,4.6,1.1,7.7c0.3,2.1,0.5,2.2,2.1,2.2c0,0.3,0.1,0.5,0.1,0.8C243.5,421.9,242.3,422.1,239.8,422.5z"/>
			<path fill="#384465" d="M261.5,407.1c-1.5,0.3-1.8,0.6-2.4,2.2c-0.7,1.8-2.5,6.7-3.2,8.4c-1.1,3-2.3,3.7-3.4,3.8
				c-0.8,0.1-1.7-0.4-1.7-1.2c0-0.4,0.2-0.8,0.4-1c0.3-0.2,0.7-0.2,1.2,0c0.4,0.2,0.8,0.4,1.1,0.3c0.5,0,1-0.7,1-1.6
				c0-0.4-0.2-0.9-0.6-1.5c-0.6-1.1-3.7-6.4-4.4-7.5c-0.5-0.8-0.7-1-2.2-1.1c0-0.3,0-0.5-0.1-0.8c2.4-0.3,3.7-0.4,6.1-0.5
				c0,0.3,0,0.5,0.1,0.8c-0.3,0.1-0.4,0.1-0.6,0.2c-0.4,0.1-0.5,0.4-0.1,1c1.4,2.4,2,3.7,3.3,6.1c0.7-2.1,1.4-3.9,2-5.9
				c0.3-1,0.2-1.3-0.5-1.4c-0.3-0.1-0.5-0.1-0.8-0.2c0-0.3,0-0.5,0-0.8c1.9-0.1,2.9-0.1,4.8-0.2
				C261.5,406.6,261.5,406.8,261.5,407.1z"/>
			<path fill="#384465" d="M269.2,412.2c0.7,0,1.3,0,2.2,0c3.1,0.1,4.8,1.7,4.7,4.1c-0.1,1.8-1,2.8-2.1,3.4c-1,0.6-2.6,0.7-4.2,0.7
				c-2.1-0.1-3.1-0.1-5.2-0.1c0-0.3,0-0.4,0-0.7c1.6-0.1,1.7-0.3,1.8-2.4c0-3.1,0-4.7,0.1-7.8c0-2.1-0.2-2.3-1.8-2.4
				c0-0.3,0-0.5,0-0.8c4.2,0,6.3,0.1,10.5,0.3c0,0.5,0,2,0,3.4c-0.3,0-0.5,0-0.8,0.1c-0.2-0.9-0.4-1.5-0.7-2c-0.3-0.5-0.7-0.7-2-0.7
				c-0.6,0-0.8,0-1.4,0c-0.8,0-0.8,0-0.9,0.8C269.3,409.7,269.3,410.6,269.2,412.2z M270.4,419.6c1,0,2.5-0.7,2.7-3.2
				c0.1-2.3-1.1-3.2-2.9-3.3c-0.3,0-0.6,0-1,0c0,1.7-0.1,2.6-0.1,4.3C269,419.1,269.4,419.5,270.4,419.6
				C270.4,419.6,270.4,419.6,270.4,419.6z"/>
			<path fill="#384465" d="M285.1,421.7c0-0.3,0.1-0.5,0.1-0.8c1.5,0.1,1.7-0.1,2-2.2c0.5-3.5,0.7-5.2,1.2-8.7
				c0.2-1.1,0.1-1.2-0.6-1.3c-0.9-0.1-1.4-0.2-2.3-0.3c-0.6-0.1-0.7,0.1-0.8,0.8c-0.6,5-1.7,9.4-3.2,11.3c-0.5,0.7-1,1-1.5,0.9
				c-0.6-0.1-1-0.2-1.3-0.3c0-0.2,0-0.3,0-0.5c1.1-0.6,1.7-1.3,2.3-2.4c1-1.8,1.9-5,2.3-8.8c0.1-0.9-0.2-1.3-1.8-1.5
				c0-0.3,0-0.5,0.1-0.8c4.7,0.5,7.1,0.8,11.8,1.6c-0.1,0.3-0.1,0.4-0.1,0.7c-1.7-0.2-1.8,0-2.1,1.6c-0.5,3.3-0.8,4.9-1.3,8.2
				c-0.3,2.1-0.2,2.3,1.3,2.7c-0.1,0.3-0.1,0.4-0.1,0.7C288.7,422.2,287.5,422,285.1,421.7z"/>
			<path fill="#384465" d="M302.6,425c0.1-0.3,0.1-0.4,0.2-0.7c1.6,0.3,1.8,0.1,2.3-1.8c0.5-2,0.8-3,1.3-4.9
				c0.2-0.7,0.4-1.7,1.1-3.7c0,0,0,0-0.1,0c-3.3,3.6-4.8,5.5-7.9,9.2c-0.2,0.3-0.3,0.5-0.4,0.8c0,0.1,0,0.2-0.1,0.3
				c-1.8-0.4-2.7-0.6-4.6-1c0.1-0.3,0.1-0.4,0.1-0.7c1.6,0.2,1.8,0,2.2-2c0.6-3,0.9-4.6,1.6-7.6c0.4-2.1,0.3-2.3-1.4-2.7
				c0.1-0.3,0.1-0.4,0.1-0.7c2.6,0.5,3.9,0.8,6.4,1.4c-0.1,0.3-0.1,0.4-0.2,0.7c-1.6-0.2-1.8-0.1-2.2,1.9c-0.4,1.7-0.6,2.6-1,4.3
				c-0.2,0.8-0.4,2-1.1,4.2c0,0,0,0,0,0c3-3.7,4.6-5.6,7.9-9.2c0.2-0.2,0.4-0.5,0.4-0.7c0-0.1,0-0.2,0.1-0.3c2,0.5,2.9,0.8,4.9,1.4
				c-0.1,0.3-0.1,0.4-0.2,0.7c-1.7-0.4-1.9-0.2-2.5,1.7c-0.9,3.1-1.3,4.6-2.2,7.7c-0.6,1.9-0.4,2.1,1.1,2.7
				c-0.1,0.3-0.1,0.4-0.2,0.7C306.2,426,305,425.7,302.6,425z"/>
			<path fill="#384465" d="M322,431.3c-1.4-0.6-1.7-1.4-1.8-2.8c0-0.7,0-1.9,0-3.2c0-1.8-0.6-2.6-1.7-2.9c-0.5,1.5-0.8,2.3-1.4,3.8
				c-0.7,2-0.6,2.1,0.8,2.8c-0.1,0.3-0.2,0.4-0.3,0.7c-2.3-0.8-3.5-1.2-5.8-2c0.1-0.3,0.1-0.4,0.2-0.7c1.5,0.4,1.7,0.3,2.4-1.6
				c1-3,1.5-4.5,2.5-7.6c0.7-2,0.5-2.1-1-2.8c0.1-0.3,0.1-0.4,0.2-0.7c2.5,0.8,3.8,1.2,6.3,2.2c-0.1,0.3-0.2,0.4-0.3,0.7
				c-1.6-0.5-1.8-0.4-2.5,1.6c-0.4,1.1-0.6,1.7-1,2.8c1,0.3,1.8,0.4,2.7,0c0.8-0.4,1.6-1.1,2.8-2.3c1.3-1.3,2.3-1.6,3.3-1.2
				c0.8,0.3,1.1,1,0.9,1.5c-0.2,0.5-0.8,0.5-1.2,0.4c-0.1-0.1-0.2-0.1-0.4-0.1c-0.8-0.3-1.4-0.1-3,1.3c-1.4,1.2-2.4,1.5-2.8,1.6
				c0,0,0,0,0,0.1c1,0.7,1.6,1.5,1.7,3.1c0.1,0.7,0.1,2.1,0.2,3.5c0.1,1.4,0.5,1.8,1.4,2.3c-0.1,0.3-0.2,0.4-0.3,0.7
				C323.3,431.9,322.8,431.7,322,431.3z"/>
			<path fill="#384465" d="M333.8,436.6c0.1-0.3,0.2-0.4,0.3-0.7c1.2,0.4,1.4,0.2,1.5-0.8c0.1-0.7,0.2-1.6,0.4-2.6
				c-1.5-0.7-2.2-1.1-3.7-1.8c-0.5,0.5-1.1,1.1-1.7,1.8c-0.7,0.8-0.8,1.1,0.5,1.9c-0.1,0.3-0.2,0.4-0.3,0.7
				c-1.7-0.8-2.5-1.2-4.2-1.9c0.1-0.3,0.2-0.4,0.3-0.7c1.3,0.4,1.6,0.3,3-1.1c3.4-3.3,5.2-5,8.8-8.2c0.5,0.1,0.7,0.2,1.2,0.3
				c-0.4,4-0.9,8-1.5,12c-0.3,2-0.2,2.4,0.9,3.2c-0.1,0.3-0.2,0.4-0.4,0.7C336.9,438.2,335.9,437.7,333.8,436.6z M336.8,426.4
				C336.8,426.4,336.8,426.4,336.8,426.4c-1.3,1.1-2.5,2.3-3.6,3.5c1.2,0.6,1.8,0.9,3,1.5C336.4,429.4,336.6,428.4,336.8,426.4z"/>
		</g>
	</g>
</g>
</svg>
