<svg xmlns="http://www.w3.org/2000/svg" width="48" height="49" viewBox="0 0 48 49" fill="none"><path d="M17.3438 29.2261C17.3438 31.8061 19.3238 33.8861 21.7838 33.8861H26.8037C28.9437 33.8861 30.6838 32.0661 30.6838 29.8261C30.6838 27.3861 29.6238 26.5261 28.0438 25.9661L19.9837 23.1661C18.4037 22.6061 17.3438 21.7461 17.3438 19.3061C17.3438 17.0661 19.0837 15.2461 21.2237 15.2461H26.2437C28.7037 15.2461 30.6838 17.3261 30.6838 19.9061" stroke="#fff" stroke-width="1.5" stroke-linecap="round" stroke-linejoin="round"/><path d="M24 12.5664V36.5664" stroke="#fff" stroke-width="1.5" stroke-linecap="round" stroke-linejoin="round"/><path d="M30 44.5664H18C8 44.5664 4 40.5664 4 30.5664V18.5664C4 8.56641 8 4.56641 18 4.56641H30C40 4.56641 44 8.56641 44 18.5664V30.5664C44 40.5664 40 44.5664 30 44.5664Z" stroke="#fff" stroke-width="1.5" stroke-linecap="round" stroke-linejoin="round"/></svg>