<svg xmlns="http://www.w3.org/2000/svg" width="48" height="49" viewBox="0 0 48 49" fill="none"><path d="M37 25.8672V33.2672C37 39.5072 31.18 44.5672 24 44.5672C16.82 44.5672 11 39.5072 11 33.2672V25.8672C11 32.1072 16.82 36.5672 24 36.5672C31.18 36.5672 37 32.1072 37 25.8672Z" stroke="#fff" stroke-width="1.5" stroke-linecap="round" stroke-linejoin="round"/><path d="M37 15.8664C37 17.6864 36.5 19.3664 35.62 20.8064C33.48 24.3264 29.08 26.5664 24 26.5664C18.92 26.5664 14.52 24.3264 12.38 20.8064C11.5 19.3664 11 17.6864 11 15.8664C11 12.7464 12.46 9.92641 14.8 7.88641C17.16 5.82641 20.4 4.56641 24 4.56641C27.6 4.56641 30.84 5.82641 33.2 7.86641C35.54 9.92641 37 12.7464 37 15.8664Z" stroke="#fff" stroke-width="1.5" stroke-linecap="round" stroke-linejoin="round"/><path d="M37 15.8664V25.8664C37 32.1064 31.18 36.5664 24 36.5664C16.82 36.5664 11 32.1064 11 25.8664V15.8664C11 9.62641 16.82 4.56641 24 4.56641C27.6 4.56641 30.84 5.82641 33.2 7.86641C35.54 9.92641 37 12.7464 37 15.8664Z" stroke="#fff" stroke-width="1.5" stroke-linecap="round" stroke-linejoin="round"/></svg>